<svg xmlns="http://www.w3.org/2000/svg" viewBox="0 0 38 39"><path d="M21.17,12.81a7.58,7.58,0,0,1-.83.75,10.31,10.31,0,0,1-.95.68,12.75,12.75,0,0,0-1.09.85,6.63,6.63,0,0,0-.92,1,4.55,4.55,0,0,0-.64,1.16,3.88,3.88,0,0,0-.24,1.35V20h7V18.66H18v-.45a1.82,1.82,0,0,1,.26-1,3.87,3.87,0,0,1,.63-.83,10,10,0,0,1,.79-.69l.73-.53c.31-.21.63-.46,1-.74a9,9,0,0,0,1-1,6.1,6.1,0,0,0,.77-1.13,2.67,2.67,0,0,0,.31-1.26,3.06,3.06,0,0,0-.32-1.44,2.77,2.77,0,0,0-.84-1,3.47,3.47,0,0,0-1.19-.54A5.33,5.33,0,0,0,19.76,8,4.45,4.45,0,0,0,18,8.33a5.32,5.32,0,0,0-1.36.84l.76,1.11a3.61,3.61,0,0,1,1.06-.64,3.43,3.43,0,0,1,2.1-.15,2.47,2.47,0,0,1,.72.32,1.71,1.71,0,0,1,.51.56,1.55,1.55,0,0,1,.19.8,1.77,1.77,0,0,1-.22.85,3.85,3.85,0,0,1-.59.8Zm7.07,13.35a18.6,18.6,0,0,0-4.59-1,2.7,2.7,0,0,0-2.26,1.23c-1.2,1.37-2.09,1.93-3.05,1.93-1.31,0-3-1.06-5.07-3.23C9.94,21.64,9.52,20,9.56,19.25a1.12,1.12,0,0,1,.46-.84c.21-.17.43-.33.63-.48,1.52-1.13,3-2.2,1.89-5.77a27,27,0,0,0-2.46-5.89A2.24,2.24,0,0,0,8.17,5c-1,0-2.21.71-4.34,2.21C2.12,8.42.17,9.8,0,12-.11,13.7.74,23.65,7.68,30.14,16.11,38,22,39,24.13,39h0c1.8,0,4.81-2,6.57-4.29,1-1.38,2.35-3.44,1.73-5.38-.46-1.43-1.85-2.47-4.24-3.17Zm1.26,7.57c-1.57,2.07-4.15,3.67-5.33,3.67h0c-1.95,0-7.37-.92-15.41-8.44C2.35,23,1.47,13.6,1.58,12.12s1.65-2.54,3.3-3.7c1.34-1,2.66-1.82,3.29-1.82.11,0,.28,0,.56.49A25.24,25.24,0,0,1,11,12.63c.74,2.48.1,3-1.31,4l-.67.51a2.68,2.68,0,0,0-1.06,2c-.12,1.75,1.24,4.06,4.16,7.07,2.44,2.53,4.41,3.71,6.18,3.71s3.15-1.24,4.35-2.6c.4-.46.49-.56,1-.56a18.25,18.25,0,0,1,4.15.94c1.83.53,2.9,1.25,3.18,2.13s-.19,2.2-1.48,3.91ZM21.89,0a15.84,15.84,0,0,0-8.64,2.58l.26,1A14.83,14.83,0,0,1,21.88,1,15.32,15.32,0,0,1,37,16.5a15.61,15.61,0,0,1-2.75,8.89l.49,1A16.68,16.68,0,0,0,38,16.5,16.31,16.31,0,0,0,21.89,0Zm6.59,8.11c-.64,1.46-1.28,2.92-1.92,4.4l-1.93,4.37v1.28h5V20h1.48V18.16h1V16.81h-1V13.26H29.67v3.55H26.26L30,8.11Z" fill="#fff"/></svg>