<svg xmlns="http://www.w3.org/2000/svg" viewBox="0 0 10 21.99"><path d="M9.33,6.34A.67.67,0,0,0,8.64,7h0V17a3.45,3.45,0,0,1-1.07,2.56A3.63,3.63,0,0,1,1.35,17V3.83A2.5,2.5,0,0,1,3.83,1.34,2.51,2.51,0,0,1,6.32,3.83V15a1.22,1.22,0,0,1-1.21,1.23h0A1.24,1.24,0,0,1,3.86,15V9.2a.67.67,0,0,0-.67-.68h0a.66.66,0,0,0-.67.66V15a2.57,2.57,0,0,0,2.54,2.58h0a2.54,2.54,0,0,0,1.84-.75A2.47,2.47,0,0,0,7.66,15V3.83A3.72,3.72,0,0,0,6.54,1.12,3.84,3.84,0,0,0,0,3.83V17a5,5,0,0,0,10,0V7a.66.66,0,0,0-.65-.68Z" fill="#fff" fill-rule="evenodd"/></svg>