<svg width="80" height="80" viewBox="0 0 80 80" fill="none" xmlns="http://www.w3.org/2000/svg">
<rect width="80" height="80" rx="17" fill="white"/>
<path d="M43.3965 17.1431L42.8478 47.9336H37.002L36.4533 17.1431H43.3965ZM39.9354 60.7648C38.7677 60.7648 37.7688 60.3568 36.9387 59.5408C36.1086 58.7107 35.7006 57.7118 35.7146 56.544C35.7006 55.3904 36.1086 54.4055 36.9387 53.5895C37.7688 52.7594 38.7677 52.3444 39.9354 52.3444C41.075 52.3444 42.0599 52.7594 42.89 53.5895C43.7201 54.4055 44.1421 55.3904 44.1562 56.544C44.1421 57.3179 43.9381 58.0283 43.5442 58.6755C43.1643 59.3086 42.6578 59.8151 42.0247 60.195C41.3916 60.5749 40.6952 60.7648 39.9354 60.7648Z" fill="black"/>
</svg>
