<svg xmlns="http://www.w3.org/2000/svg" xmlns:xlink="http://www.w3.org/1999/xlink" width="744.792" height="729.146" viewBox="0 0 744.792 729.146"><defs><filter id="a" x="0" y="0" width="744.792" height="729.146" filterUnits="userSpaceOnUse"><feOffset dy="49" input="SourceAlpha"/><feGaussianBlur stdDeviation="24" result="b"/><feFlood flood-opacity="0.078"/><feComposite operator="in" in2="b"/><feComposite in="SourceGraphic"/></filter></defs><g transform="matrix(1, 0, 0, 1, 0, 0)" filter="url(#a)"><path d="M384.5,17.2h0a37.775,37.775,0,0,1,53.07,0L481.627,61.26,525.685,17.2a37.775,37.775,0,0,1,53.07,0h0a37.775,37.775,0,0,1,0,53.07L534.7,114.33l44.058,44.058a37.775,37.775,0,0,1,0,53.07h0a37.775,37.775,0,0,1-53.07,0L481.627,167.9l-44.058,44.058a37.775,37.775,0,0,1-53.07,0h0a37.775,37.775,0,0,1,0-53.07l44.058-44.058L384.5,70.772C369.479,55.753,369.479,31.721,384.5,17.2ZM56.066,76.78H231.3a37.823,37.823,0,0,1,37.549,37.549h0a37.823,37.823,0,0,1-37.549,37.55H56.066a37.823,37.823,0,0,1-37.55-37.55h0A37.823,37.823,0,0,1,56.066,76.78ZM243.813,491.327H181.231v62.582a37.823,37.823,0,0,1-37.549,37.549h0a37.823,37.823,0,0,1-37.549-37.549V491.327H43.549A37.823,37.823,0,0,1,6,453.777H6a37.823,37.823,0,0,1,37.549-37.549h62.583V353.645A37.823,37.823,0,0,1,143.681,316.1h0a37.823,37.823,0,0,1,37.549,37.549v62.582h62.583a37.823,37.823,0,0,1,37.55,37.549h0A37.823,37.823,0,0,1,243.813,491.327Zm325.429,62.582H394.011a37.823,37.823,0,0,1-37.549-37.549h0a37.823,37.823,0,0,1,37.549-37.55H569.242a37.823,37.823,0,0,1,37.549,37.55h0A37.823,37.823,0,0,1,569.242,553.909Zm0-125.165H394.011a37.823,37.823,0,0,1-37.549-37.549h0a37.823,37.823,0,0,1,37.549-37.549H569.242a37.823,37.823,0,0,1,37.549,37.549h0A37.823,37.823,0,0,1,569.242,428.744Z" transform="translate(66 16.69)" fill="#fff"/></g></svg>