<svg xmlns="http://www.w3.org/2000/svg" xmlns:xlink="http://www.w3.org/1999/xlink" width="550.027" height="699" viewBox="0 0 550.027 699"><defs><filter id="a" x="0" y="0" width="550.027" height="550.027" filterUnits="userSpaceOnUse"><feOffset dy="49" input="SourceAlpha"/><feGaussianBlur stdDeviation="24" result="b"/><feFlood flood-opacity="0.078"/><feComposite operator="in" in2="b"/><feComposite in="SourceGraphic"/></filter><filter id="c" x="32.869" y="279.987" width="419.013" height="419.013" filterUnits="userSpaceOnUse"><feOffset dy="49" input="SourceAlpha"/><feGaussianBlur stdDeviation="24" result="d"/><feFlood flood-opacity="0.078"/><feComposite operator="in" in2="d"/><feComposite in="SourceGraphic"/></filter></defs><g transform="translate(55.36 54.751)"><path d="M0,0H475.572V475.572H0Z" transform="translate(0 1.147)" fill="none"/><g transform="matrix(1, 0, 0, 1, -55.36, -54.75)" filter="url(#a)"><path d="M297.232,178.339V39.631A39.747,39.747,0,0,0,257.6,0H39.631A39.748,39.748,0,0,0,0,39.631v257.6L79.262,217.97H257.6A39.747,39.747,0,0,0,297.232,178.339Z" transform="translate(220.62 23) rotate(30)" fill="#f1f2f2"/></g><g transform="matrix(1, 0, 0, 1, -55.36, -54.75)" filter="url(#c)"><path d="M201.323,80.529V174.48a26.922,26.922,0,0,1-26.843,26.843H26.843A26.922,26.922,0,0,1,0,174.48V0L53.686,53.686H174.48A26.922,26.922,0,0,1,201.323,80.529Z" transform="translate(279.22 578) rotate(-150)" fill="#f1f2f2"/></g></g></svg>