<svg xmlns="http://www.w3.org/2000/svg" xmlns:xlink="http://www.w3.org/1999/xlink" width="654" height="422.182" viewBox="0 0 654 422.182"><defs><filter id="a" x="0" y="0" width="654" height="422.182" filterUnits="userSpaceOnUse"><feOffset dy="49" input="SourceAlpha"/><feGaussianBlur stdDeviation="24" result="b"/><feFlood flood-opacity="0.078"/><feComposite operator="in" in2="b"/><feComposite in="SourceGraphic"/></filter></defs><g transform="translate(72 23)"><g transform="matrix(1, 0, 0, 1, -72, -23)" filter="url(#a)"><path d="M511,52.364a46.5,46.5,0,0,1-46.364,46.364A39.4,39.4,0,0,1,452.814,97.1l-82.527,82.3a40.95,40.95,0,0,1,1.623,12.055,46.364,46.364,0,1,1-92.727,0A40.951,40.951,0,0,1,280.8,179.4l-59.114-59.114a45.585,45.585,0,0,1-24.109,0L92.1,226a39.4,39.4,0,0,1,1.623,11.823,46.364,46.364,0,1,1-46.364-46.364,39.4,39.4,0,0,1,11.823,1.623L164.9,87.6a40.95,40.95,0,0,1-1.623-12.055,46.364,46.364,0,1,1,92.727,0A40.95,40.95,0,0,1,254.377,87.6l59.114,59.114a45.585,45.585,0,0,1,24.109,0l82.3-82.527a39.4,39.4,0,0,1-1.623-11.823,46.364,46.364,0,1,1,92.727,0Zm0,0a46.5,46.5,0,0,1-46.364,46.364A39.4,39.4,0,0,1,452.814,97.1l-82.527,82.3a40.95,40.95,0,0,1,1.623,12.055,46.364,46.364,0,1,1-92.727,0A40.951,40.951,0,0,1,280.8,179.4l-59.114-59.114a45.585,45.585,0,0,1-24.109,0L92.1,226a39.4,39.4,0,0,1,1.623,11.823,46.364,46.364,0,1,1-46.364-46.364,39.4,39.4,0,0,1,11.823,1.623L164.9,87.6a40.95,40.95,0,0,1-1.623-12.055,46.364,46.364,0,1,1,92.727,0A40.95,40.95,0,0,1,254.377,87.6l59.114,59.114a45.585,45.585,0,0,1,24.109,0l82.3-82.527a39.4,39.4,0,0,1-1.623-11.823,46.364,46.364,0,1,1,92.727,0Z" transform="translate(71 17)" fill="#fff"/></g></g></svg>