<svg xmlns="http://www.w3.org/2000/svg" xmlns:xlink="http://www.w3.org/1999/xlink" width="739.712" height="754.167" viewBox="0 0 739.712 754.167"><defs><filter id="a" x="426.624" y="38.047" width="313.088" height="382.255" filterUnits="userSpaceOnUse"><feOffset dy="49" input="SourceAlpha"/><feGaussianBlur stdDeviation="24" result="b"/><feFlood flood-opacity="0.078"/><feComposite operator="in" in2="b"/><feComposite in="SourceGraphic"/></filter><filter id="c" x="0" y="0" width="727.513" height="754.167" filterUnits="userSpaceOnUse"><feOffset dy="49" input="SourceAlpha"/><feGaussianBlur stdDeviation="24" result="d"/><feFlood flood-opacity="0.078"/><feComposite operator="in" in2="d"/><feComposite in="SourceGraphic"/></filter></defs><g transform="translate(9.861 154.952) rotate(-30)"><g transform="matrix(0.87, 0.5, -0.5, 0.87, 68.94, -139.12)" filter="url(#a)"><path d="M68.615,130.623A163.115,163.115,0,0,0,14,8.65V252.231A161.742,161.742,0,0,0,68.615,130.623Z" transform="translate(482.17 87.86) rotate(-30)" fill="#fff"/></g><g transform="matrix(0.87, 0.5, -0.5, 0.87, 68.94, -139.12)" filter="url(#c)"><path d="M220.458,115.229H74.819A73.034,73.034,0,0,0,2,188.049v72.819a73.034,73.034,0,0,0,72.819,72.819h36.41V442.917a36.517,36.517,0,0,0,36.41,36.41h0a36.517,36.517,0,0,0,36.41-36.41V333.688h36.41L402.507,442.917V6Z" transform="translate(67.27 219.06) rotate(-30)" fill="#fff"/></g></g></svg>