<svg xmlns="http://www.w3.org/2000/svg" xmlns:xlink="http://www.w3.org/1999/xlink" width="478.501" height="513.085" viewBox="0 0 478.501 513.085"><defs><linearGradient id="a" x1="0.964" y1="0.016" x2="0.315" y2="0.744" gradientUnits="objectBoundingBox"><stop offset="0" stop-color="#00c082"/><stop offset="1" stop-color="#00b281"/></linearGradient><filter id="b" x="0" y="39.2" width="478.501" height="473.885" filterUnits="userSpaceOnUse"><feOffset dy="49" input="SourceAlpha"/><feGaussianBlur stdDeviation="24" result="c"/><feFlood flood-opacity="0.078"/><feComposite operator="in" in2="c"/><feComposite in="SourceGraphic"/></filter></defs><g transform="translate(24.75)"><path d="M0,0H429V429H0Z" fill="none"/><g transform="matrix(1, 0, 0, 1, -24.75, 0)" filter="url(#b)"><path d="M315.89,0H185.616a18.538,18.538,0,0,0-18.611,18.354V183.538l55.832-55.061H315.89A18.538,18.538,0,0,0,334.5,110.123V18.354A18.538,18.538,0,0,0,315.89,0ZM301.56,225.018,254.289,219.7a37.358,37.358,0,0,0-30.521,10.462l-34.243,33.771A278.1,278.1,0,0,1,66.88,142.976l34.43-33.955a36.235,36.235,0,0,0,10.608-30.1l-5.4-46.252A37.067,37.067,0,0,0,69.486.184H37.29C16.26.184-1.234,17.436.068,38.176,9.932,194.917,137.042,320.09,295.791,329.818c21.03,1.285,38.524-15.968,38.524-36.708V261.358C334.5,242.821,320.357,227.22,301.56,225.018Z" transform="translate(72 62.2)" fill="url(#a)"/></g></g></svg>