<svg xmlns="http://www.w3.org/2000/svg" xmlns:xlink="http://www.w3.org/1999/xlink" width="546.958" height="623.099" viewBox="0 0 546.958 623.099">
  <defs>
    <filter id="Объединение_90" x="0" y="0" width="546.958" height="623.099" filterUnits="userSpaceOnUse">
      <feOffset dy="49" input="SourceAlpha"/>
      <feGaussianBlur stdDeviation="24" result="blur"/>
      <feFlood flood-opacity="0.078"/>
      <feComposite operator="in" in2="blur"/>
      <feComposite in="SourceGraphic"/>
    </filter>
  </defs>
  <g id="bg_question" transform="translate(29.582 1.792)">
    <path id="Контур_3696" data-name="Контур 3696" d="M0,0H509V509H0Z" fill="none"/>
    <g transform="matrix(1, 0, 0, 1, -29.58, -1.79)" filter="url(#Объединение_90)">
      <path id="Объединение_90-2" data-name="Объединение 90" d="M-10101.126-12532.254c-106.253-5.513-190.873-93.739-190.873-201.269,0-111.129,90.347-201.479,201.479-201.479s201.479,90.35,201.479,201.479c0,104.981-72.956,210.6-181.755,262.986l-30.33,14.634Zm-148.457-201.269a159.118,159.118,0,0,0,159.063,159.063h31.813v48.782c77.2-48.782,127.25-128.948,127.25-207.846a159.12,159.12,0,0,0-159.062-159.06A159.118,159.118,0,0,0-10249.583-12733.522Zm141.829,103.773v-40.137h40.919v40.137Zm2.606-56.557v-3.386q0-14.077,4.82-24.762t15.771-18.764q7.557-5.736,14.2-11.206t6.646-13.294q0-8.077-6.516-12.118a27.594,27.594,0,0,0-14.854-4.041,38.344,38.344,0,0,0-20.721,5.606,78.058,78.058,0,0,0-13.684,10.293l-22.935-24.239a92.828,92.828,0,0,1,12.771-11.336,75.864,75.864,0,0,1,19.809-10.427q11.726-4.3,27.366-4.3a68.576,68.576,0,0,1,28.928,5.862,48.826,48.826,0,0,1,20.2,16.55q7.425,10.688,7.428,25.8t-6,23.844a67.53,67.53,0,0,1-15.378,15.771q-6.252,4.953-11.336,8.992a32.038,32.038,0,0,0-7.949,8.992q-2.868,4.947-2.867,12.771v3.386Zm28.157-185.068Z" transform="translate(10364 12958)" fill="#fff"/>
    </g>
  </g>
</svg>
