<svg xmlns="http://www.w3.org/2000/svg" xmlns:xlink="http://www.w3.org/1999/xlink" width="654.984" height="586.568" viewBox="0 0 654.984 586.568"><defs><filter id="a" x="269.911" y="0" width="385.073" height="586.568" filterUnits="userSpaceOnUse"><feOffset dy="49" input="SourceAlpha"/><feGaussianBlur stdDeviation="24" result="b"/><feFlood flood-opacity="0.078"/><feComposite operator="in" in2="b"/><feComposite in="SourceGraphic"/></filter><filter id="c" x="0" y="0" width="385.073" height="586.568" filterUnits="userSpaceOnUse"><feOffset dy="49" input="SourceAlpha"/><feGaussianBlur stdDeviation="24" result="d"/><feFlood flood-opacity="0.078"/><feComposite operator="in" in2="d"/><feComposite in="SourceGraphic"/></filter></defs><g transform="translate(72 23)"><g transform="matrix(1, 0, 0, 1, -72, -23)" filter="url(#a)"><path d="M18.977,82.405q0-43.177,28.785-70.163t73.761-26.986q55.771,0,90.852,39.579t35.081,115.14q0,64.766-17.991,113.341t-46.775,83.656q-28.785,35.082-62.967,57.57T51.36,427.824L6.384,357.661Q71.15,332.474,102.633,279.4t31.483-107.044a96.848,96.848,0,0,1-30.584,5.4q-35.981,0-60.268-24.287T18.977,82.405Z" transform="translate(335.53 37.74)" fill="#fff"/></g><g transform="matrix(1, 0, 0, 1, -72, -23)" filter="url(#c)"><path d="M18.977,82.405q0-43.177,28.785-70.163t73.761-26.986q55.771,0,90.852,39.579t35.081,115.14q0,64.766-17.991,113.341t-46.775,83.656q-28.785,35.082-62.967,57.57T51.36,427.824L6.384,357.661Q71.15,332.474,102.633,279.4t31.483-107.044a96.848,96.848,0,0,1-30.584,5.4q-35.981,0-60.268-24.287T18.977,82.405Z" transform="translate(65.62 37.74)" fill="#fff"/></g></g></svg>