<svg xmlns="http://www.w3.org/2000/svg" xmlns:xlink="http://www.w3.org/1999/xlink" width="583.441" height="583.488" viewBox="0 0 583.441 583.488"><defs><filter id="a" x="0" y="315.771" width="267.718" height="267.718" filterUnits="userSpaceOnUse"><feOffset dy="49" input="SourceAlpha"/><feGaussianBlur stdDeviation="24" result="b"/><feFlood flood-opacity="0.078"/><feComposite operator="in" in2="b"/><feComposite in="SourceGraphic"/></filter><filter id="c" x="0" y="0" width="583.441" height="583.485" filterUnits="userSpaceOnUse"><feOffset dy="49" input="SourceAlpha"/><feGaussianBlur stdDeviation="24" result="d"/><feFlood flood-opacity="0.078"/><feComposite operator="in" in2="d"/><feComposite in="SourceGraphic"/></filter></defs><g transform="translate(-178 -6498.513)"><g transform="matrix(1, 0, 0, 1, 178, 6498.51)" filter="url(#a)"><circle cx="61.859" cy="61.859" r="61.859" transform="translate(72 338.77)" fill="#fff"/></g><g transform="matrix(1, 0, 0, 1, 178, 6498.51)" filter="url(#c)"><path d="M49.117,166.767C25.282,162.795,4,182.374,4,206.493c0,20.147,15.039,36.321,34.9,39.726C121.759,260.69,187.023,326.238,201.778,409.1c3.405,19.863,19.579,34.9,39.726,34.9,24.119,0,43.7-21.282,40.01-45.117-19.3-119.178-113.219-213.1-232.4-232.113ZM48.266,4.742C24.714,2.189,4,21.2,4,44.752A39.8,39.8,0,0,0,40.037,84.478c170.538,17.025,306.173,152.661,323.2,323.2A39.821,39.821,0,0,0,402.961,444a40.562,40.562,0,0,0,40.293-44.266C422.54,191.454,256.827,25.457,48.266,4.742Z" transform="translate(68 18.49)" fill="#fff"/></g></g></svg>