<svg xmlns="http://www.w3.org/2000/svg" width="327.376" height="399.859" viewBox="0 0 327.376 399.859"><defs><style>.a,.b,.c,.d,.e,.f,.g,.h,.i,.j{fill:#20a038;}.a{opacity:0.456;}.c{opacity:0.848;}.d{opacity:0.395;}.e{opacity:0.301;}.f{opacity:0.841;}.g{opacity:0.504;}.h{opacity:0.573;}.i{opacity:0.299;}.j{opacity:0.603;}</style></defs><g transform="translate(0 0)"><path class="a" d="M3108.875-1093l17.339-12.75,6.78,23.942Z" transform="translate(-3108.875 1307.673)"/><path class="b" d="M3120.247-1100.613l28.8-14.8,42.88,38.708-64.911-.024Z" transform="translate(-3102.912 1302.574)"/><path class="c" d="M3124.868-1089.483l64.9.008-26.988,74.92-36.556,9.876Z" transform="translate(-3100.749 1315.329)"/><path class="d" d="M3162.127-1040.941l124.94,63.6-63.193,20.22-98.318-73.933Z" transform="translate(-3100.071 1341.7)"/><path class="e" d="M3172.494-999.189l8.061,35.49,18.806-15.289Z" transform="translate(-3075.579 1363.558)"/><path class="f" d="M3230.652-1031.827l44.025,54.584-125.1-63.674Z" transform="translate(-3087.53 1341.69)"/><path class="g" d="M3272.943-1052.44c-1.383-1.34-66.156-92.641-66.156-92.641l-57.224,158.838,81.126,9.079Z" transform="translate(-3087.542 1287.021)"/><path class="h" d="M3187.06-1103.494l119.924-120.88-53.742,213.505Z" transform="translate(-3067.831 1245.452)"/><path class="i" d="M3243.272-1238.2c-1.947,2.312-56.212,142-56.212,142l62.536-63.036Z" transform="translate(-3067.859 1238.202)"/><path class="j" d="M3246.514-980.505l140.4,7.6-184.222-62.006Z" transform="translate(-3059.535 1344.814)"/></g></svg>