<svg xmlns="http://www.w3.org/2000/svg" viewBox="0 0 51.97 41.99"><path d="M48.86,24.84a7.1,7.1,0,0,0-5.94-2.7,8.75,8.75,0,0,0-2.1.2A14.82,14.82,0,0,1,43.4,13.4a18.49,18.49,0,0,1,6.8-5.67L45.42,1a23.2,23.2,0,0,0-4.88,2.69,26.46,26.46,0,0,0-5.36,5.1,29.39,29.39,0,0,0-4.4,7.69A28.9,28.9,0,0,0,29,27.33q0,6.74,3.35,10.19A11.34,11.34,0,0,0,40.82,41a10.41,10.41,0,0,0,7.27-2.59,9,9,0,0,0,2.87-7,10.2,10.2,0,0,0-2.11-6.53Zm-27.95,0A7.07,7.07,0,0,0,15,22.14a8.7,8.7,0,0,0-2.1.2,14.81,14.81,0,0,1,2.58-8.94,18.49,18.49,0,0,1,6.8-5.67L17.47,1a23.2,23.2,0,0,0-4.88,2.69,26.46,26.46,0,0,0-5.36,5.1,29.39,29.39,0,0,0-4.4,7.69A29.1,29.1,0,0,0,1,27.33q0,6.74,3.35,10.19A11.34,11.34,0,0,0,12.87,41a10.45,10.45,0,0,0,7.28-2.59,9,9,0,0,0,2.87-7,10.32,10.32,0,0,0-2.11-6.53Z" fill="none" stroke="#fff" stroke-linejoin="round" stroke-width="2" opacity="0.6" style="isolation:isolate"/></svg>