<svg width="503" height="505" viewBox="0 0 503 505" fill="none" xmlns="http://www.w3.org/2000/svg">
<path d="M0 332.551L503 332.551" stroke="#008D80" stroke-width="2"/>
<path d="M421.239 0L421.239 505" stroke="#008D80" stroke-width="2"/>
<path d="M422.37 332.18C420.333 330.144 419.5 331.5 415.5 326.5C412.514 322.292 409.609 318.235 407.299 313.615C404.306 307.629 401.73 301.849 401.269 295.065C400.955 290.448 400.747 286.355 403.895 282.683C406.029 280.193 408.889 278.471 412.246 278.179C414.311 277.999 417.375 277.712 419.361 278.316C424.15 279.774 426.065 284.971 426.811 289.447C427.403 292.995 427.654 296.007 427.911 299.598C428.137 302.77 428.269 307.99 427.911 312.535C427.365 319.452 425.572 325.856 423.477 331.236C422.997 333.227 421.307 330.578 420.602 332.517C420.368 333.16 422.839 332.41 423.712 330.852C426.849 325.249 429.399 322.489 432.414 316.806C434.108 313.615 440.255 304.209 442.461 300.592C445.466 295.663 450.207 290.571 455.896 288.882C459.704 287.751 464.355 287.35 468.11 288.943C472.032 290.607 475.021 294.488 475.866 298.561C477.002 304.039 474.63 308.692 470.858 313.065C464.246 320.733 454.392 325.088 445.169 327.906C438.509 329.941 430.314 331.527 423.712 331.967M422.37 332.18C423.118 331.931 421.345 331.967 423.712 331.967M422.37 332.18C420.802 332.703 417.793 333.902 416.17 334.013C408.727 334.52 402.487 339.79 397.452 344.914C391.501 350.968 387.999 359.073 383.192 365.983C378.194 373.168 370.096 381.688 360.993 383.205C358.947 383.546 355.898 383.856 353.847 383.357C352.467 383.022 351.281 382.087 350 381.22M423.712 331.967C422.091 332.075 425.195 331.331 423.712 331.967Z" stroke="#008D80" stroke-width="3" stroke-linecap="round"/>
<path d="M421.345 331.882C421.261 333.396 421.779 330.808 420.705 331.882C419.784 332.803 421.483 331.822 420.705 332.901C419.769 334.196 416.046 343.023 415.5 344.505C413.425 350.136 412.933 357.645 417.388 362.362C426.187 371.679 433.684 382.201 433.684 395.495C433.684 397.585 433.684 401.428 432.471 404.51" stroke="#008D80" stroke-width="3" stroke-linecap="round"/>
</svg>
