<svg xmlns="http://www.w3.org/2000/svg" width="41.999" height="16" viewBox="0 0 41.999 16"><defs><style>.a{fill:#fff;}</style></defs><path class="a" d="M-8573-9864h-30a6.006,6.006,0,0,1-6-6v-4a6.006,6.006,0,0,1,6-6h30a6.007,6.007,0,0,1,6,6v4A6.007,6.007,0,0,1-8573-9864Zm-8-10a2,2,0,0,0-2,2,2,2,0,0,0,2,2,2,2,0,0,0,2-2A2,2,0,0,0-8581-9874Zm-7,0a2,2,0,0,0-2,2,2,2,0,0,0,2,2,2,2,0,0,0,2-2A2,2,0,0,0-8588-9874Zm-7,0a2,2,0,0,0-2,2,2,2,0,0,0,2,2,2,2,0,0,0,2-2A2,2,0,0,0-8595-9874Z" transform="translate(8608.999 9880)"/></svg>