<svg xmlns="http://www.w3.org/2000/svg" width="508.435" height="415.998" viewBox="0 0 508.435 415.998"><defs><style>.a{fill:#f6fbf4;}</style></defs><path class="a" d="M-7198-18760v0h-508.435c11.988-12.469,23.534-25.65,34.315-39.184,10.808-13.566,21.1-27.795,30.58-42.291,9.533-14.574,18.478-29.762,26.586-45.141,8.17-15.5,15.685-31.561,22.333-47.732,6.712-16.326,12.708-33.17,17.821-50.062,5.169-17.078,9.56-34.619,13.05-52.135,3.535-17.738,6.233-35.889,8.02-53.949,1.812-18.316,2.731-36.99,2.731-55.5,0-9.98-.268-20.074-.794-30l353.794,0v416Z" transform="translate(7706.434 19175.998)"/></svg>