<svg xmlns="http://www.w3.org/2000/svg" viewBox="0 0 535.43 461.72"><defs><style>.cls-1{fill:#00a174;}</style></defs><title>Ресурс 8</title><g id="Слой_2" data-name="Слой 2"><g id="Layer_1" data-name="Layer 1"><path class="cls-1" d="M502.57,255.64c1.71,1.82,3,3,4.05,4.37a6.22,6.22,0,0,1,1.56,3.18c.22,5.64.21,11.28.27,16.93,0,1.78,0,3.55,0,6,2.59,0,4.72-.15,6.82,0,2.88.26,6.1-.94,8.05,3,.65,1.3,4.23,1.16,5.69,1.49,1.77,2.1,3.68,3.53,4.38,5.4a30.83,30.83,0,0,1,1.8,9c.39,6.89-3.31,11.8-8.31,16.06a25.48,25.48,0,0,0-4.42,5.22,2.92,2.92,0,0,0,.1,2.81c2.2,1.86,5.56,2.92,6.78,5.19,1.77,3.29,6.29,4.8,5.9,9.42a70.62,70.62,0,0,0-.06,8c.14,4.49-4.29,5.92-6.09,9.13-.76,1.37-2.48,2.22-3.77,3.31l.38,1.26c-3.81,0-7.62.06-11.43,0-4-.08-6.18,2.18-5.72,5.79.54,4.26-2.61,9.94,3.92,12.39.27.1.35.9.37,1.39.14,5.28,4.34,8.12,7.1,11.82a6.89,6.89,0,0,1,.88,1.17c1.93,4.45,3.52,9.08,5.84,13.31,2.06,3.76,5.31,6.88,7.3,10.67,1.26,2.4,1.17,5.51,1.46,7.1-2.07,2.24-3.17,3.62-4.47,4.76a4.57,4.57,0,0,1-2.82,1.38c-4.18-.33-8.66,1.35-12.2-3.2-1.19-1.53-5.36-.62-8.13-1.07-3.6-.59-7.15-1.43-10.72-2.16.06-.42.13-.85.19-1.28-.3.13-.86.25-.86.38,0,8.59-7.1,15.38-6.19,24.32.16,1.54-2,3.27-2.86,5-.73,1.37-1.23,2.86-1.87,4.39H475.07l-14.95-24.37c.68-4-4.65-7.12-7.15-11.72-1.22-2.25-2.23-4.61-3.65-7.57-4-.11-5,4.43-7.82,6.51-4.05,3-2.56,9.32-7.46,11.61a1.56,1.56,0,0,0-.63.73c-1.87,4.15-3.39,8.5-5.67,12.41-1.87,3.19-4.71,5.82-7,8.78a26.56,26.56,0,0,0-2,3.58c-9,.84-11.7-1.18-13.26-9.74-.15-.81-.13-2.16-.55-2.32-4.49-1.72-3.16-5.63-3.38-8.85-.32-4.68-.22-4.69-5.82-12a80.53,80.53,0,0,1-8.62,2.34c-3.44.55-6.47.89-9.89,2.84-4,2.26-9.8,1.24-15.71,1.72,0-5.93-.09-10.67.08-15.4,0-.82,1.14-1.59,1.73-2.4a12.33,12.33,0,0,0,2-2.82c.87-2.39-.23-5.95,4.05-6.16.29,0,.74-1.06.76-1.64.26-5.52,4.44-8.45,7.58-12.19,1.41-1.68,1.43-4.51,2.36-7.79h-7.18q-179.44,0-358.9.09c-5.09,0-9.61-.47-13.08-4.47A4.81,4.81,0,0,1,.11,380c-.14-2-.11-4-.11-6V6.38A55.89,55.89,0,0,1,4.3,1.74,6.53,6.53,0,0,1,7.55.18,51.8,51.8,0,0,1,14,0H458.78c.67,0,1.34,0,2,0,2.43.23,6-.42,7.07.92,2.53,3.15,5.23,6,5.21,11.27-.34,79-.24,158-.22,237.05a58,58,0,0,0,.37,7.46c.12.89,1.11,1.66,1.7,2.48a20,20,0,0,0,2.35-1.83c.4-.42.54-1.64.74-1.63,4.52.25,7.93-2.49,11.82-4,1.4-.53,3.69,1.57,5.67,2.18C498,254.72,500.53,255.17,502.57,255.64Zm-84.6-.88c.58-3.18,1.31-5.34,1.31-7.5q.11-82.09,0-164.18a6.73,6.73,0,0,0-2.31-4.7,114.62,114.62,0,0,0-11.78-7.83c-3-1.77-7.46-7-8.1-10.26-.79-4.07-4.65-7.49-8.55-7.49q-152,0-304,.09a7.29,7.29,0,0,0-5.07,2.37c-3.06,3.82-5.63,8-8.4,12.11-2.27,3.34-5.12,6.17-9.06,7.2-5.82,1.54-8.5,4.59-8.5,10.65V301.81a25.12,25.12,0,0,0,.09,4,3.92,3.92,0,0,0,1.22,2.46c4.43,3,9.23,5.58,13.39,8.94,3,2.39,6.12,5.43,7.4,8.85,2.16,5.78,4.35,8.25,10.55,8.25,92.51,0,185-.08,277.52.24,4.9,0,7.56-2.62,10.46-4.84,1.42-1.09.54-5.16.7-7.88l-1.4.55c-1.39-1.76-2.54-4.69-4.23-5.05-4.2-.88-3.4-3.9-3.72-6.45a50.21,50.21,0,0,1-.28-7.46c.27-10.08,7.28-17,17.39-17.37a36,36,0,0,0,6.4-.68c3-.68,4.42-5.43,2.46-7.8-4-4.87-2.64-8.77-.34-13.74s4.06-7.89,9.54-10.2C405.94,251.38,412.63,249.56,418,254.76ZM410.13,39.88c.87,5.4-1.21,10.76,4.43,14.71,3.64,2.56,5.66,7.11,11.2,7.13,8.66,0,11.44,3.11,11.44,11.87q0,79.6,0,159.21a62.19,62.19,0,0,0,.27,7,2.72,2.72,0,0,0,1.57,2c.71.13,2.25-.63,2.3-1.11.35-3.61,3.12-2.9,5.27-3,2.6-.17,5.23,0,8.11,0V17.93H18.24V369.56H25q172.2,0,344.42,0c3.32,0,6.65-.22,10-.48a23.94,23.94,0,0,0,3.91-.95l.05-2-12.28-1.45-7.68-12.39H67.64c-1.07-2.27-2.62-3.37-4-4.68a4.81,4.81,0,0,1-1.24-2.47c-.77-4.16.38-8.2-4-12.06-4-3.55-6.91-7.62-12.91-7.63s-9.76-3.9-9.76-9.68q0-122,0-244c0-6.3,3.72-9.73,10.18-10.09a19.14,19.14,0,0,0,6.89-1.51c1.61-.75,2.74-2.55,4.07-3.88,1.8-2,4-4,4.84-6.53.94-2.91.64-6.23.9-9.62,1.11-.28,3-.31,3.15-.85,1.86-6.2,6.94-3.74,10.64-3.75q160.23-.18,320.47,0c3.7,0,8.45-1.94,10.36,3.75C407.4,39.65,409,39.64,410.13,39.88ZM492.26,352c8.49,1,16.79-1.6,24.64-6.43-3.76-2.64-7.62-4.57-10.4-7.52-2.48-2.63-6.81-4.07-6.9-8.64-.05-2.63,0-5.26,0-7.88l1.27.58a58.46,58.46,0,0,1,4.83-5.34c2.19-2,5.39-3.13,6.79-5.47,1.12-1.88,1.65-3.63,4.06-3.91-.37-1.12-.5-3-1.17-3.22-1.85-.59-4-.23-5.9-.7-5.18-1.27-11.5,2.63-15.65-3.7-1.31-2-3.66-3.34-5.63-4.85-4.48-3.44.89-4.23,1.6-6.28a9.19,9.19,0,0,0,.34-2.46c.18-2.82.35-5.64.48-8.47.25-5.68-.28-6.2-5.82-4.54-1.56.46-2.76,2.1-5,3.86-3.18.35-2.93.79-7.58,3.43-1.8,1-5.52.32-7.47-1-3.42-2.23-6.71-5.19-5.69-10.24.06-.25-1-.64-1.39-1.1-.82-1-2-2-2.23-3.14-1.51-6.45-1.77-6.68-7.23-5.59-2.57,3.93-5,6.81-6.5,10.11-3.3,7.28-5,8.65-13,7.94a36.17,36.17,0,0,1-8.56-1.75c-1.88-.64-3.41-2.25-5.19-3.27a28.14,28.14,0,0,0-4.82-2.25,10.35,10.35,0,0,0-3.06-.1,18.74,18.74,0,0,0,.84,3c.53,1.13,1.85,2.15,1.87,3.24.17,7.41.09,14.83.09,22.23-4.12.6-8.86-.07-11.33,2-2.87,2.38-5.5,2.41-8.49,2.69-2.11.2-4.23.26-6.55.4-.72,5.4,4.25,6.26,6.31,9.11,2.27,3.14,5.17,5.83,7.41,9,1.29,1.83,1.81,4.19,2.86,6.77l-16.4,17.12c0,4.57,1.16,5.83,7.07,6.12,3.32.16,6.65.19,10,.3,6.25.2,9.63,3.67,9.64,9.94a60.13,60.13,0,0,1-.17,7.48c-.44,3.33,1.5,7.51-3.11,9.6-.27.13.08,2.51.21,2.52,2.6.13,5.32.52,7.8-.08,2.12-.51,3.93-2.25,5.95-3.32.69-.36,2.12-.12,2.29-.54,2.33-5.58,7.25-3.29,11.15-3.65s7.15.92,7.13,5.84c0,.93.29,2.57.74,2.68,3.74.9,3.27,4,3.93,6.63.28,1.13,1.56,2.87,2.34,2.85,2-.06,5.12-.41,5.7-1.63,2.42-5.08,4.07-10.53,5.92-15.62,9.15-3.6,17.2.26,25.06,4.64,1,.8,2,2.06,3.12,3.14.14.13,1.48-.6,1.81-1.18,1.56-2.77-.87-13.92-2.55-17.14-.94-1.81-.21-4.79.47-7C488.71,355.56,490.37,354.31,492.26,352Zm-98.34,48.43c-1.45,2.17-2.74,3.53-3.33,5.14a46.89,46.89,0,0,0-1.41,6.62c1.3-.71,2.55-1.51,3.9-2.1a7.24,7.24,0,0,1,2.81-.67c4.62-.07,9.25,0,13.95,0,.5,1.31.77,3.6,1.51,3.77,4.38,1,3,4.51,3.53,7.16a31.73,31.73,0,0,0,.39,3.44,15.65,15.65,0,0,0,1.75,3,23.89,23.89,0,0,0,2.51-1.81c.45-.41.56-1.2,1-1.6,4.17-3.71,8.1-7.54,8.18-13.69,4.5-1.66,5.29-5.77,2.47-13.25a34.21,34.21,0,0,0-5.36-.46c-1.94.11-5.32.33-5.51,1.12-1.11,4.54-4.68,3.1-7.21,3.22C406.53,400.59,399.92,400.39,393.92,400.39Zm75.85-4.3c-1.29,3.49-1.72,6.51-3.36,8.56s-3,6.17-1.17,7.87c3.69,3.5,7.23,7,7.89,12.49.09.68,1.13,1.51,1.9,1.74a2.25,2.25,0,0,0,2.05-.8c1.7-4,3.62-8,4.67-12.15.83-3.32,2.33-4.89,5.63-4.75,4.48.19,9,.32,13.42.71,3.17.29,4.54-1.93,3.19-3.74-1.92-2.56-3.42-6-7.94-6.14-5.26-.15-11.58,3.12-15.45-3.57-.19-.33-1.26-.21-1.92-.21C475.57,396.08,472.46,396.09,469.77,396.09Z"/><path class="cls-1" d="M240.84,70.73c4.16,0,8.34-.29,12.46.12,1.9.19,3.63,1.83,5.52,2.62a18.74,18.74,0,0,0,4.11,1.09c3.43.58,7.48-.43,9.32,4,.2.48,1.44.6,2.23.75,4.89.91,8.25,3.83,11.32,7.65,1.86,2.32,5.07,3.5,7.24,5.63a50.5,50.5,0,0,1,5.61,7.18c2.65,3.73,5.19,7.55,7.77,11.33.27.4.72.83.71,1.23-.25,9,7,16.45,5.22,25.85-.69,3.71,0,7.65-.32,11.45-.31,3.38.88,7.42-3.47,9.54-.6.29-.39,2.17-.65,3.29-.79,3.36.72,7-3.77,9.74-2.82,1.69-3.43,6.74-5.62,9.87-1.93,2.76-4.66,5-7.1,7.35-1.54,1.5-3.24,2.83-4.79,4.32-2.21,2.14-4.35,4.36-6.52,6.54-.46.46-.85,1.22-1.37,1.33-3.41.66-6.54,3.6-9,4-8.62,1.28-16,7.47-25.32,5.78-3.55-.65-7.32.11-10.95-.2-4-.33-8.62,1.36-11.6-3.37-.58-.92-3.14-.52-4.74-.92-2.77-.68-6.66.73-7.49-3.83,0-.26-.81-.56-1.24-.56-5.89.07-9-3.82-12.37-7.91-1.83-2.25-5-3.4-7.21-5.36A68.27,68.27,0,0,1,183.1,183a16.86,16.86,0,0,1-3-3.67c-2.2-4.72-4.32-9.48-6.13-14.35-.93-2.52.91-6.1-3.27-7.38-.59-.19-.77-2.42-.78-3.7-.09-8.48-.23-17,0-25.43,0-1.76,1.88-3.41,2.53-5.24a35.34,35.34,0,0,0,1.41-6c.48-2.76-.65-6.2,3.53-7.23.47-.12.9-1.35,1-2.1.39-5.33,4.64-7.87,7.8-11.27,2.14-2.29,3.6-5.25,5.83-7.43s6.14-3.14,7.24-5.58c2.43-5.4,9.78-2.07,11.82-7.6.29-.8,2.7-.93,4.17-1.16,3.21-.51,7,.74,8.9-3.49.26-.56,2.15-.52,3.29-.53,4.49-.06,9,0,13.46,0Zm1.33,122.67c4-.81,9.53,1.51,14.7-3.25,2.89-2.66,9.23.32,12.31-5.2,1.34-2.4,5.85-3,7.37-5.35,2.84-4.46,6.8-8.09,10.08-11.91,4.39-5.1,4.5-11.31,6.94-16.64,2.63-5.77.61-13.69.56-20.67,0-.79-.13-2-.61-2.29-3.68-1.87-2.69-5.58-3.77-8.52a29.09,29.09,0,0,0-5.39-9.58c-3.29-3.6-7.91-6-11.1-9.7-4-4.55-7.84-8.44-14.41-8.09a3.59,3.59,0,0,1-2.73-1c-2.42-3.51-6.11-3.18-9.41-2.88-7.2.65-14.7-2.34-21.61,3.36-3,2.51-9,0-12.29,4.94-2,3-5.66,4.94-8.54,7.4-3.5,3-5.93,7.54-9.15,9.93-3.62,2.69-2.68,5.32-3.46,8.13a38.36,38.36,0,0,1-1.87,5.2c-.59,1.35-2,2.56-2,3.86-.22,6.48-.14,13-.08,19.44,0,1.12.11,3,.71,3.25,4.14,1.76,2.91,5.45,3.47,8.54.28,1.5.61,3.26,1.57,4.31,2.07,2.26,6,3.78,6.6,6.25,1.55,5.88,7.28,7.37,10.6,11.23,2.52,2.93,7,7.07,12.78,5.59.88-.23,2.07.68,3.1,1.12,1.94.84,3.8,2.15,5.82,2.46C235.07,193.72,238,193.4,242.17,193.4Z"/><path class="cls-1" d="M338.72,299.54v17H125.27v-17Z"/><path class="cls-1" d="M338.83,264.47v16.64H125.17V264.47Z"/><path class="cls-1" d="M294.19,229.12V246H178.84V229.12Z"/></g></g></svg>