<svg xmlns="http://www.w3.org/2000/svg" width="14.01" height="19.007" viewBox="0 0 14.01 19.007"><defs><style>.a{fill:#777;fill-rule:evenodd;}</style></defs><path class="a" d="M336,643a6.01,6.01,0,0,1,6,6c0,2.509-3.666,7.7-6.006,10.6-2.6-3.211-6-8.232-6-10.6a6.01,6.01,0,0,1,6-6m0-1a7.012,7.012,0,0,0-7,7c0,3.768,6.508,11.576,6.786,11.906a.281.281,0,0,0,.219.1.289.289,0,0,0,.22-.1C336.5,660.575,343,652.768,343,649a7.012,7.012,0,0,0-7-7h0Zm0,4a3.007,3.007,0,1,0,.006,0Zm0,1a2.007,2.007,0,1,0,.006,0Z" transform="translate(-328.994 -641.999)"/></svg>