<svg xmlns="http://www.w3.org/2000/svg" width="19.064" height="19.394" viewBox="0 0 19.064 19.394"><defs><style>.a{fill:none;stroke:#777;stroke-miterlimit:10;fill-rule:evenodd;}</style></defs><path class="a" d="M15.92,18.04s1.516-.885,1.913-1.1a1.123,1.123,0,0,1,1.056-.113c.375.236,3.544,2.382,3.81,2.572a.931.931,0,0,1,.03,1.266c-.366.533-2.05,2.64-2.766,2.617s-3.69-.09-9.3-5.8-5.673-8.74-5.7-9.468S7.016,5.57,7.539,5.2a.9.9,0,0,1,1.244.03c.212.3,2.3,3.514,2.524,3.882a1.164,1.164,0,0,1-.11,1.076q-.529.98-1.077,1.95a18.95,18.95,0,0,0,2.685,3.17A18.667,18.667,0,0,0,15.92,18.04Z" transform="translate(-4.469 -4.391)"/></svg>