<svg xmlns="http://www.w3.org/2000/svg" viewBox="0 0 30 34"><path d="M28,1.5a.5.5,0,0,1,.5.5V32a.5.5,0,0,1-.5.5H5a.5.5,0,0,1-.5-.5V2A.5.5,0,0,1,5,1.5ZM28,0H5A2,2,0,0,0,3,2V32a2,2,0,0,0,2,2H28a2,2,0,0,0,2-2V2A2,2,0,0,0,28,0Z" fill="#fff"/><path d="M1,8.5H6a1,1,0,0,0,0-2H1a1,1,0,0,0,0,2Zm5,5H1a1,1,0,0,0,0,2H6a1,1,0,0,0,0-2Zm0,7H1a1,1,0,0,0,0,2H6a1,1,0,0,0,0-2Zm0,6H1a1,1,0,0,0,0,2H6a1,1,0,0,0,0-2Z" fill="#fff" fill-rule="evenodd"/><path d="M17,17a4.27,4.27,0,0,0,4-4.5A4.27,4.27,0,0,0,17,8a4.27,4.27,0,0,0-4,4.5A4.27,4.27,0,0,0,17,17Zm0-8a3.29,3.29,0,0,1,3,3.5A3.29,3.29,0,0,1,17,16a3.29,3.29,0,0,1-3-3.5A3.29,3.29,0,0,1,17,9Zm0,10c-3.08,0-7,1.36-7,4v4c0,.55.45,1.5,1,1.5H23c.55,0,1-.95,1-1.5V23C24,21,21.15,19,17,19Zm6,8.5H11V23c0-1.77,3.16-3,6-3,3.86,0,6,1.77,6,3Z" fill="#fff"/></svg>