<svg xmlns="http://www.w3.org/2000/svg" xmlns:xlink="http://www.w3.org/1999/xlink" width="136.001" height="136.001" viewBox="0 0 136.001 136.001"><defs><style>.a{fill:#fff;opacity:0.797;}.b{filter:url(#a);}</style><filter id="a" x="0" y="0" width="136.001" height="136.001" filterUnits="userSpaceOnUse"><feOffset input="SourceAlpha"/><feGaussianBlur stdDeviation="12" result="b"/><feFlood flood-opacity="0.161"/><feComposite operator="in" in2="b"/><feComposite in="SourceGraphic"/></filter></defs><g class="b" transform="matrix(1, 0, 0, 1, 0, 0)"><path class="a" d="M32,0A32.009,32.009,0,0,0,19.544,61.486,32.009,32.009,0,0,0,44.457,2.515,31.8,31.8,0,0,0,32,0ZM28.436,41.925A1.777,1.777,0,0,1,27.183,38.9l6.9-6.9-6.9-6.915a1.773,1.773,0,1,1,2.507-2.507l8.16,8.16a1.776,1.776,0,0,1,0,2.507l-8.16,8.16A1.763,1.763,0,0,1,28.436,41.925Z" transform="translate(100 100) rotate(180)"/></g></svg>