<svg xmlns="http://www.w3.org/2000/svg" width="16" height="16" viewBox="0 0 16 16"><g transform="translate(-569.5 -1764.5)"><path d="M768.205,15.5h-9.412a3.3,3.3,0,0,1-3.294-3.295V2.794A3.3,3.3,0,0,1,758.794-.5h2.354V1.382h-2.354a1.413,1.413,0,0,0-1.412,1.412v9.412a1.414,1.414,0,0,0,1.412,1.412h9.412a1.414,1.414,0,0,0,1.412-1.412V9.853H771.5v2.353A3.3,3.3,0,0,1,768.205,15.5Z" transform="translate(-186 1765)" fill="#ccc"/><path d="M756.649,5.475a.941.941,0,0,1-.666-1.607l5.481-5.481q-.055,0-.11,0h-3.015V-3.5h3.015a3.3,3.3,0,0,1,3.295,3.294V3.011h-1.882V-.206c0-.016,0-.031,0-.046L757.314,5.2A.935.935,0,0,1,756.649,5.475Zm5.992-6.933,0,0-5.99,5.99h0Zm.849.264a2.352,2.352,0,0,1,.21.8A2.335,2.335,0,0,0,763.49-1.194Zm-1.914-1.354a2.348,2.348,0,0,1,.714.184A2.335,2.335,0,0,0,761.576-2.548Z" transform="translate(-179.149 1768)" fill="#007780"/></g></svg>