<svg enable-background="new 0 0 169.9 37" viewBox="0 0 169.9 37" xmlns="http://www.w3.org/2000/svg"><g fill="#fff"><path d="m6.7 34 17.7-30.2 21.6 30.2-42.4-17.4 33.6 9.4-12.9-12.7z" opacity=".7"/><path d="m6.7 34 17.7-24.4v-5.8z"/><path d="m24.3 9.6v3.8l12.9 12.6z"/><path d="m3.6 16.6 36.4 12.4 6 4.9"/><path d="m69.4 13.3c1.3-1.4 3.3-1.9 5.1-1.3.8.2 1.5.8 2 1.5.1.2.2.2.3 0 .9-.9 2-1.5 3.3-1.6 1.3-.2 2.6.1 3.7.8 1.1.8 1.7 2.1 1.6 3.5v9.2h-1.4s-.8 0-1.2 0h-.3v-7.9c0-.5-.1-1-.2-1.5-.2-.6-.8-1.1-1.4-1.2-1.4-.4-2.8.3-3.2 1.7-.1.3-.1.7-.1 1v8h-2.1s-.1 0-1 0 0-2.6 0-3.3v-4.5c0-.6-.1-1.1-.3-1.7-.3-.6-.8-1-1.4-1.1-.5-.1-.9-.1-1.4 0-.9.3-1.6 1-1.8 2-.1.2-.1.5-.1.7v7.9h-3.1s0-8.1 0-11.9c0-.4.2-.7.4-1 .3-.3.6-.4 1-.4h1.4c.2 0 .2.1.2.2z"/><path d="m166.4 19v5.9s-.1.3-.3.3c-.4 0-.9 0-1.3 0-.6 0-1.2-.5-1.3-1.1-.1-.2-.1-.3-.3-.1-1 1.1-2.5 1.5-4 1.3-.9-.1-1.8-.4-2.5-1-.9-.8-1.3-1.9-1.3-3-.1-2.2 0-4.4 0-6.6 0-.6 0-2.8 0-2.8h3v7.8c0 .4 0 .9.1 1.3.1.8.7 1.4 1.5 1.5.6.1 1.2.1 1.8-.1.9-.3 1.5-1.1 1.6-2 0-.6 0-1.3 0-1.9 0-1.7 0-6.6 0-6.6h1.2.1.5 1.2v7.2z"/><path d="m99.8 19v5.9c0 .3-.1.3-.3.3-.4 0-.9 0-1.3 0-.6 0-1.2-.5-1.4-1.1-.1-.2-.1-.3-.3-.1-1 1.1-2.5 1.6-4 1.3-.9-.1-1.8-.4-2.6-1-.8-.8-1.3-1.9-1.3-3-.1-2.2 0-9.5 0-9.5s0 .6 0 0h3v7.8c0 .5 0 .9.1 1.4.2.7.7 1.3 1.5 1.4.6.2 1.3.1 1.9-.1.8-.3 1.4-1.1 1.4-2 0-.6 0-1.3 0-1.9 0-1.8 0-6.6 0-6.6h1.2.1 1.8v7.2z"/><path d="m126.5 25c.7-1.2 1.7-2.8 2.4-4 0-.1.1-.2.2-.2.7 1.2 1.5 2.4 2.2 3.5.2.5.7.8 1.2.9 1 .1 2 0 3.1 0l-.2-.3c-1.5-2.1-3-4.1-4.4-6.2-.1-.1-.1-.4 0-.5 1.4-2 2.8-4 4.2-6 .1-.1.2-.2.2-.3l-3.6.1c-.6 1.1-1.8 2.8-2.4 3.9l-.2.3c-.6-1.1-1.3-2.1-1.9-3.1-.3-.7-1-1.2-1.8-1.2s-1.7 0-2.6 0c.1.1.2.2.2.3 1.4 2 2.8 4 4.2 5.9.1.1.1.4 0 .5l-4.4 6.2c-.1.1-.2.2-.2.3z"/><path d="m106.3 3v10.7 7.5c0 1 .4 1.3 1.3 1.3.7-.1 1.3.3 1.6.8.3.7 0 1.5-.7 1.7-.1.1-.2.1-.4.1-.8.1-1.7 0-2.5-.1-1.3-.2-2.3-1.3-2.4-2.6 0-.3 0-.6 0-.9v-14.2z"/><path d="m147.9 13.5c.1 0 .1-.1.2-.1 1-1.3 2.4-1.5 3.8-1.5.9 0 1.7.1 2.5.4l-2.5 2.4c-.7-.2-1.4-.2-2.1 0-1 .2-1.7 1.1-1.8 2.1-.1.8 0 1.5 0 2.3v4.8c-.1.7-.6 1.2-1.3 1.3-.4 0-.9 0-1.3 0-.3 0-.4 0-.4-.4 0-3.8 0-7.6 0-11.4-.1-.7.4-1.4 1.1-1.5.4-.1.9-.1 1.3-.1.6 0 .6 0 .6.6z"/><path d="m141.4 23.3v.7c-.1.6-.7 1.1-1.3 1.2-.3 0-.7 0-1 0-.8-.1-1.3-.7-1.3-1.5v-.9c0-.8.6-1.5 1.4-1.5h.6c.8 0 1.5.6 1.6 1.4z"/><path d="m63.3 15.9c0-1.8-1.1-3.3-2.9-3.8-.8-.2-1.6-.3-2.5-.3-1.4 0-2.7.3-4 .9-.5.2-1.6.9-1.6.9l2.4 1.6h.1c1.1-.6 2.4-.9 3.6-.6 1 0 1.7.8 1.7 1.8v.2.5c0 .2-.1.3-.3.3-1.2 0-2.4 0-3.7 0-2.1-.1-4 1.6-4.1 3.8v.6c0 1.3.8 2.5 2 3.1.8.4 1.7.6 2.6.6 1.3.1 2.7-.4 3.6-1.4v1s0 .3.3.3h1.4c.8 0 1.4-.7 1.4-1.5 0-.2 0-.4 0-.6 0-2.4 0-4.9 0-7.4zm-3.1 4.7c.1.9-.5 1.8-1.4 2-1.1.4-2.3.4-3.4-.1-.6-.2-.9-.7-.9-1.3s.4-1.1 1-1.2c.4-.1.9-.2 1.4-.2h3.1c.2 0 .2 0 .2.2s0 .4 0 .6z"/><path d="m119.8 19.5c.8 0 1.4-.7 1.4-1.4 0-.5-.1-.9-.1-1.3-.2-2.7-2.4-4.8-5.1-4.9-2.5-.4-4.9 1.1-5.8 3.5-.9 2.2-.9 4.7 0 7 .6 1.5 1.9 2.7 3.5 3 1.2.3 2.5.3 3.7 0 1-.2 2-.7 2.8-1.3.6-.5.7-1.4.2-2-.5-.5-1.3-.6-1.8-.2-.2.2-.4.3-.7.4-.9.6-2.1.7-3.2.5-1.2-.4-2-1.6-1.9-2.9 0-.2.2-.1.2-.1h3.4c1.2-.3 2.3-.3 3.4-.3zm-4.3-2.2h-2.5c-.1 0-.2 0-.2-.2.1-1.2.8-2.2 2-2.5 1.5-.4 3 .4 3.4 1.9.1.2.1.4.1.6s0 .2-.2.2z"/></g></svg>