<svg xmlns="http://www.w3.org/2000/svg" xmlns:xlink="http://www.w3.org/1999/xlink" width="88" height="98" viewBox="0 0 88 98"><defs><clipPath id="b"><rect width="88" height="98"/></clipPath></defs><g id="a" clip-path="url(#b)"><path d="M1284.85,847.541l1.55-2.7a9.213,9.213,0,0,0,1.18-5.419,2.5,2.5,0,0,0,.03-.39V824.743a43.5,43.5,0,1,0-86.99,0v15.335a9.221,9.221,0,0,0,1.22,4.759l1.5,2.611a7.157,7.157,0,0,0-3.09,4.231,7.256,7.256,0,0,0,.72,5.488l2.01,3.513a7.146,7.146,0,0,0,9.54,2.792l.36.635a9.047,9.047,0,0,0,5.52,4.27,9.15,9.15,0,0,0,2.37.316,8.958,8.958,0,0,0,4.53-1.232l2.63-1.531a9.2,9.2,0,0,0,3.33-12.518l-11.04-19.27a9.024,9.024,0,0,0-5.52-4.27,9.2,9.2,0,0,0-1.92-.3v-4.738a31.721,31.721,0,0,1,22.47-30.3,1.913,1.913,0,1,0-1.07-3.673,35.4,35.4,0,0,0-25.2,33.975v5.046a1.7,1.7,0,0,0,.03.321,8.663,8.663,0,0,0-1.21.589l-2.63,1.531q-.39.227-.75.486v-8.062a39.7,39.7,0,1,1,79.4,0v8.062a8.913,8.913,0,0,0-.75-.486l-2.63-1.531a9.893,9.893,0,0,0-1.21-.589,1.686,1.686,0,0,0,.03-.321v-5.046a35.387,35.387,0,0,0-25.66-34.1,1.9,1.9,0,0,0-2.34,1.328,1.92,1.92,0,0,0,1.32,2.359,31.645,31.645,0,0,1,22.88,30.418v4.738a9.292,9.292,0,0,0-1.93.3,9.076,9.076,0,0,0-5.52,4.27l-11.04,19.27a9.227,9.227,0,0,0-.91,6.954,9.118,9.118,0,0,0,4.24,5.564l2.63,1.531a8.985,8.985,0,0,0,4.53,1.232,9.091,9.091,0,0,0,7.89-4.586l.33-.562a7.057,7.057,0,0,0,3.01.727v4.3a6.588,6.588,0,0,1-6.56,6.6h-21.1v-5.359a6.84,6.84,0,0,0-13.68,0v7.273a1.907,1.907,0,0,0,1.9,1.914h32.88a10.409,10.409,0,0,0,10.36-10.432v-5.313a7.25,7.25,0,0,0,2.54-2.6l2.01-3.513a7.274,7.274,0,0,0-2.19-9.6Zm-77.78-11.907,2.63-1.531a5.271,5.271,0,0,1,7.23,1.953l11.04,19.27a5.364,5.364,0,0,1-1.94,7.289l-2.63,1.531a5.275,5.275,0,0,1-7.23-1.953l-11.04-19.27a5.364,5.364,0,0,1,1.94-7.289Zm-1.83,15.135,5.37,9.383a3.316,3.316,0,0,1-2.29.2,3.36,3.36,0,0,1-2.05-1.587l-2.01-3.512a3.426,3.426,0,0,1-.34-2.583,3.381,3.381,0,0,1,1.32-1.9Zm41.99,24.4h-6.08V869.81a3.04,3.04,0,1,1,6.08,0Zm24.84-12.979a5.287,5.287,0,0,1-7.24,1.953l-2.63-1.531a5.364,5.364,0,0,1-1.94-7.289l11.04-19.27a5.281,5.281,0,0,1,7.24-1.953l2.63,1.531a5.364,5.364,0,0,1,1.94,7.289Zm11.68-6.963-2.01,3.513a3.362,3.362,0,0,1-2.05,1.586,3.327,3.327,0,0,1-2.1-.119l5.35-9.335a3.439,3.439,0,0,1,.81,4.358Zm-39.63-65.808a1.868,1.868,0,0,0-.27.019,1.914,1.914,0,0,0,.25,3.811h.02a1.866,1.866,0,0,0,.19-.01,1.914,1.914,0,0,0-.19-3.817Zm-9.49,51.009h-.14a1.914,1.914,0,0,0,0,3.828h.14a1.914,1.914,0,0,0,0-3.825Zm9.56,0h-.15a1.914,1.914,0,0,0,0,3.828h.15a1.914,1.914,0,0,0,0-3.825Zm9.56,0h-.15a1.914,1.914,0,0,0,0,3.828h.15a1.914,1.914,0,0,0,0-3.825Z" transform="translate(-1200.001 -781.002)" fill="#fff" fill-rule="evenodd"/></g></svg>