<svg xmlns="http://www.w3.org/2000/svg" xmlns:xlink="http://www.w3.org/1999/xlink" width="18" height="14" viewBox="0 0 18 14"><defs><clipPath id="b"><rect width="18" height="14"/></clipPath></defs><g id="a" clip-path="url(#b)"><path d="M20.79,94H37.211a1.037,1.037,0,0,1,0,2.014H20.79a1.037,1.037,0,0,1,0-2.014Zm5.017,6.009H37.2a1.013,1.013,0,0,1,0,1.982H25.806a1.013,1.013,0,0,1,0-1.983Zm5.546,5.977h5.861a1.038,1.038,0,0,1,0,2.014H31.353a1.038,1.038,0,0,1,0-2.015Zm-8.909,0h3.145a1.038,1.038,0,0,1,0,2.014H22.443a1.038,1.038,0,0,1,0-2.015Z" transform="translate(-20.001 -94)" fill="#fff" fill-rule="evenodd"/></g></svg>