<svg xmlns="http://www.w3.org/2000/svg" width="64" height="64" viewBox="0 0 64 64"><g transform="translate(20 55) rotate(-90)"><g transform="translate(-9 -20)"><path d="M0,0H64V64H0Z" fill="none"/></g><g transform="translate(0.247 0.415)"><path d="M14.237,6.688h0a.921.921,0,0,0-1.3,0L8.688,10.933a.921.921,0,0,0,0,1.3l4.245,4.245a.921.921,0,0,0,1.3,0h0a.921.921,0,0,0,0-1.3l-3.588-3.6,3.588-3.588a.929.929,0,0,0,0-1.3Z" fill="#2eab6e"/></g><path d="M7,2A5.006,5.006,0,0,0,2,7v7a5,5,0,0,0,10,0V7A5.006,5.006,0,0,0,7,2M7,0a7,7,0,0,1,7,7v7A7,7,0,0,1,0,14V7A7,7,0,0,1,7,0Z" transform="translate(38 5) rotate(90)" fill="#909090"/><rect width="2" height="6" rx="1" transform="translate(33 11) rotate(90)" fill="#2eab6e"/></g></svg>