<svg xmlns="http://www.w3.org/2000/svg" width="32" height="32" viewBox="0 0 32 32"><g transform="translate(2588 -8862)"><rect width="32" height="32" transform="translate(-2588 8862)" fill="none"/><g transform="translate(-2586.475 8864.82)"><path d="M8.25,10.414a5.164,5.164,0,1,1,5.164,5.164A5.164,5.164,0,0,1,8.25,10.414Zm5.164-3.1a3.1,3.1,0,1,0,3.1,3.1A3.1,3.1,0,0,0,13.414,7.315Z" transform="translate(1.062 1.131)" fill-rule="evenodd"/><path d="M5.465,10.343A8.817,8.817,0,0,1,14.252,2.25H14.7a8.817,8.817,0,0,1,8.787,8.093,9.494,9.494,0,0,1-2.112,6.789l-4.95,6.054a2.517,2.517,0,0,1-3.9,0l-4.95-6.054A9.494,9.494,0,0,1,5.465,10.343Zm8.787-6.027a6.751,6.751,0,0,0-6.729,6.2,7.428,7.428,0,0,0,1.653,5.312l4.95,6.054a.451.451,0,0,0,.7,0l4.95-6.054a7.429,7.429,0,0,0,1.653-5.312,6.752,6.752,0,0,0-6.729-6.2Z" fill-rule="evenodd"/></g></g></svg>