<?xml version="1.0" encoding="utf-8"?>
<!-- Generator: Adobe Illustrator 26.0.0, SVG Export Plug-In . SVG Version: 6.00 Build 0)  -->
<svg version="1.1" id="Layer_1" xmlns="http://www.w3.org/2000/svg" xmlns:xlink="http://www.w3.org/1999/xlink" x="0px" y="0px"
	 viewBox="0 0 169.9 37" style="enable-background:new 0 0 169.9 37;" xml:space="preserve">
<style type="text/css">
	.st0{fill:#018D80;}
	.st1{fill:#2EAD6F;}
	.st2{fill:#343434;}
</style>
<g id="logo_Amulex_white">
	<g id="amulex_simple_ru">
		<g id="Group_4">
			<path id="Path_39" class="st0" d="M8.2,33.9L25.9,3.7l21.6,30.2L5.1,16.5L38.8,26L25.9,13.2L8.2,33.9z"/>
			<path id="Path_40" class="st1" d="M8.2,33.9L25.9,9.5V3.7L8.2,33.9z"/>
			<path id="Path_41" class="st1" d="M25.9,9.5v3.8L38.8,26L25.9,9.5z"/>
			<path id="Path_42" class="st1" d="M5.1,16.5L41.5,29l6,4.9"/>
		</g>
	</g>
	<g id="Group_1307">
		<g id="Group_1304">
			<path id="Path_3199" class="st2" d="M70.9,13.3c1.3-1.4,3.3-1.9,5.1-1.3c0.8,0.2,1.5,0.8,2,1.5c0.1,0.2,0.2,0.2,0.3,0
				c0.9-0.9,2-1.5,3.3-1.7c1.3-0.2,2.6,0.1,3.7,0.8c1.1,0.8,1.7,2.1,1.6,3.5c0,2.6,0,9.2,0,9.2h-1.4c0,0-0.8,0-1.2,0H84v-7.9
				c0-0.5-0.1-1-0.2-1.5c-0.2-0.6-0.8-1.1-1.4-1.2c-1.4-0.4-2.8,0.3-3.2,1.7c-0.1,0.3-0.1,0.7-0.1,1v8h-3c0,0,0-2.6,0-3.3v-4.5
				c0-0.6-0.1-1.1-0.3-1.7c-0.3-0.6-0.8-1-1.4-1.2c-0.5-0.1-0.9-0.1-1.4,0c-0.9,0.3-1.6,1-1.8,2C71,16.9,71,17.2,71,17.4
				c0,2.1,0,7.9,0,7.9h-3.1c0,0,0-8.1,0-11.9c0-0.4,0.2-0.7,0.4-1c0.3-0.3,0.6-0.4,1-0.4c0.5,0,1,0,1.4,0c0.2,0,0.2,0,0.2,0.2
				C70.9,12.5,70.9,12.9,70.9,13.3z"/>
			<path id="Path_3200" class="st2" d="M167.9,19v5.9c0,0-0.1,0.3-0.3,0.3c-0.4,0-0.9,0-1.3,0c-0.6,0-1.2-0.5-1.3-1.1
				c-0.1-0.2-0.1-0.3-0.3-0.1c-1,1.1-2.5,1.5-4,1.3c-0.9-0.1-1.8-0.4-2.5-1c-0.9-0.8-1.3-1.9-1.3-3c-0.1-2.2,0-4.4,0-6.6
				c0-0.6,0-2.8,0-2.8h3v7.8c0,0.4,0,0.8,0.1,1.2c0.1,0.8,0.8,1.4,1.5,1.5c0.6,0.1,1.2,0.1,1.8-0.1c0.9-0.3,1.5-1.1,1.6-2.1
				c0-0.6,0-1.3,0-1.9c0-1.7,0-6.6,0-6.6c0.4,0,0.8,0,1.2,0c0,0,0.1,0,0.1,0h0.5c0.7,0,1.2,0,1.2,0l0,0V19z"/>
			<path id="Path_3201" class="st2" d="M101.4,19c0,2,0,4,0,5.9c0,0.3-0.1,0.3-0.3,0.3c-0.4,0-0.9,0-1.3,0c-0.6,0-1.2-0.5-1.3-1.1
				c-0.1-0.2-0.1-0.3-0.3-0.1c-1,1.1-2.5,1.6-4,1.3c-0.9,0-1.8-0.4-2.6-1c-0.8-0.8-1.3-1.9-1.3-3c-0.1-2.2,0-9.5,0-9.5h3v7.8
				c0,0.5,0,0.9,0.1,1.4c0.2,0.7,0.7,1.3,1.5,1.4c0.6,0.2,1.3,0.1,1.9-0.1c0.8-0.3,1.4-1.1,1.4-2c0-0.6,0-1.3,0-1.9
				c0-1.8,0-6.6,0-6.6h3.1L101.4,19L101.4,19z"/>
			<path id="Path_3202" class="st2" d="M128,25c0.7-1.2,1.8-2.8,2.4-4c0-0.1,0.1-0.2,0.2-0.2c0.7,1.2,1.5,2.4,2.2,3.6
				c0.2,0.5,0.7,0.8,1.2,0.8c1,0.1,2,0,3.1,0l-0.2-0.3c-1.5-2.1-3-4.1-4.4-6.2c-0.1-0.1-0.1-0.3,0-0.5c0,0,0,0,0,0
				c1.4-2,2.8-4,4.2-6c0.1-0.1,0.2-0.2,0.2-0.3l-3.6,0.2c-0.6,1.1-1.8,2.8-2.4,3.9c-0.1,0.1-0.1,0.2-0.2,0.3
				c-0.7-1.1-1.3-2.1-1.9-3.1c-0.3-0.7-1-1.2-1.8-1.2c-0.8,0-1.7,0-2.6,0l0.2,0.3c1.4,2,2.8,4,4.2,5.9c0.1,0.1,0.1,0.4,0,0.5
				c0,0,0,0,0,0l-4.4,6.2c-0.1,0.1-0.1,0.2-0.2,0.3L128,25z"/>
			<path id="Path_3203" class="st2" d="M107.8,3c0,2.6,0,8.1,0,10.7l0,0v7.5c0,1,0.4,1.3,1.3,1.3c0.7-0.1,1.3,0.3,1.6,0.8
				c0.3,0.7,0,1.5-0.7,1.7c0,0,0,0,0,0c-0.1,0-0.2,0.1-0.4,0.1c-0.8,0.1-1.6,0-2.4-0.1c-1.3-0.2-2.3-1.3-2.4-2.6c0-0.3,0-0.6,0-0.9
				V7.3L107.8,3z"/>
			<path id="Path_3204" class="st2" d="M149.5,13.4c0.1,0,0.1-0.1,0.2-0.1c1-1.3,2.4-1.5,3.8-1.5c0.9,0,1.7,0.1,2.5,0.4l-2.5,2.4
				c-0.7-0.2-1.4-0.2-2.1,0c-1,0.2-1.7,1.1-1.8,2.1c-0.1,0.8,0,1.6,0,2.3c0,1.6,0,3.2,0,4.8c-0.1,0.7-0.6,1.2-1.3,1.3
				c-0.5,0-0.9,0-1.3,0c-0.3,0-0.4,0-0.4-0.4c0-3.8,0-7.6,0-11.4c-0.1-0.7,0.4-1.3,1.1-1.5c0.4-0.1,0.9-0.1,1.3-0.1
				c0.6,0,0.6,0,0.6,0.6L149.5,13.4z"/>
			<path id="Path_3205" class="st2" d="M142.9,23.3c0,0.2,0,0.5,0,0.7c-0.1,0.7-0.6,1.2-1.3,1.2c-0.3,0-0.7,0-1,0
				c-0.8-0.1-1.4-0.7-1.4-1.5v-0.9c0-0.8,0.6-1.5,1.4-1.5c0,0,0,0,0,0h0.7c0.8,0,1.5,0.6,1.5,1.4c0,0,0,0,0,0L142.9,23.3L142.9,23.3
				z"/>
			<path id="Path_3206" class="st2" d="M64.8,15.9c0-1.8-1.1-3.3-2.9-3.8c-0.8-0.2-1.6-0.4-2.5-0.3c-1.4,0-2.7,0.3-4,0.9
				c-0.5,0.2-1.6,0.9-1.6,0.9l2.4,1.6l0.1-0.1c1.1-0.6,2.4-0.8,3.6-0.6c1,0,1.7,0.8,1.7,1.8c0,0.1,0,0.1,0,0.2V17
				c0,0.2-0.1,0.3-0.3,0.3c-1.2,0-2.4,0-3.7,0c-2.2-0.1-4.1,1.6-4.2,3.8c0,0.2,0,0.4,0,0.5c0,1.3,0.8,2.5,1.9,3.1
				c0.8,0.4,1.7,0.6,2.6,0.6c1.3,0.1,2.7-0.4,3.6-1.4c0,0.4,0,0.7,0,1s0,0.3,0.3,0.3h1.4c0.8,0,1.4-0.6,1.4-1.4c0-0.2,0-0.4,0-0.6
				C64.8,20.8,64.9,18.3,64.8,15.9z M61.8,20.5c0.1,0.9-0.5,1.8-1.4,2C59.3,23,58,22.9,57,22.4c-0.6-0.2-0.9-0.7-0.9-1.3
				c0-0.6,0.4-1.1,1-1.2c0.4-0.1,0.9-0.2,1.4-0.2h3.1c0.2,0,0.2,0,0.2,0.2S61.8,20.3,61.8,20.5z"/>
			<path id="Path_3207" class="st2" d="M121.4,19.4c0.8,0,1.4-0.7,1.4-1.4c0-0.4,0-0.9-0.1-1.3c-0.2-2.7-2.4-4.8-5.1-4.9
				c-2.5-0.4-4.9,1.1-5.8,3.4c-0.9,2.2-0.9,4.8,0,7c0.6,1.5,1.9,2.7,3.5,3c1.2,0.3,2.5,0.3,3.7,0c1-0.2,2-0.7,2.8-1.3
				c0.6-0.5,0.7-1.4,0.2-2c-0.5-0.5-1.2-0.6-1.8-0.2c-0.2,0.1-0.4,0.3-0.7,0.4c-0.9,0.6-2.1,0.7-3.2,0.5c-1.2-0.5-2-1.6-1.9-2.9
				c0-0.2,0.2-0.1,0.3-0.1h3.4C119.1,19.4,120.2,19.4,121.4,19.4z M117.1,17.3h-2.5c-0.1,0-0.2,0.1-0.2-0.2c0.1-1.2,0.8-2.1,1.9-2.5
				c1.5-0.4,3,0.4,3.4,1.9c0,0,0,0,0,0c0.1,0.2,0.1,0.4,0.1,0.6c0,0.2,0,0.2-0.2,0.2L117.1,17.3z"/>
		</g>
	</g>
</g>
</svg>
