<svg xmlns="http://www.w3.org/2000/svg" width="32" height="32" viewBox="0 0 32 32"><g transform="translate(2660 -8862)"><rect width="32" height="32" transform="translate(-2660 8862)" fill="none"/><path d="M3793.254-5559.534a.511.511,0,0,1-.127-.491l1.559-5.655a12.54,12.54,0,0,1,.01-12.574,12.54,12.54,0,0,1,10.912-6.246,12.575,12.575,0,0,1,12.607,12.555,12.6,12.6,0,0,1-12.607,12.549h-.006a12.671,12.671,0,0,1-6.026-1.528l-5.833,1.525a.511.511,0,0,1-.127.016A.51.51,0,0,1,3793.254-5559.534Zm7.229-3.061a10.766,10.766,0,0,0,5.122,1.3h0a10.7,10.7,0,0,0,10.708-10.65,10.544,10.544,0,0,0-3.132-7.53,10.692,10.692,0,0,0-14.035-.937,10.693,10.693,0,0,0-2.823,13.78,1.9,1.9,0,0,1,.187,1.458l-.917,3.328,3.5-.916a1.92,1.92,0,0,1,.481-.062A1.9,1.9,0,0,1,3800.484-5562.6Zm5.4-3.983a13.184,13.184,0,0,1-5.508-4.809c-.031-.049-.055-.082-.067-.1l-.007-.01a6.3,6.3,0,0,1-1.332-3.349,3.586,3.586,0,0,1,1.084-2.649l.058-.064a1.207,1.207,0,0,1,.866-.4c.225,0,.443,0,.631.006.231.006.488.019.734.562.161.361.432,1.025.657,1.566.173.421.315.769.351.839a.6.6,0,0,1,.025.567l-.035.074a1.862,1.862,0,0,1-.29.469c-.06.068-.122.142-.182.216-.108.13-.215.261-.307.352-.163.162-.332.336-.143.661a9.726,9.726,0,0,0,1.819,2.252,8.421,8.421,0,0,0,2.41,1.519c.086.038.161.069.214.1.325.161.52.137.708-.082s.815-.948,1.033-1.271.433-.275.733-.163,1.906.9,2.23,1.06l.18.086a1.037,1.037,0,0,1,.445.292,2.725,2.725,0,0,1-.187,1.547,3.306,3.306,0,0,1-2.205,1.543l-.174.02a3.93,3.93,0,0,1-.5.037A9.313,9.313,0,0,1,3805.886-5566.578Z" transform="translate(-6449.608 14449.941)" fill="#333"/></g></svg>