<svg xmlns="http://www.w3.org/2000/svg" width="32" height="32" viewBox="0 0 32 32"><g transform="translate(2588 -8862)"><rect width="32" height="32" transform="translate(-2588 8862)" fill="none"/><g transform="translate(-2586.004 8864.064)"><path d="M7.75,8.6A5.349,5.349,0,1,1,13.1,13.948,5.349,5.349,0,0,1,7.75,8.6ZM13.1,5.138A3.461,3.461,0,1,0,16.56,8.6,3.461,3.461,0,0,0,13.1,5.138Z" transform="translate(0.905)" fill-rule="evenodd"/><path d="M8.97,15.138A2.832,2.832,0,0,0,6.138,17.97v1.5a.046.046,0,0,0,.039.046,48.574,48.574,0,0,0,15.655,0,.046.046,0,0,0,.039-.046v-1.5a2.832,2.832,0,0,0-2.832-2.832H18.61a.318.318,0,0,0-.1.015l-1.089.356a11.014,11.014,0,0,1-6.837,0L9.5,15.153a.318.318,0,0,0-.1-.015ZM4.25,17.97a4.72,4.72,0,0,1,4.72-4.72H9.4a2.205,2.205,0,0,1,.684.109l1.089.356a9.126,9.126,0,0,0,5.665,0l1.089-.356a2.205,2.205,0,0,1,.684-.109h.429a4.72,4.72,0,0,1,4.72,4.72v1.5a1.934,1.934,0,0,1-1.623,1.909,50.464,50.464,0,0,1-16.263,0A1.934,1.934,0,0,1,4.25,19.465Z" transform="translate(0 2.586)" fill-rule="evenodd"/></g></g></svg>