<svg xmlns="http://www.w3.org/2000/svg" width="32" height="32" viewBox="0 0 32 32"><g transform="translate(2624 -8862)"><rect width="32" height="32" transform="translate(-2624 8862)" fill="none"/><path d="M3815.951-5556.583c-.855,0-2.252-.164-5.491-1.439a21.006,21.006,0,0,1-9.171-7.975l-.012-.018c-.037-.057-.056-.084-.06-.09l-.015-.021a10.932,10.932,0,0,1-2.3-5.809l0-.066a6.692,6.692,0,0,1,1.993-4.9l.068-.075a2.917,2.917,0,0,1,2.084-.973h.03c.368,0,.716,0,1.029.01a2.107,2.107,0,0,1,2.041,1.476c.209.468.52,1.222.821,1.951l.23.556.1.24c.17.412.36.875.419,1.005a1.937,1.937,0,0,1,.055,1.792l-.046.1a3.94,3.94,0,0,1-.606.974l-.01.011c-.083.1-.174.2-.27.32l-.047.057c-.16.193-.325.392-.487.555a14.392,14.392,0,0,0,2.6,3.177,12.278,12.278,0,0,0,3.521,2.218l.068.029c.127.055.237.1.338.154l0,0c1.01-1.178,1.354-1.638,1.469-1.809a1.7,1.7,0,0,1,1.438-.832,2.542,2.542,0,0,1,.9.2c.579.218,3.34,1.576,3.617,1.714l.227.109a2.638,2.638,0,0,1,1.068.723l.191.214.049.282a5.294,5.294,0,0,1-.364,3.014l-.026.061-.034.056a6.241,6.241,0,0,1-4.153,2.907l-.047.009-.047,0-.206.022-.048.006A7.087,7.087,0,0,1,3815.951-5556.583Zm-13-10.526a19.009,19.009,0,0,0,8.242,7.226c2.96,1.166,4.134,1.3,4.759,1.3a5.18,5.18,0,0,0,.671-.051l.059-.007.189-.021a4.234,4.234,0,0,0,2.742-1.909,3.3,3.3,0,0,0,.243-1.471.6.6,0,0,0-.075-.03l-.061-.021-.356-.171c-.644-.322-3.039-1.486-3.432-1.634l-.049-.018c-.281.4-.818,1.053-1.634,2a1.689,1.689,0,0,1-1.313.642,2.239,2.239,0,0,1-1.009-.269l-.018-.009c-.037-.02-.131-.059-.213-.095l-.051-.022a14.273,14.273,0,0,1-4.091-2.58l-.008-.007a16.37,16.37,0,0,1-3.063-3.793,1.676,1.676,0,0,1-.169-1.474,2.16,2.16,0,0,1,.553-.786l0,0c.1-.1.237-.265.373-.429l.042-.051c.1-.128.206-.248.3-.356a1.94,1.94,0,0,0,.3-.484l.016-.036.046-.1,0-.007-.017-.035c-.06-.12-.175-.4-.487-1.155l-.1-.237-.23-.557c-.3-.716-.6-1.456-.8-1.894a1.26,1.26,0,0,0-.17-.293c-.032,0-.076,0-.1,0h-.006c-.276-.009-.6-.009-.948-.009a.91.91,0,0,0-.639.3l-.006.006-.136.148a4.686,4.686,0,0,0-1.413,3.418,8.938,8.938,0,0,0,1.892,4.729l.031.042C3802.854-5567.256,3802.9-5567.19,3802.951-5567.109Z" transform="translate(-6418.378 14445.268)" fill="#333"/></g></svg>