<svg xmlns="http://www.w3.org/2000/svg" xmlns:xlink="http://www.w3.org/1999/xlink" width="120" height="163" viewBox="0 0 120 163"><defs><clipPath id="b"><rect width="120" height="163"/></clipPath></defs><g id="a" clip-path="url(#b)"><g transform="translate(0.136 0.016)"><path d="M80,160.63c0,.02.008.04.01.06,0,0-.006,0-.01.01v1.33H21v-1.34h-.01a.417.417,0,0,1,.01-.06v-.6h.1a29.968,29.968,0,0,1,29.4-25.74c16.344,0,27.27,11.53,29.4,25.74H80ZM50.5,136.3c-13.76,0-25.19,10.29-27.387,23.73H77.887C75.69,146.59,64.26,136.3,50.5,136.3Zm0-8.06c-7.126,0-12.9-6.09-12.9-13.61s5.778-13.6,12.9-13.6,12.9,6.09,12.9,13.6S57.627,128.24,50.5,128.24Zm0-25.19c-6.02,0-10.92,5.19-10.92,11.58s4.9,11.59,10.92,11.59,10.92-5.2,10.92-11.59S56.52,103.05,50.5,103.05ZM92.2,72.03a2.764,2.764,0,0,1-1.96-.712,2.48,2.48,0,0,1-.772-1.89,2.44,2.44,0,0,1,.778-1.883,2.8,2.8,0,0,1,1.954-.694,2.87,2.87,0,0,1,2.007.7,2.44,2.44,0,0,1,.778,1.883,2.48,2.48,0,0,1-.772,1.89,2.836,2.836,0,0,1-2.013.712Zm0-3.964a1.568,1.568,0,0,0-1.11.367,1.27,1.27,0,0,0-.384,1,1.3,1.3,0,0,0,.39,1.01,1.533,1.533,0,0,0,1.1.378,1.615,1.615,0,0,0,1.157-.374,1.306,1.306,0,0,0,.39-1.012,1.268,1.268,0,0,0-.384-.994,1.65,1.65,0,0,0-1.16-.375Zm1.347-1.71h-2.93a.617.617,0,0,1-.618-.55,6.93,6.93,0,0,1,.15-2.513,6.242,6.242,0,0,1,.806-1.808,6.47,6.47,0,0,1,1.168-1.316q.586-.5,1.1-.96a4.869,4.869,0,0,0,.763-.865,1.5,1.5,0,0,0,.24-.867,1.442,1.442,0,0,0-.35-1.04,2.63,2.63,0,0,0-2.163-.27,5.834,5.834,0,0,0-.858.234,7.42,7.42,0,0,0-.84.357,6.434,6.434,0,0,0-.71.414.628.628,0,0,1-.9-.22l-1.32-2.487a.6.6,0,0,1,.2-.782,10.3,10.3,0,0,1,2.46-1.188,10.6,10.6,0,0,1,3.358-.474,6.47,6.47,0,0,1,4.286,1.326A4.533,4.533,0,0,1,99,56.984a6.422,6.422,0,0,1-.4,2.417,5.936,5.936,0,0,1-.988,1.645,7.824,7.824,0,0,1-1.26,1.167,9.315,9.315,0,0,0-1.092.937,4.563,4.563,0,0,0-.792,1.088,3.253,3.253,0,0,0-.3,1.51.614.614,0,0,1-.622.607ZM91.195,65.14h1.762a3.955,3.955,0,0,1,.41-1.46,5.738,5.738,0,0,1,1-1.376,10.678,10.678,0,0,1,1.235-1.06,6.573,6.573,0,0,0,1.062-.983,4.714,4.714,0,0,0,.782-1.31,5.25,5.25,0,0,0,.312-1.963,3.333,3.333,0,0,0-1.184-2.714,5.272,5.272,0,0,0-3.48-1.033,9.394,9.394,0,0,0-2.955.406,9.6,9.6,0,0,0-1.7.756l.75,1.412q.125-.069.253-.133a8.465,8.465,0,0,1,.983-.417,7.3,7.3,0,0,1,1.044-.285,5.442,5.442,0,0,1,1.018-.1,3.012,3.012,0,0,1,2.29.74,2.615,2.615,0,0,1,.68,1.864,2.686,2.686,0,0,1-.447,1.542,6.07,6.07,0,0,1-.952,1.082q-.522.472-1.124.984a5.306,5.306,0,0,0-.946,1.068,4.923,4.923,0,0,0-.793,2.983ZM71.128,74.473l-1.22,10.158,9.572-1.61a26.08,26.08,0,1,0-8.353-8.547Zm22.364-37.39a24,24,0,1,1-12.94,44.253,2,2,0,0,0-1.062-.312,2.056,2.056,0,0,0-.34.028L72.213,82.22l.9-7.51a2.012,2.012,0,0,0-.274-1.27,23.96,23.96,0,0,1,20.65-36.36Zm-71.2-4.24a2.44,2.44,0,0,1-1.734-.632,2.2,2.2,0,0,1-.683-1.675,2.163,2.163,0,0,1,.688-1.67,2.466,2.466,0,0,1,1.73-.615,2.534,2.534,0,0,1,1.774.615,2.163,2.163,0,0,1,.688,1.67,2.205,2.205,0,0,1-.683,1.676,2.505,2.505,0,0,1-1.78.634Zm0-3.517a1.388,1.388,0,0,0-.982.326,1.13,1.13,0,0,0-.34.882,1.16,1.16,0,0,0,.344.9,1.354,1.354,0,0,0,.978.334,1.423,1.423,0,0,0,1.023-.333,1.163,1.163,0,0,0,.345-.9,1.125,1.125,0,0,0-.34-.88,1.456,1.456,0,0,0-1.028-.324Zm1.19-1.517H20.89a.544.544,0,0,1-.545-.49,6.127,6.127,0,0,1,.133-2.227,5.546,5.546,0,0,1,.714-1.6,5.756,5.756,0,0,1,1.033-1.167q.52-.443.968-.85a4.3,4.3,0,0,0,.676-.766,1.332,1.332,0,0,0,.21-.77,1.277,1.277,0,0,0-.31-.92,2.325,2.325,0,0,0-1.913-.24,5.4,5.4,0,0,0-.76.208,6.567,6.567,0,0,0-.74.317,5.824,5.824,0,0,0-.63.367.554.554,0,0,1-.8-.194l-1.167-2.206a.534.534,0,0,1,.177-.694,9.143,9.143,0,0,1,2.176-1.054,9.36,9.36,0,0,1,2.97-.42,5.718,5.718,0,0,1,3.792,1.176A4.025,4.025,0,0,1,28.3,19.5a5.7,5.7,0,0,1-.356,2.143,5.274,5.274,0,0,1-.876,1.46,6.918,6.918,0,0,1-1.116,1.034,8.3,8.3,0,0,0-.966.83,4,4,0,0,0-.7.964,2.878,2.878,0,0,0-.266,1.338.543.543,0,0,1-.545.535ZM21.4,26.73h1.56a3.5,3.5,0,0,1,.363-1.3,5.045,5.045,0,0,1,.888-1.218,9.316,9.316,0,0,1,1.094-.94,5.856,5.856,0,0,0,.94-.872,4.21,4.21,0,0,0,.69-1.163,4.672,4.672,0,0,0,.277-1.74,2.958,2.958,0,0,0-1.047-2.408,4.65,4.65,0,0,0-3.078-.92,8.268,8.268,0,0,0-2.614.363,8.464,8.464,0,0,0-1.5.67l.665,1.253.225-.12a7.766,7.766,0,0,1,.87-.37,6.393,6.393,0,0,1,.922-.253,4.83,4.83,0,0,1,.9-.09,2.657,2.657,0,0,1,2.025.655,2.317,2.317,0,0,1,.6,1.652,2.4,2.4,0,0,1-.4,1.368,5.452,5.452,0,0,1-.844.96q-.462.42-1,.872a4.672,4.672,0,0,0-.836.947,4.515,4.515,0,0,0-.572,1.293,4.565,4.565,0,0,0-.13,1.358ZM39.61,39l-.916,9.03-7.948-3.253a22.8,22.8,0,0,1-12.685.832A23.072,23.072,0,1,1,39.615,39ZM27.558,2.3a21.282,21.282,0,1,0,2.59,40.8,1.773,1.773,0,0,1,.977-.062,1.665,1.665,0,0,1,.29.09l5.758,2.358.678-6.67a1.774,1.774,0,0,1,.484-1.047A21.27,21.27,0,0,0,27.56,2.3Z" fill="#20a038" fill-rule="evenodd"/></g></g></svg>