<svg xmlns="http://www.w3.org/2000/svg" xmlns:xlink="http://www.w3.org/1999/xlink" width="56" height="56" viewBox="0 0 56 56"><defs><clipPath id="b"><rect width="56" height="56"/></clipPath></defs><g id="a" clip-path="url(#b)"><path d="M886.633,764.717h-4.28l-4.393,4.393a.932.932,0,0,1-1.593-.66v-3.733H874.5a4.673,4.673,0,0,1-4.667-4.667v-9.333a4.673,4.673,0,0,1,4.667-4.667h12.133a4.673,4.673,0,0,1,4.667,4.667v9.333A4.673,4.673,0,0,1,886.633,764.717Zm2.8-14a2.8,2.8,0,0,0-2.8-2.8H874.5a2.8,2.8,0,0,0-2.8,2.8v9.333a2.8,2.8,0,0,0,2.8,2.8h2.8a.933.933,0,0,1,.933.933V766.2l3.074-3.073a.933.933,0,0,1,.66-.274h4.666a2.8,2.8,0,0,0,2.8-2.8ZM874.5,754.45h12.133v1.867H874.5Zm8.4-3.733h3.733v1.866H882.9Zm-8.4,0h6.533v1.866H874.5Zm6.533,9.333H874.5v-1.867h6.533Zm-19.6,16.8H860.5v-1.866h.933a4.673,4.673,0,0,0,4.667-4.667V760.05a12.133,12.133,0,0,0-24.267,0v10.267a4.673,4.673,0,0,0,4.667,4.667h.933v1.866H846.5a6.541,6.541,0,0,1-6.533-6.533V760.05a14,14,0,0,1,28,0v10.267A6.54,6.54,0,0,1,861.433,776.85Zm-14,1.866a1.865,1.865,0,0,0,1.867-1.865h0v-2.2a9.335,9.335,0,0,1-4.667-8.071v-4.02a.934.934,0,0,1,.536-.844l15.8-7.433a.932.932,0,0,1,1.213.4,9.345,9.345,0,0,1,1.12,4.43v7.466a9.333,9.333,0,0,1-4.667,8.071v2.2a1.866,1.866,0,0,0,1.867,1.866h2.147l.016-.019.026.019H866.1a6.542,6.542,0,0,1,6.533,6.534v3.865l2.813-5.065a6.534,6.534,0,0,1,6.521-6.267h8.4a.933.933,0,0,1,.933.933,6.54,6.54,0,0,1-6.533,6.534h-.374l-9.1,16.8h-2.124l9.1-16.8h-5.351l-4.4,7.919a.934.934,0,0,1-1.749-.453V785.25a4.673,4.673,0,0,0-4.667-4.667h-2.52l-8.867,11.76a.933.933,0,0,1-.746.373h-.012a.932.932,0,0,1-.747-.39L844.8,780.583h-2.97a4.672,4.672,0,0,0-4.666,4.667v16.8H835.3v-16.8a6.542,6.542,0,0,1,6.533-6.534Zm37.334,4.667a4.673,4.673,0,0,0,4.573-3.733h-7.373a4.675,4.675,0,0,0-4.574,3.733Zm-23.334-16.8v-7.466a7.488,7.488,0,0,0-.521-2.743L846.5,763.156v3.427a7.467,7.467,0,0,0,14.933.173C861.434,766.7,861.434,766.641,861.433,766.583Zm-7.447,23.625,3.034-4.025h-5.914Zm-4.219-5.891h8.665l2.815-3.734H860.5a3.733,3.733,0,0,1-3.733-3.733v-1.363a9.337,9.337,0,0,1-5.6,0v1.363a3.733,3.733,0,0,1-3.733,3.733h-.339Zm-7.67,3.646,1.577,1-.682,1.074a7.434,7.434,0,0,0,.471,8.629.939.939,0,0,1,.2.584v2.8H841.8v-2.482a9.3,9.3,0,0,1-.386-10.531Zm22.162,1,1.577-1,.682,1.074a9.3,9.3,0,0,1-.385,10.531v2.482h-1.867v-2.8a.939.939,0,0,1,.2-.584,7.433,7.433,0,0,0,.472-8.628Z" transform="translate(-835.3 -746.05)" fill="#999" fill-rule="evenodd"/></g></svg>