<svg xmlns="http://www.w3.org/2000/svg" xmlns:xlink="http://www.w3.org/1999/xlink" width="12" height="14" viewBox="0 0 12 14"><defs><clipPath id="b"><rect width="12" height="14"/></clipPath></defs><g id="a" clip-path="url(#b)"><path d="M1343.243,851.8a6,6,0,0,0-4.243-1.73h-.88l1.412-1.4-.787-.773L1336,850.618l2.715,2.72.792-.768-1.4-1.406H1339a4.82,4.82,0,1,1-4.89,4.82v-.547H1333v.547a5.838,5.838,0,0,0,1.757,4.183,6.061,6.061,0,0,0,8.487,0,5.855,5.855,0,0,0,.089-8.278c-.03-.03-.059-.06-.089-.089Z" transform="translate(-1333 -847.9)" fill="#20a038" fill-rule="evenodd"/></g></svg>