<svg xmlns="http://www.w3.org/2000/svg" xmlns:xlink="http://www.w3.org/1999/xlink" width="19" height="18" viewBox="0 0 19 18"><defs><clipPath id="b"><rect width="19" height="18"/></clipPath></defs><g id="a" clip-path="url(#b)"><path d="M18.693,5.58l-7.62,7.145a1.132,1.132,0,0,1-1.478,0L6.3,9.67a.87.87,0,0,1,0-1.326,1.133,1.133,0,0,1,1.48,0l2.363,2.224a.286.286,0,0,0,.373,0l6.7-6.315a1.13,1.13,0,0,1,1.478,0,.87.87,0,0,1,0,1.326ZM9.018,1.01a8,8,0,1,0,7.55,10.628,7.62,7.62,0,0,0,1.2-.56,9,9,0,1,1-2.9-8.918,8.543,8.543,0,0,0-.843.614A7.963,7.963,0,0,0,9.018,1.01Z" transform="translate(-0.012 0.005)" fill="#fff" fill-rule="evenodd"/></g></svg>