<svg xmlns="http://www.w3.org/2000/svg" xmlns:xlink="http://www.w3.org/1999/xlink" width="32" height="30" viewBox="0 0 32 30"><defs><clipPath id="b"><rect width="32" height="30"/></clipPath></defs><g id="a" clip-path="url(#b)"><path d="M26.058,30H5.942A5.984,5.984,0,0,1,0,23.989V15.416a.917.917,0,1,1,1.834,0v8.573a4.137,4.137,0,0,0,4.108,4.156H26.058a4.137,4.137,0,0,0,4.108-4.156V15.553a.917.917,0,1,1,1.834,0v8.436A5.983,5.983,0,0,1,26.058,30ZM21.827,7.756a.915.915,0,0,1-.645-.275L16.917,3.167V21.983a.917.917,0,1,1-1.834,0V3.167L10.818,7.481a.911.911,0,0,1-1.29,0,.932.932,0,0,1,0-1.312L15.355.275A.881.881,0,0,1,16,0a.921.921,0,0,1,.645.275l5.827,5.894a.932.932,0,0,1,0,1.312A.877.877,0,0,1,21.827,7.756Z" fill="#128f3a" fill-rule="evenodd"/></g></svg>