<svg xmlns="http://www.w3.org/2000/svg" xmlns:xlink="http://www.w3.org/1999/xlink" width="57" height="57" viewBox="0 0 57 57"><defs><clipPath id="b"><rect width="57" height="57"/></clipPath></defs><g id="a" clip-path="url(#b)"><path d="M266.994,1692.892v.008H246v-.008h-9v.008h-21v-.008H213v-2h2.995V1635.9h21v8.006h9V1635.9h21v54.993H270v2h-3.006Zm-31.488-2H252v-40.987H230v40.99h5.506Zm0-53.492H217.482v53.494H228v-2.68h-8.474v-1.874H228v-1.877h-8.474v-1.873H228v-1.88h-8.474v-1.874H228v-1.876h-8.474v-1.87H228v-1.875h-8.474v-1.875H228v-1.876h-8.474v-1.877H228v-1.873h-8.474v-1.876H228v-1.875h-8.474v-1.875H228v-1.875h-8.474v-1.875H228v-1.874h-8.474v-1.876H228v-1.875h-8.474v-1.875H228v-1.875h-8.474v-1.876H228v-1.182h7.506ZM230,1645.905v2h22v-2Zm35.506-8.505H247.482v6.506H254v1.182h9.463v1.875H254v1.875h9.463v1.875H254v1.875h9.463v1.876H254v1.874h9.463v1.875H254v1.875h9.463v1.875H254v1.875h9.463v1.876H254v1.873h9.463v1.877H254v1.876h9.463v1.875H254v1.874h9.463v1.872H254v1.875h9.463v1.874H254v1.878h9.463v1.873H254v1.878h9.463v1.874H254v2.68h11.506Zm-15.98,3.937h13.937v1.875H249.527v-1.875Zm-30,0h13.937v1.875H219.526ZM234,1654.9h-2v-3h2Zm0,5h-2v-3h2v3Zm0,5h-2v-3h2Zm0,5h-2v-3h2Zm0,5h-2v-3h2Zm0,5h-2v-3h2Zm0,5h-2v-3h2Zm4-29.99h-2v-3h2Zm0,5h-2v-3h2v3Zm0,5h-2v-3h2Zm0,5h-2v-3h2Zm0,5h-2v-3h2Zm0,5h-2v-3h2Zm0,5h-2v-3h2Zm4-29.99h-2v-3h2Zm0,5h-2v-3h2v3Zm0,5h-2v-3h2Zm0,5h-2v-3h2Zm0,5h-2v-3h2Zm0,5h-2v-3h2Zm0,5h-2v-3h2Zm4-29.99h-2v-3h2Zm0,5h-2v-3h2v3Zm0,5h-2v-3h2Zm0,5h-2v-3h2Zm0,5h-2v-3h2Zm0,5h-2v-3h2Zm0,5h-2v-3h2Zm4-29.99h-2v-3h2Zm0,5h-2v-3h2v3Zm0,5h-2v-3h2Zm0,5h-2v-3h2Zm0,5h-2v-3h2Zm0,5h-2v-3h2Zm0,5h-2v-3h2Z" transform="translate(-213 -1635.9)" fill="#fff" fill-rule="evenodd"/></g></svg>