<svg xmlns="http://www.w3.org/2000/svg" width="72.002" height="72" viewBox="0 0 72.002 72"><g transform="translate(-288)"><rect width="72" height="72" transform="translate(288)" fill="none"/><g transform="translate(268 -16)"><path d="M1496.053,19378.971v0c.1-8.412.493-13.492,1.341-17.533a25.433,25.433,0,0,1,1.987-6.035,17.217,17.217,0,0,1,7.989-7.992,25.534,25.534,0,0,1,6.036-1.988c5-1.047,11.384-1.266,17.541-1.344v-2.154c-8.427-.105-13.51-.494-17.541-1.34a25.55,25.55,0,0,1-6.036-1.99,17.215,17.215,0,0,1-7.99-7.994,25.466,25.466,0,0,1-1.987-6.039c-.848-4.043-1.237-9.125-1.341-17.541a35.991,35.991,0,0,1,0,71.953Zm-2.155,0h0a36,36,0,0,1-34.883-34.895c10.4.131,14.573.725,17.533,1.344a25.454,25.454,0,0,1,6.034,1.99,17.194,17.194,0,0,1,7.989,7.99,25.45,25.45,0,0,1,1.985,6.035c1.048,4.994,1.265,11.377,1.344,17.533Zm-34.884-37.049v0a36,36,0,0,1,34.884-34.9c-.188,14.826-1.232,22.834-6.648,28.252a17.18,17.18,0,0,1-4.67,3.322,25.544,25.544,0,0,1-6.034,1.99c-4.044.848-9.123,1.236-17.532,1.34Z" transform="translate(-1439 -19291)" fill="#fff"/></g></g></svg>