<svg xmlns="http://www.w3.org/2000/svg" xmlns:xlink="http://www.w3.org/1999/xlink" width="19" height="15" viewBox="0 0 19 15"><defs><clipPath id="b"><rect width="19" height="15"/></clipPath></defs><g id="a" clip-path="url(#b)"><g transform="translate(-1149.464 -976.276)"><path d="M1166.464,976.276h-15a2,2,0,0,0-2,2v11a2,2,0,0,0,2,2h15a2,2,0,0,0,2-2v-11A2,2,0,0,0,1166.464,976.276Zm1,13a1,1,0,0,1-1,1h-15a1,1,0,0,1-1-1v-11a1,1,0,0,1,1-1h15a1,1,0,0,1,1,1Z" fill="#fff" fill-rule="evenodd"/><path d="M1161.464,983.276h-2v-2h-1v2h-2v1h2v2h1v-2h2Z" fill="#fff" fill-rule="evenodd"/></g></g></svg>