<svg xmlns="http://www.w3.org/2000/svg" width="19" height="16"><defs><clipPath id="a"><path d="M0 0H19V16H0z"/></clipPath></defs><g clip-path="url(#a)"><path d="M16.269 15.438H2.731A2.789 2.789 0 0 1 0 12.588V2.85A2.789 2.789 0 0 1 2.731 0h13.537A2.789 2.789 0 0 1 19 2.85v9.737a2.789 2.789 0 0 1-2.731 2.851zM2.732 1.069A1.826 1.826 0 0 0 .951 2.85v9.737a1.749 1.749 0 0 0 1.781 1.781h13.537a1.826 1.826 0 0 0 1.781-1.781V2.85a1.749 1.749 0 0 0-1.781-1.781zm6.769 8.787a4.418 4.418 0 0 1-3.325-1.544L.832 1.899l.713-.712 5.344 6.294a3.057 3.057 0 0 0 2.612 1.188 3.6 3.6 0 0 0 2.612-1.187l5.463-6.412.713.712-5.463 6.413a4.162 4.162 0 0 1-3.325 1.662z" fill="#fff" fill-rule="evenodd"/></g></svg>