<svg xmlns="http://www.w3.org/2000/svg" xmlns:xlink="http://www.w3.org/1999/xlink" width="56" height="56" viewBox="0 0 56 56"><defs><clipPath id="b"><rect width="56" height="56"/></clipPath></defs><g id="a" clip-path="url(#b)"><path d="M55.194,21A6.127,6.127,0,0,1,48.7,23.875a6.085,6.085,0,0,1-11.52,0A6.13,6.13,0,0,1,30.688,21a6,6,0,0,1,.721-7,6,6,0,0,1-.721-7,6.127,6.127,0,0,1,6.493-2.876,6.084,6.084,0,0,1,11.52,0A6.13,6.13,0,0,1,55.194,7a6,6,0,0,1-.721,7,6,6,0,0,1,.721,7Zm-2.658-7.742a4.123,4.123,0,0,0,1.047-5.324,4.25,4.25,0,0,0-5.214-1.773A.933.933,0,0,1,47.1,5.43a4.21,4.21,0,0,0-8.32,0,.933.933,0,0,1-1.268.734A4.253,4.253,0,0,0,32.3,7.937a4.122,4.122,0,0,0,1.047,5.336.934.934,0,0,1,0,1.477A4.123,4.123,0,0,0,32.3,20.07a4.25,4.25,0,0,0,5.215,1.773.934.934,0,0,1,1.268.734,4.21,4.21,0,0,0,8.32,0,.933.933,0,0,1,1.268-.734,4.248,4.248,0,0,0,5.213-1.773,4.124,4.124,0,0,0-1.047-5.332.935.935,0,0,1,0-1.477Zm-6.8-.191h1.867v1.867H45.741Zm-3.734,0h1.867v1.867H42.007Zm-3.734,0H40.14v1.867H38.273ZM32.7,1.923A19.114,19.114,0,0,0,14.1,12.549c-1.079,2.189-5.712,15.09-7.174,19.187H11.2V33.6H5.6a.933.933,0,0,1-.879-1.238c.259-.731,6.375-17.94,7.7-20.632A20.98,20.98,0,0,1,32.838.066a20.62,20.62,0,0,1,2.831.405l-.392,1.82A18.785,18.785,0,0,0,32.7,1.923ZM19.6,38.735A3.266,3.266,0,0,1,16.336,42h-.782a3.264,3.264,0,0,1-.668,3.733l.056.055a3.26,3.26,0,0,1-.056,4.611A3.267,3.267,0,0,1,12.6,56H.933A.933.933,0,0,1,0,55.067V40.134a4.673,4.673,0,0,1,4.667-4.666H16.336A3.267,3.267,0,0,1,19.6,38.735Zm-17.736,1.4v14H12.6a1.4,1.4,0,1,0,0-2.8H7.468a.934.934,0,1,1,0-1.867H12.6a1.4,1.4,0,1,0,0-2.8H7.468a.933.933,0,1,1,0-1.866H12.6a1.4,1.4,0,0,0,0-2.8H7.468a.934.934,0,1,1,0-1.867h8.868a1.4,1.4,0,1,0,0-2.8H4.667a2.8,2.8,0,0,0-2.8,2.8ZM17.736,22.4a3.734,3.734,0,1,1,3.734,3.732A3.734,3.734,0,0,1,17.736,22.4Zm5.6,0a1.867,1.867,0,1,0-1.867,1.823A1.867,1.867,0,0,0,23.337,22.4ZM29.749,42.77l2.96-10.359,1.794.513-2.959,10.36a4.69,4.69,0,0,1-4.489,3.383H23.337V50.4H44.808v-.566A61.878,61.878,0,0,1,49.162,27.8a19.416,19.416,0,0,0,.611-1.9l1.805.478a20.764,20.764,0,0,1-.673,2.086,60.071,60.071,0,0,0-4.23,21.371v1.5a.934.934,0,0,1-.934.933H22.4a.934.934,0,0,1-.934-.933V46.667H17.736V44.8h9.319A2.816,2.816,0,0,0,29.749,42.77Z" fill="#fff" fill-rule="evenodd"/></g></svg>