<svg xmlns="http://www.w3.org/2000/svg" width="72" height="72" viewBox="0 0 72 72"><g transform="translate(-72)"><rect width="72" height="72" transform="translate(72)" fill="none"/><g transform="translate(1611.45 19141.762)"><path d="M151.55,199.639c-.225,0-22.579-.017-28.13-1.5a9.016,9.016,0,0,1-6.366-6.366c-1.487-5.551-1.5-17.213-1.5-17.33s.017-11.779,1.5-17.329a9.016,9.016,0,0,1,6.366-6.366c5.551-1.488,27.905-1.5,28.13-1.5s22.579.017,28.13,1.5a9.016,9.016,0,0,1,6.366,6.366c1.488,5.551,1.5,17.212,1.5,17.329s-.017,11.78-1.5,17.33a9.016,9.016,0,0,1-6.366,6.366C174.129,199.622,151.775,199.639,151.55,199.639Zm-7.2-36v21.6l18.706-10.8-18.706-10.8Z" transform="translate(-1655 -19280.199)" fill="#fff"/></g></g></svg>