<svg xmlns="http://www.w3.org/2000/svg" xmlns:xlink="http://www.w3.org/1999/xlink" width="45" height="56" viewBox="0 0 45 56"><defs><clipPath id="b"><rect width="45" height="56"/></clipPath></defs><g id="a" clip-path="url(#b)"><g transform="translate(-3.385 1.363)"><path d="M87.643,51.349C86.47,50.283,81.4,47.1,70.836,47.054c0,0-12.514-.822-18.589,4.68-3.381,3.338-4.52,8.3-4.645,14.361S46.83,83.726,57.911,86.8h0s-.044,8.592-.049,9.347c0,.528.084.889.386.964a.961.961,0,0,0,.819-.335c1.772-1.779,7.444-8.623,7.444-8.623A46.53,46.53,0,0,0,80.83,86.939c1.535-.494,9.841-1.207,11.246-12.56C93.528,62.676,91.542,54.687,87.643,51.349Z" transform="translate(-44.167 -43.662)" fill="#7360f2"/><path d="M335.588,214.029a.707.707,0,0,1-.705-.672c-.119-2.4-1.248-3.575-3.554-3.7a.707.707,0,0,1,.074-1.411c3.044.159,4.736,1.9,4.891,5.037a.707.707,0,0,1-.671.741Z" transform="translate(-303.546 -191.387)" fill="#fff"/><path d="M327.5,173.8h-.016a.707.707,0,0,1-.691-.722,8.168,8.168,0,0,0-2.109-5.978,8.781,8.781,0,0,0-6.156-2.675.707.707,0,1,1,.1-1.409,10.256,10.256,0,0,1,7.095,3.13A9.642,9.642,0,0,1,328.2,173.1.707.707,0,0,1,327.5,173.8Z" transform="translate(-291.828 -149.938)" fill="#fff"/><path d="M317.593,135.183a.707.707,0,0,1-.706-.7c-.032-4.263-1.312-7.656-3.8-10.084a13.088,13.088,0,0,0-9.373-3.705.707.707,0,1,1,.01-1.413,14.456,14.456,0,0,1,10.349,4.106c2.771,2.7,4.193,6.43,4.229,11.085a.707.707,0,0,1-.7.712Z" transform="translate(-278.214 -109.874)" fill="#fff"/><path d="M156.034,158.658a1.939,1.939,0,0,0,1.528-.575l1.043-1.312a2.292,2.292,0,0,1,2.905-.4,30.733,30.733,0,0,1,2.591,1.654c.789.58,2.4,1.928,2.409,1.928a1.994,1.994,0,0,1,.423,2.609c0,.006,0,.016,0,.021a10.88,10.88,0,0,1-2.17,2.672c-.01.005-.01.01-.019.015a4.276,4.276,0,0,1-2.2,1.065,1.457,1.457,0,0,1-.322.02,2.934,2.934,0,0,1-.937-.144l-.023-.034a32.027,32.027,0,0,1-6.057-2.8,36.075,36.075,0,0,1-5.089-3.362,26.688,26.688,0,0,1-2.289-2.03l-.077-.077-.077-.077h0l-.077-.077-.077-.077a26.678,26.678,0,0,1-2.03-2.289,36.11,36.11,0,0,1-3.362-5.088,32,32,0,0,1-2.8-6.058l-.034-.023a2.934,2.934,0,0,1-.143-.937,1.414,1.414,0,0,1,.019-.322,4.359,4.359,0,0,1,1.067-2.205c.005-.009.01-.009.015-.019a10.856,10.856,0,0,1,2.672-2.169c.005,0,.015-.005.021-.005a2,2,0,0,1,2.608.419c.005.005,1.35,1.62,1.928,2.409a30.73,30.73,0,0,1,1.655,2.593,2.292,2.292,0,0,1-.4,2.905l-1.312,1.043a1.926,1.926,0,0,0-.575,1.528S148.775,156.8,156.034,158.658Z" transform="translate(-128.074 -127.259)" fill="#fff"/></g></g></svg>