<svg xmlns="http://www.w3.org/2000/svg" xmlns:xlink="http://www.w3.org/1999/xlink" width="24" height="24" viewBox="0 0 24 24"><defs><clipPath id="b"><rect width="24" height="24"/></clipPath></defs><g id="a" clip-path="url(#b)"><path d="M33,14a11.993,11.993,0,1,0,8.487,3.513A12,12,0,0,0,33,14Zm0,22.125a10.119,10.119,0,1,1,7.161-2.964A10.125,10.125,0,0,1,33,36.125Zm0-16.084a.937.937,0,0,0-.937.937v6.037a.938.938,0,0,0,1.875,0V20.979A.937.937,0,0,0,33,20.041Zm0,9.06a1.263,1.263,0,1,1-.9.37,1.266,1.266,0,0,1,.9-.37Z" transform="translate(-21 -14)" fill="#fff" fill-rule="evenodd"/></g></svg>