<svg xmlns="http://www.w3.org/2000/svg" xmlns:xlink="http://www.w3.org/1999/xlink" width="15" height="15" viewBox="0 0 15 15"><defs><clipPath id="b"><rect width="15" height="15"/></clipPath></defs><g id="a" clip-path="url(#b)"><path d="M7.193,14.11a7,7,0,1,1,7.007-7A7.009,7.009,0,0,1,7.193,14.11Zm0-13.025A6.023,6.023,0,1,0,13.22,7.108,6.026,6.026,0,0,0,7.193,1.085ZM9.2,7.93H6.866a.491.491,0,0,1-.5-.5V4.06a.5.5,0,0,1,.993,0V6.938H9.2a.5.5,0,1,1,0,.992Z" transform="translate(0.307 0.392)" fill="#336074" fill-rule="evenodd"/></g></svg>