<svg xmlns="http://www.w3.org/2000/svg" xmlns:xlink="http://www.w3.org/1999/xlink" width="22" height="28" viewBox="0 0 22 28"><defs><clipPath id="b"><rect width="22" height="28"/></clipPath></defs><g id="a" clip-path="url(#b)"><path d="M784.01,1067.87a1.017,1.017,0,0,0-1.4.22l-9.672,13.08s-.009-.01-.014-.01c-.027.04-.05.08-.08.12a4.391,4.391,0,0,1-6.04.95,4.158,4.158,0,0,1-.974-5.89v-.01h-.009l11.987-16.21a2.911,2.911,0,0,1,4-.63,2.762,2.762,0,0,1,.646,3.91c-.022.03-7.561,10.2-8.661,11.68h0c-.053.08-.123.16-.164.22a1.335,1.335,0,0,1-1.827.29,1.266,1.266,0,0,1-.3-1.79c.023-.03.085-.13.133-.2l6.336-8.57a.968.968,0,0,0-.227-1.37,1.017,1.017,0,0,0-1.4.22l-6.424,8.69a1.217,1.217,0,0,0-.074.13h0a3.188,3.188,0,0,0,.773,4.48,3.369,3.369,0,0,0,4.633-.73c.042-.06.076-.12.112-.18l.006.01c.781-1.05,8.852-11.93,8.839-11.94a4.687,4.687,0,0,0-1.235-6.44,4.958,4.958,0,0,0-6.769,1.02h0l-12.08,16.34s-.109.14-.111.14a.034.034,0,0,0,.031,0,6.1,6.1,0,0,0,1.568,8.43,6.449,6.449,0,0,0,8.568-1.06.194.194,0,0,0,.009.04c0-.01.218-.3.22-.3l9.813-13.27a.966.966,0,0,0-.218-1.37Z" transform="translate(-762.995 -1056.999)" fill="#fff" fill-rule="evenodd"/></g></svg>