<svg xmlns="http://www.w3.org/2000/svg" xmlns:xlink="http://www.w3.org/1999/xlink" width="14" height="14" viewBox="0 0 14 14"><defs><clipPath id="b"><rect width="14" height="14"/></clipPath></defs><g id="a" clip-path="url(#b)"><path d="M1210.95,10.05A7,7,0,1,1,1206,8a7,7,0,0,1,4.95,2.05Zm-.62,9.28a6.049,6.049,0,0,0,1.67-3.1c-.18.271-.36.372-.47-.235-.11-.99-1.02-.357-1.59-.709-.6.4-1.95-.788-1.72.558.35.607,1.91-.812,1.13.472-.49.9-1.81,2.884-1.64,3.914.02,1.5-1.53.313-2.07-.185-.36-1-.12-2.74-1.06-3.228-1.03-.045-1.9-.138-2.3-1.281a1.855,1.855,0,0,1,1.13-2.223c1.28-.806,1.74.944,2.95.976.37-.391,1.39-.515,1.47-.953-.79-.14,1-.664-.07-.962a.731.731,0,0,0-.67,1.08c-1.15.268-1.18-1.667-2.29-1.057-.03.965-1.81.313-.62.117.41-.179-.66-.7-.08-.6.28-.016,1.25-.353.99-.58.53-.333.98.8,1.51-.026.38-.632-.16-.749-.64-.429-.26-.3.48-.947,1.13-1.227a1.286,1.286,0,0,1,.58-.13c.33.38.94.446.97-.046a6.129,6.129,0,0,0-6.29.612c.28.13.44.291.17.5a2.044,2.044,0,0,1-1.83,1.355,6.064,6.064,0,0,0-.75,2.2c.63.209.77.622.64.76a2.069,2.069,0,0,0-.62,1.112,6.122,6.122,0,0,0,10.37,3.32Z" transform="translate(-1199 -8)" fill="#fff" fill-rule="evenodd"/></g></svg>