<svg xmlns="http://www.w3.org/2000/svg" xmlns:xlink="http://www.w3.org/1999/xlink" width="45" height="56" viewBox="0 0 45 56"><defs><linearGradient id="a" x1="0.665" y1="0.159" x2="0.419" y2="0.751" gradientUnits="objectBoundingBox"><stop offset="0" stop-color="#2aabee"/><stop offset="1" stop-color="#229ed9"/></linearGradient><clipPath id="c"><rect width="45" height="56"/></clipPath></defs><g id="b" clip-path="url(#c)"><g transform="translate(0 5.5)"><path d="M22.5,0a22.5,22.5,0,1,1-9.869,42.691c-.335-.156-6.876,2.725-7.893,1.633s.946-6.861.543-7.324c-.235-.264-.683-.827-1.2-1.534A22.223,22.223,0,0,1,0,22.5,22.5,22.5,0,0,1,22.5,0Z" transform="translate(0 0)" fill="url(#a)"/><path d="M65.49,70.33s2.341-.91,2.146,1.3c-.065.91-.65,4.1-1.105,7.543l-1.561,10.21s-.13,1.5-1.3,1.756-2.926-.91-3.251-1.171c-.26-.2-4.877-3.121-6.5-4.552a1.232,1.232,0,0,1,.065-2.081l6.828-6.5c.78-.78,1.561-2.6-1.691-.39l-9.1,6.178a3.821,3.821,0,0,1-2.991.065l-4.227-1.3s-1.561-.975,1.105-1.951C50.4,76.378,58.4,73.256,65.49,70.33Z" transform="translate(-34.406 -56.999)" fill="#fff"/></g></g></svg>