<svg xmlns="http://www.w3.org/2000/svg" xmlns:xlink="http://www.w3.org/1999/xlink" width="18" height="16" viewBox="0 0 18 16"><defs><clipPath id="b"><rect width="18" height="16"/></clipPath></defs><g id="a" clip-path="url(#b)"><path d="M712.668,1269.406a.556.556,0,0,1-.756-.247l-1.007-1.994a7.615,7.615,0,0,1-14.486-1.25.57.57,0,0,1,.4-.7h0a.56.56,0,0,1,.68.406l0,.007a6.5,6.5,0,0,0,12.392,1.03l-2.07.787a.56.56,0,0,1-.719-.333v0a.575.575,0,0,1,.33-.734l3.167-1.2c.015-.006.03,0,.046-.01a.615.615,0,0,1,.113-.02.552.552,0,0,1,.115.007h.057c.01,0,.018.01.03.014a.539.539,0,0,1,.116.056.669.669,0,0,1,.073.044.606.606,0,0,1,.08.088.82.82,0,0,1,.056.075c0,.007.01.01.01.017l1.61,3.185a.577.577,0,0,1-.24.774Zm-1.81-7.168a.559.559,0,0,1-.7-.374l0-.006a6.49,6.49,0,0,0-12.18-1.01l2.12-.6a.56.56,0,0,1,.688.392l0,.008a.569.569,0,0,1-.39.7l-3.2.9a.546.546,0,0,1-.15.02.522.522,0,0,1-.162-.023.435.435,0,0,1-.09-.05.484.484,0,0,1-.247-.244l-.01-.005-1.466-3.146a.574.574,0,0,1,.264-.762.556.556,0,0,1,.743.259l.005.011.92,1.966a7.6,7.6,0,0,1,14.225,1.246A.574.574,0,0,1,710.858,1262.238Z" transform="translate(-695.017 -1255.89)" fill="#20a038" fill-rule="evenodd"/></g></svg>