<svg xmlns="http://www.w3.org/2000/svg" xmlns:xlink="http://www.w3.org/1999/xlink" width="56" height="52" viewBox="0 0 56 52"><defs><clipPath id="b"><rect width="56" height="52"/></clipPath></defs><g id="a" clip-path="url(#b)"><g transform="translate(-821 -1468.9)"><path d="M858.133,1509.685a2.67,2.67,0,1,0,2.7,2.67A2.686,2.686,0,0,0,858.133,1509.685Zm0,3.34a.671.671,0,1,1,.7-.67A.684.684,0,0,1,858.133,1513.025ZM831.338,1484.4a.5.5,0,0,0-.625-.34.5.5,0,0,0-.055.02c-.29.128-.59.255-.9.383l-.143.06.093-1.11a.5.5,0,0,0-.45-.54l-.05,0H828.1a.5.5,0,0,0-.5.5c0,.014,0,.029,0,.043l.094,1.1-1.047-.437a.5.5,0,0,0-.656.272c-.006.016-.012.032-.017.048l-.31,1.043a.5.5,0,0,0,.337.622l.023.006c.3.074.6.15.906.236l.146.04-.74.848a.5.5,0,0,0,.042.7.37.37,0,0,0,.03.025c.156.12.31.236.467.35s.3.22.445.336a.5.5,0,0,0,.7-.084.561.561,0,0,0,.035-.05l.6-.98.585.964a.5.5,0,0,0,.72.146c.168-.12.326-.238.48-.354l.447-.349a.5.5,0,0,0,.086-.7l-.02-.024-.727-.824,1.06-.265a.5.5,0,0,0,.362-.608l-.005-.017-.31-1.058Zm-2.505,1.514a.188.188,0,0,1-.342.142.483.483,0,0,0-.086-.28.518.518,0,0,0,.258-.172.5.5,0,0,0,.244.166.471.471,0,0,0-.07.142Zm10.014-1.516a.5.5,0,0,0-.617-.339.424.424,0,0,0-.063.023q-.517.227-1.04.44l.093-1.108a.5.5,0,0,0-.45-.54l-.048,0h-1.107a.5.5,0,0,0-.5.5c0,.014,0,.028,0,.042l.093,1.1-1.048-.437a.5.5,0,0,0-.655.273.375.375,0,0,0-.017.047l-.31,1.043a.5.5,0,0,0,.338.624l.022.006c.3.072.6.15.905.234l.146.04-.737.85a.5.5,0,0,0,.053.711l.017.014c.156.118.31.235.467.35s.295.222.443.337a.5.5,0,0,0,.7-.084.559.559,0,0,0,.035-.051l.6-.98.582.963a.5.5,0,0,0,.687.168l.033-.022c.165-.12.323-.237.476-.353l.448-.346a.5.5,0,0,0,.09-.7l-.02-.025-.728-.825,1.06-.265a.5.5,0,0,0,.363-.607l-.005-.019-.308-1.06Zm-2.5,1.516a.483.483,0,0,0-.022.136.508.508,0,0,0-.32.006.491.491,0,0,0-.087-.28.5.5,0,0,0,.258-.17.512.512,0,0,0,.245.166.47.47,0,0,0-.07.142Zm4.71.154c.3.073.6.15.9.235l.146.04-.738.848a.5.5,0,0,0,.052.709l.018.015c.154.12.31.237.466.352s.3.22.447.334a.5.5,0,0,0,.7-.084.563.563,0,0,0,.035-.05l.6-.98.583.964a.5.5,0,0,0,.69.166l.03-.02c.167-.12.324-.237.476-.352l.45-.347a.5.5,0,0,0,.088-.7l-.018-.022-.73-.824,1.06-.264a.5.5,0,0,0,.365-.6l-.005-.02-.31-1.056a.5.5,0,0,0-.628-.337l-.052.019c-.29.125-.59.253-.9.38l-.146.06.094-1.108a.5.5,0,0,0-.45-.542l-.047,0h-1.108a.5.5,0,0,0-.5.5c0,.014,0,.028,0,.042l.092,1.1-1.048-.437a.5.5,0,0,0-.655.273.37.37,0,0,0-.017.047l-.31,1.04a.494.494,0,0,0,.328.617l.034.009Zm2.53-.37a.473.473,0,0,0,.1-.093.513.513,0,0,0,.242.167.264.264,0,0,1-.41.284.477.477,0,0,0-.088-.28.5.5,0,0,0,.158-.08Zm4.98.37c.3.073.6.15.9.235l.146.04-.74.848a.5.5,0,0,0,.052.708l.021.017c.156.12.31.236.466.35s.3.22.443.335a.5.5,0,0,0,.4.1.493.493,0,0,0,.336-.23l.6-.98.582.964a.491.491,0,0,0,.33.23.517.517,0,0,0,.395-.084l.478-.355.445-.346a.5.5,0,0,0,.066-.728l-.73-.823,1.06-.266a.5.5,0,0,0,.365-.6l-.005-.02-.31-1.058a.5.5,0,0,0-.68-.32c-.293.127-.59.255-.9.38-.05.022-.1.042-.146.062l.1-1.11a.493.493,0,0,0-.132-.38.5.5,0,0,0-.365-.162H850.64a.514.514,0,0,0-.37.162.5.5,0,0,0-.128.38l.092,1.1-1.047-.437a.5.5,0,0,0-.655.273.384.384,0,0,0-.017.047l-.31,1.042a.5.5,0,0,0,.34.623l.017.005Zm2.53-.37a.5.5,0,0,0,.1-.092.529.529,0,0,0,.244.166.476.476,0,0,0-.09.278.49.49,0,0,0-.147-.023h0a.478.478,0,0,0-.168.027.642.642,0,0,0-.023-.145.116.116,0,0,1,.09-.213Z" fill="#20a038"/><path d="M867.066,1468.9H849.2a9.844,9.844,0,0,0-9.84,8.445H822a1,1,0,0,0-1,1v15.32a1,1,0,0,0,1,1h17.27v16.455a9.864,9.864,0,0,0,9.932,9.78h17.864a9.867,9.867,0,0,0,9.934-9.78v-32.44a9.866,9.866,0,0,0-9.933-9.78ZM823,1479.345h34.132v13.32H852.9a1,1,0,0,0-1,1l0,3.976-5.2-4.713a1,1,0,0,0-.672-.26H823v-13.323Zm22.35,15.32,6.865,6.23a.99.99,0,0,0,.846.237c.04,0,.076.02.115.02a1,1,0,0,0,1-1l.006-5.486h4.24a1,1,0,0,0,1-1v-15.32a1,1,0,0,0-1-1H841.384a7.859,7.859,0,0,1,7.819-6.446h17.865a7.867,7.867,0,0,1,7.932,7.78V1505.2H841.27v-10.54Zm21.717,24.235H849.2a7.866,7.866,0,0,1-7.932-7.78V1507.2H875v3.916a7.868,7.868,0,0,1-7.934,7.78Z" fill="#20a038"/></g></g></svg>