<svg xmlns="http://www.w3.org/2000/svg" width="28" height="29"><defs><clipPath id="a"><path d="M0 0H28V29H0z"/></clipPath></defs><g clip-path="url(#a)"><path d="M19.627 23.462h-.022c-2.457-.078-5.507-1.926-9.069-5.5s-5.418-6.616-5.498-9.056c-.033-1.142 2.61-3.034 2.636-3.06a1.365 1.365 0 0 1 1.895.16c.2.28 2.154 3.236 2.384 3.594a1.536 1.536 0 0 1-.082 1.523 84.583 84.583 0 0 1-.855 1.523 22.234 22.234 0 0 0 2.267 2.575 21.621 21.621 0 0 0 2.575 2.262c.438-.246 1.256-.717 1.527-.851a1.557 1.557 0 0 1 1.508-.086c.386.235 3.385 2.228 3.6 2.385a1.138 1.138 0 0 1 .459.851 1.6 1.6 0 0 1-.3 1.053c-.026.022-1.892 2.631-3.024 2.631zM8.604 6.599a.59.59 0 0 0-.329.112A8.2 8.2 0 0 0 6.09 8.884c.086 2.687 2.868 6.012 5.186 8.341s5.648 5.095 8.35 5.184a8.516 8.516 0 0 0 2.154-2.183.438.438 0 0 0 .091-.448c-.193-.134-3.18-2.116-3.535-2.34a.793.793 0 0 0-.467.123c-.372.19-1.779 1-1.779 1l-.266.157-.263-.157a26.345 26.345 0 0 1-5.623-5.624l-.153-.269.153-.257s.807-1.411 1-1.78a.759.759 0 0 0 .121-.47c-.221-.337-2.156-3.282-2.347-3.539a.193.193 0 0 0-.109-.022z" fill="#fff" fill-rule="evenodd"/></g></svg>