<svg xmlns="http://www.w3.org/2000/svg" width="56" height="56" viewBox="0 0 56 56">
  <g id="icon_wa" transform="translate(0 -197)">
    <rect id="Прямоугольник_2142" data-name="Прямоугольник 2142" width="56" height="56" transform="translate(0 197)" fill="none"/>
    <path id="iconmonstr-whatsapp-1" d="M.057,32.555,2.345,24.2A16.131,16.131,0,1,1,8.61,30.312L.057,32.555Zm8.949-5.164a13.377,13.377,0,1,0-3.721-3.618L3.93,28.722l5.076-1.331ZM24.452,19.98c-.1-.168-.369-.269-.773-.471s-2.385-1.177-2.755-1.312-.638-.2-.907.2-1.042,1.312-1.276,1.58-.471.3-.874.1a11,11,0,0,1-3.242-2,12.134,12.134,0,0,1-2.242-2.793c-.235-.4-.024-.621.176-.822.182-.18.4-.471.6-.707a2.644,2.644,0,0,0,.407-.671.741.741,0,0,0-.034-.707c-.1-.2-.907-2.185-1.243-2.992-.328-.785-.661-.68-.907-.692l-.773-.014a1.477,1.477,0,0,0-1.074.5,4.523,4.523,0,0,0-1.411,3.363,7.844,7.844,0,0,0,1.645,4.17c.2.269,2.842,4.341,6.885,6.087a23.324,23.324,0,0,0,2.3.849,5.541,5.541,0,0,0,2.539.16A4.152,4.152,0,0,0,24.217,21.9a3.358,3.358,0,0,0,.235-1.918Z" transform="translate(12.244 208.223)" fill="#fff"/>
  </g>
</svg>
