<svg xmlns="http://www.w3.org/2000/svg" width="56" height="56" viewBox="0 0 56 56">
  <g id="icon_tg" transform="translate(0 -67)">
    <rect id="Прямоугольник_2140" data-name="Прямоугольник 2140" width="56" height="56" transform="translate(0 67)" fill="none"/>
    <path id="Path-3" d="M191,311.4q11.733-5.112,15.648-6.74c7.451-3.1,9-3.638,10.009-3.655a1.764,1.764,0,0,1,1.04.312,1.13,1.13,0,0,1,.382.727,4.733,4.733,0,0,1,.045,1.056c-.4,4.243-2.151,14.539-3.04,19.291-.376,2.011-1.117,2.685-1.834,2.751-1.558.143-2.741-1.03-4.251-2.019-2.362-1.548-3.7-2.512-5.988-4.022-2.649-1.746-.932-2.705.578-4.273.4-.41,7.26-6.655,7.393-7.221a.548.548,0,0,0-.125-.474.618.618,0,0,0-.556-.054q-.355.081-11.318,7.481a5.094,5.094,0,0,1-2.91,1.075,19.15,19.15,0,0,1-4.171-.987c-1.68-.546-3.016-.835-2.9-1.763Q189.1,312.153,191,311.4Z" transform="translate(-178 -218)" fill="#fff"/>
  </g>
</svg>
