<svg xmlns="http://www.w3.org/2000/svg" width="72" height="72" viewBox="0 0 72 72"><g transform="translate(-432 0)"><rect width="72" height="72" transform="translate(432)" fill="none"/><g transform="translate(433.86 -0.002)"><path d="M60.574,7.024C58.785,5.374,51.555.125,35.45.053c0,0-18.992-1.145-28.251,7.347C2.045,12.555.232,20.1.041,29.449S-.4,56.325,16.5,61.077h.016L16.5,68.328s-.108,2.936,1.825,3.534c2.338.726,3.71-1.505,5.942-3.91,1.225-1.32,2.917-3.26,4.192-4.742a65.109,65.109,0,0,0,21.448-1.579c2.333-.756,15.533-2.447,17.679-19.971C69.8,23.6,66.516,12.174,60.574,7.024Zm1.958,33.341C60.72,55,50.014,55.916,48.04,56.549A60.123,60.123,0,0,1,29.583,58.12s-7.312,8.822-9.6,11.116a1.22,1.22,0,0,1-1.056.432c-.393-.1-.5-.562-.5-1.243.006-.972.063-12.049.063-12.049h0C4.206,52.409,5.039,37.493,5.2,29.683S6.831,15.474,11.189,11.17C19.02,4.077,35.152,5.137,35.152,5.137,48.776,5.2,55.3,9.3,56.818,10.673c5.026,4.3,7.587,14.6,5.715,29.688Z" transform="translate(0 0)" fill="#fff"/><path d="M337.013,215.7a.911.911,0,0,1-.909-.866c-.154-3.095-1.609-4.609-4.581-4.764a.911.911,0,0,1,.095-1.819c3.925.2,6.105,2.45,6.306,6.493a.911.911,0,0,1-.865.955Z" transform="translate(-294.935 -185.748)" fill="#fff"/><path d="M330.279,176.914h-.02a.911.911,0,0,1-.891-.93,10.529,10.529,0,0,0-2.719-7.706,11.319,11.319,0,0,0-7.936-3.448.911.911,0,1,1,.133-1.817,13.221,13.221,0,0,1,9.146,4.035,12.43,12.43,0,0,1,3.2,8.976A.911.911,0,0,1,330.279,176.914Z" transform="translate(-283.526 -145.396)" fill="#fff"/><path d="M321.809,139.781a.911.911,0,0,1-.911-.9c-.042-5.5-1.691-9.869-4.9-13a16.871,16.871,0,0,0-12.082-4.776.911.911,0,1,1,.013-1.822,18.636,18.636,0,0,1,13.341,5.294c3.572,3.482,5.406,8.289,5.451,14.289a.911.911,0,0,1-.9.918Z" transform="translate(-270.272 -106.391)" fill="#fff"/><path d="M160.92,164.556a2.5,2.5,0,0,0,1.97-.741l1.344-1.691a2.955,2.955,0,0,1,3.745-.52,39.61,39.61,0,0,1,3.34,2.133c1.017.748,3.1,2.485,3.105,2.485a2.571,2.571,0,0,1,.546,3.363c0,.008-.005.021-.005.027a14.025,14.025,0,0,1-2.8,3.444c-.013.006-.013.013-.025.019a5.512,5.512,0,0,1-2.84,1.373,1.878,1.878,0,0,1-.415.026,3.782,3.782,0,0,1-1.208-.186l-.03-.044a41.287,41.287,0,0,1-7.808-3.613,46.5,46.5,0,0,1-6.561-4.334,34.394,34.394,0,0,1-2.951-2.617l-.1-.1-.1-.1h0l-.1-.1c-.033-.032-.066-.066-.1-.1a34.392,34.392,0,0,1-2.617-2.951,46.546,46.546,0,0,1-4.334-6.559,41.255,41.255,0,0,1-3.613-7.809l-.044-.03a3.782,3.782,0,0,1-.185-1.208,1.822,1.822,0,0,1,.025-.415,5.619,5.619,0,0,1,1.375-2.842c.006-.012.013-.012.019-.025a14,14,0,0,1,3.444-2.8c.006,0,.019-.006.027-.006a2.574,2.574,0,0,1,3.362.54c.006.006,1.741,2.089,2.485,3.105a39.618,39.618,0,0,1,2.133,3.343,2.954,2.954,0,0,1-.52,3.745l-1.691,1.344a2.483,2.483,0,0,0-.741,1.97S151.562,162.168,160.92,164.556Z" transform="translate(-124.103 -123.316)" fill="#fff"/></g></g></svg>