<svg xmlns="http://www.w3.org/2000/svg" xmlns:xlink="http://www.w3.org/1999/xlink" width="33" height="40" viewBox="0 0 33 40"><defs><clipPath id="b"><rect width="33" height="40"/></clipPath></defs><g id="a" clip-path="url(#b)"><path d="M1519.74,1473.762l-2.71,2.778-13.44,13.8a.844.844,0,0,1-.39.228l-4.44,1.184a.956.956,0,0,1-.22.028.844.844,0,0,1-.6-.255.908.908,0,0,1-.22-.834l1.16-4.56a.79.79,0,0,1,.22-.4l13.44-13.8h.01l2.7-2.777a.851.851,0,0,1,.6-.255.833.833,0,0,1,.6.255l3.29,3.378a.888.888,0,0,1,0,1.233Zm-19.28,13.038-.73,2.9,2.82-.752,12.69-13.018-2.1-2.146Zm15.39-15.8-1.51,1.548,2.09,2.147,1.51-1.548Zm-11.46,2.89h-15.7v33.265h26.6V1484.2a.85.85,0,0,1,1.7,0v23.83a.86.86,0,0,1-.85.87h-28.29a.86.86,0,0,1-.85-.87h0v-35.01a.86.86,0,0,1,.85-.87h16.54a.87.87,0,0,1,0,1.74Z" transform="translate(-1486.989 -1468.899)" fill="#fff" fill-rule="evenodd"/></g></svg>