<svg xmlns="http://www.w3.org/2000/svg" xmlns:xlink="http://www.w3.org/1999/xlink" width="19" height="15" viewBox="0 0 19 15"><defs><clipPath id="b"><rect width="19" height="15"/></clipPath></defs><g id="a" clip-path="url(#b)"><g transform="translate(-1149.464 -963.868)"><path d="M1166.464,963.868h-15a2,2,0,0,0-2,2v11a2,2,0,0,0,2,2h15a2,2,0,0,0,2-2v-11A2,2,0,0,0,1166.464,963.868Zm1,13a1,1,0,0,1-1,1h-15a1,1,0,0,1-1-1v-8h17Zm0-9h-17v-2a1,1,0,0,1,1-1h15a1,1,0,0,1,1,1Z" fill="#fff" fill-rule="evenodd"/><rect width="6" height="1" transform="translate(1152.464 971.868)" fill="#fff"/><rect width="12" height="1" transform="translate(1152.464 973.868)" fill="#fff"/></g></g></svg>