<svg xmlns="http://www.w3.org/2000/svg" width="72" height="72.002" viewBox="0 0 72 72.002"><g transform="translate(-216 0.002)"><rect width="72" height="72" transform="translate(216)" fill="none"/><g transform="translate(216)"><path d="M1547,19363a35.893,35.893,0,1,1,14.014-2.83A35.77,35.77,0,0,1,1547,19363Zm6.812-42.582a.376.376,0,0,1,.392.209c.18.434-.418,1.459-1.067,2.107-2.742,2.742-7.234,7.021-10.924,10.4a2.368,2.368,0,0,0-.967,1.74,2.24,2.24,0,0,0,.865,1.59c2.11,1.785,6.993,4.977,9.34,6.512l.021.014c.653.428,1.057.691,1.146.758.372.3,2.811,1.93,4.646,1.93a2.673,2.673,0,0,0,.559-.059c1.746-.406,1.976-2.785,1.978-2.809.01-.064,1.353-8.545,2.6-16.332.239-1.59.473-3.1.7-4.566.557-3.611,1-6.463,1.07-7.506a2.37,2.37,0,0,0-.439-1.855,1.844,1.844,0,0,0-1.422-.521,4.979,4.979,0,0,0-1.574.3c-.077.033-8.133,3.338-10.506,4.369-5.1,2.121-18.361,7.576-23.828,9.822l-.416.17c-1.587.617-2.425,1.291-2.491,2s.714,1.217.722,1.221,3.656,1.254,6.764,2.188a8.66,8.66,0,0,0,2.474.389,4.756,4.756,0,0,0,2.313-.5c.053-.035,7.322-4.807,14.671-9.879C1552.087,19320.988,1553.223,19320.418,1553.811,19320.418Z" transform="translate(-1511 -19291)" fill="#fff"/></g></g></svg>