<svg xmlns="http://www.w3.org/2000/svg" xmlns:xlink="http://www.w3.org/1999/xlink" width="48" height="40" viewBox="0 0 48 40"><defs><clipPath id="b"><rect width="48" height="40"/></clipPath></defs><g id="a" clip-path="url(#b)"><path d="M1341.992,1164.96H1339.2v-5.12a2.21,2.21,0,0,0-2.185-2.23h-19.8l-4-5.72h-15.03a2.22,2.22,0,0,0-2.185,2.24v35.67a2.08,2.08,0,0,0,.417,1.28,2.011,2.011,0,0,0,1.63.83h35.807a2.041,2.041,0,0,0,1.96-1.48l8.18-22.9v-.14a2.173,2.173,0,0,0-1.9-2.42Zm-44.392-10.83a.594.594,0,0,1,.585-.6h14.2l4,5.71h20.625a.594.594,0,0,1,.586.6v5.12h-31.41a1.958,1.958,0,0,0-.342.03,2.019,2.019,0,0,0-1.618,1.45l-6.626,18.44Zm36.7,35.8a.455.455,0,0,1-.436.34H1298.05a.433.433,0,0,1-.358-.18.447.447,0,0,1-.1-.33l8.153-22.83a.455.455,0,0,1,.436-.34h35.81a.638.638,0,0,1,.4.67Zm-15.665-15.81a1,1,0,0,0-1.63.95v7.66a1,1,0,0,0,1.63.95l6.694-3.84a.992.992,0,0,0,0-1.88Z" transform="translate(-1296 -1151.89)" fill="#999" fill-rule="evenodd"/></g></svg>