<svg xmlns="http://www.w3.org/2000/svg" xmlns:xlink="http://www.w3.org/1999/xlink" width="48" height="40" viewBox="0 0 48 40"><defs><clipPath id="b"><rect width="48" height="40"/></clipPath></defs><g id="a" clip-path="url(#b)"><path d="M1341.992,1120.96H1339.2v-5.118a2.21,2.21,0,0,0-2.185-2.23h-19.8l-4-5.717h-15.03a2.212,2.212,0,0,0-2.185,2.23V1145.8a2.1,2.1,0,0,0,.417,1.286,2.021,2.021,0,0,0,1.63.822h35.807a2.037,2.037,0,0,0,1.96-1.48l8.186-22.9v-.144a2.173,2.173,0,0,0-1.9-2.416Zm-44.392-10.834a.592.592,0,0,1,.584-.6h14.2l4,5.716h20.625a.592.592,0,0,1,.586.6v5.12h-31.41a2.041,2.041,0,0,0-1.96,1.48l-6.626,18.442Zm36.7,35.806a.455.455,0,0,1-.436.34h-35.812a.44.44,0,0,1-.358-.18.449.449,0,0,1-.1-.334l8.153-22.824a.454.454,0,0,1,.436-.34h35.807a.635.635,0,0,1,.4.668ZM1322,1140.9v-2h7v2Zm0-7h7v2h-7Zm-9-5h16v2h-16Zm4,5h2v7h-6v-7Zm-2,5h2v-3h-2Z" transform="translate(-1296 -1107.895)" fill="#a0a0a0" fill-rule="evenodd"/></g></svg>