<svg xmlns="http://www.w3.org/2000/svg" xmlns:xlink="http://www.w3.org/1999/xlink" width="76" height="54" viewBox="0 0 76 54"><defs><clipPath id="b"><rect width="76" height="54"/></clipPath></defs><g id="a" clip-path="url(#b)"><path d="M1443.1,1350.308h-9.666a4.7,4.7,0,0,0,.9-2.754v-28.1a4.8,4.8,0,0,0-4.794-4.76h-21.24c.043-.046.093-.1.124-.132a2.983,2.983,0,0,0,.936-2.764c-.246-.8-2.554-7.86-2.806-8.535a2.619,2.619,0,0,0-3.4-1.168c-.063.023-6.27,2.435-6.778,4.58a17.24,17.24,0,0,0,.416,8.02h-12.345a4.789,4.789,0,0,0-4.77,4.76v28.1a4.694,4.694,0,0,0,.9,2.755h-9.667a1.9,1.9,0,0,0-1.905,1.9V1354a1.9,1.9,0,0,0,1.905,1.9h72.19A1.9,1.9,0,0,0,1445,1354v-1.792a1.9,1.9,0,0,0-1.9-1.9ZM1398,1307.045c.247-.743,3.75-2.648,5.724-3.375a1.643,1.643,0,0,1,.56-.107.787.787,0,0,1,.7.29c.236.63,2.54,7.68,2.773,8.44a1.636,1.636,0,0,1-.566,1.135c-.22.24-3.39,2.958-3.39,2.958a1,1,0,0,0-.25.962,54.39,54.39,0,0,0,8.178,14.328.993.993,0,0,0,.974.267c.032-.01,3.29-.888,4.12-1.078a2.573,2.573,0,0,1,.58-.07.892.892,0,0,1,.508.1c.6.64,5.47,6.207,5.822,6.632.058.1.058.544-.453.976-1.334,1.125-4.61,3.29-5.61,3.29a11.3,11.3,0,0,1-2.97-1.458c-4.238-2.935-8.12-8.658-10.845-13.435-3.4-5.965-7.18-14.246-5.853-19.858Zm-16.328,40.51v-28.1a2.8,2.8,0,0,1,2.793-2.753h12.44a58.328,58.328,0,0,0,5.073,11.113c5.19,9.09,10.275,14.438,15.143,15.905a1.883,1.883,0,0,0,.558.076c1.615,0,4.405-1.894,5.89-2.992.7-.508,1.164-.885,1.18-.9a2.594,2.594,0,0,0,.687-3.552c-.367-.438-5.295-6.077-5.908-6.73a1.9,1.9,0,0,0-.546-.394,3.424,3.424,0,0,0-2.607-.323c-.634.144-2.514.644-3.525.915a45.817,45.817,0,0,1-3.872-5.913,43.415,43.415,0,0,1-3.22-6.6l.6-.61h23.16a2.8,2.8,0,0,1,2.816,2.755v28.1a2.777,2.777,0,0,1-2.794,2.753H1384.47a2.777,2.777,0,0,1-2.793-2.754ZM1443,1353.9h-72v-1.58h72Z" transform="translate(-1369 -1301.9)" fill="#20a038"/></g></svg>