<svg xmlns="http://www.w3.org/2000/svg" xmlns:xlink="http://www.w3.org/1999/xlink" width="17" height="18" viewBox="0 0 17 18"><defs><clipPath id="b"><rect width="17" height="18"/></clipPath></defs><g id="a" clip-path="url(#b)"><path d="M552.75,139.167h-2.455a4.8,4.8,0,0,0,.7-.584,2.822,2.822,0,0,0,0-3.845,2.56,2.56,0,0,0-3.666,0c-.541.568-1.98,2.883-1.781,4.429h-.09c.2-1.546-1.24-3.861-1.781-4.429a2.561,2.561,0,0,0-3.667,0,2.826,2.826,0,0,0,0,3.845,4.889,4.889,0,0,0,.7.584h-2.46a1.282,1.282,0,0,0-1.25,1.308v3.267a.64.64,0,0,0,.625.654h.625v6.3a1.282,1.282,0,0,0,1.25,1.3h12a1.282,1.282,0,0,0,1.25-1.307v-6.3h.625a.64.64,0,0,0,.625-.654v-3.267a1.282,1.282,0,0,0-1.25-1.3Zm-11.856-3.508a1.291,1.291,0,0,1,1.893,0c.843.887,1.68,3.15,1.389,3.465a.4.4,0,0,1-.231.043,6.032,6.032,0,0,1-3.051-1.5,1.473,1.473,0,0,1,0-2.008Zm3.981,15.034H539.5v-6.3h5.375Zm0-7.6H538.25v-2.614h6.625Zm3.337-7.43a1.325,1.325,0,0,1,1.894,0,1.473,1.473,0,0,1,0,2,6.036,6.036,0,0,1-3.051,1.5.4.4,0,0,1-.233-.043c-.29-.311.548-2.574,1.39-3.461ZM551.5,150.7h-5.375v-6.3H551.5Zm1.25-7.6h-6.625v-2.614h6.625Z" transform="translate(-537 -133.965)" fill="#333" fill-rule="evenodd"/></g></svg>