<svg xmlns="http://www.w3.org/2000/svg" xmlns:xlink="http://www.w3.org/1999/xlink" width="59" height="56" viewBox="0 0 59 56"><defs><clipPath id="b"><rect width="59" height="56"/></clipPath></defs><g id="a" clip-path="url(#b)"><path d="M331.049,1602.186l-1.4-1.408,6.951-6.969,1.4,1.408ZM319.6,1579.574H307.878a4.931,4.931,0,0,0-3.4,1.346l-13.373,12.571a7.938,7.938,0,0,0,10.12-.362l2.641-2.351a.991.991,0,0,1,1.361.039l1.49,1.494a10.936,10.936,0,0,0,15.466.011l.011-.011,3.476-3.485,1.4,1.408-3.476,3.485a13.014,13.014,0,0,1-1.957,1.608l9.9,9.927a4.516,4.516,0,0,1-3.671,7.681h0a4.5,4.5,0,0,1-4.966,4.978,4.5,4.5,0,0,1-4.965,4.979,4.5,4.5,0,0,1-7.647,3.7l-.013-.013-1.781-1.785-1.78,1.785a4.49,4.49,0,0,1-7.638-3.706,4.879,4.879,0,0,1-.512.048,4.476,4.476,0,0,1-4.453-5.027,4.632,4.632,0,0,1-.512.049,4.476,4.476,0,0,1-4.453-5.027,4.657,4.657,0,0,1-.513.049,4.514,4.514,0,0,1-3.184-7.707l1.78-1.785L279,1595.212l1.4-1.408,8.256,8.279a4.467,4.467,0,0,1,7.411,3.891,4.459,4.459,0,0,1,4.966,4.978A4.46,4.46,0,0,1,306,1615.93a4.479,4.479,0,0,1,3.882,7.432l1.8,1.806a2.577,2.577,0,0,0,3.561,0,2.532,2.532,0,0,0,0-3.571l-2.483-2.489,1.4-1.408,2.482,2.489a2.575,2.575,0,0,0,3.561,0,2.531,2.531,0,0,0,0-3.57l-2.482-2.489,1.4-1.408,2.482,2.489a2.577,2.577,0,0,0,3.561,0,2.53,2.53,0,0,0,0-3.57l-2.482-2.489,1.4-1.409,2.483,2.49a2.522,2.522,0,0,0,3.561-3.57l-10.309-10.338a12.874,12.874,0,0,1-14.517-2.609l-.829-.829-1.939,1.728a9.92,9.92,0,0,1-13.618-.4l-.021-.023a1,1,0,0,1,.044-1.407l14.168-13.319a6.918,6.918,0,0,1,4.755-1.886h11.718a.991.991,0,0,0,.7-.292l5.376-5.39,1.406,1.408-5.376,5.39A2.957,2.957,0,0,1,319.6,1579.574Zm-26.2,24.158a2.514,2.514,0,0,0-3.555-.063l-.006.006-2.979,2.988a2.521,2.521,0,0,0,3.561,3.57l2.979-2.988A2.529,2.529,0,0,0,293.4,1603.732Zm4.965,4.978a2.514,2.514,0,0,0-3.555-.062l-.006.006-2.979,2.987a2.521,2.521,0,0,0,3.561,3.57l2.979-2.987A2.528,2.528,0,0,0,298.364,1608.71Zm4.965,4.979a2.512,2.512,0,0,0-3.553-.064l-.008.007-2.979,2.987a2.521,2.521,0,0,0,3.56,3.571h0l2.979-2.987A2.527,2.527,0,0,0,303.329,1613.689Zm4.966,4.978a2.515,2.515,0,0,0-3.555-.063l-.006.006-2.979,2.987a2.522,2.522,0,0,0,3.555,3.577l.006-.006,2.979-2.987A2.53,2.53,0,0,0,308.3,1618.667Zm-13-39.969-5.377-5.39,1.4-1.408,5.376,5.39a.991.991,0,0,0,.7.292h3.149v1.992h-3.149A2.953,2.953,0,0,1,295.3,1578.7Z" transform="translate(-279 -1571.9)" fill="#20a038" fill-rule="evenodd"/></g></svg>