<svg xmlns="http://www.w3.org/2000/svg" xmlns:xlink="http://www.w3.org/1999/xlink" width="24" height="27" viewBox="0 0 24 27"><defs><clipPath id="b"><rect width="24" height="27"/></clipPath></defs><g id="a" clip-path="url(#b)"><path d="M883.662,658.73l-1.315,1.67a9.724,9.724,0,0,1,3.692,9.23,9.856,9.856,0,0,1-19.477-3.03,9.7,9.7,0,0,1,3.936-6.38,9.9,9.9,0,0,1,6.344-1.86l-1.852,1.93,1.374,1.3,2.922-3.04,1.309-1.36-1.372-1.3L876.156,653l-1.31,1.36,2,1.88a12.026,12.026,0,0,0-7.607,2.27,11.779,11.779,0,0,0-4.79,7.76,12,12,0,1,0,19.213-7.54Z" transform="translate(-864.291 -653)" fill="#fff" fill-rule="evenodd"/></g></svg>