<svg xmlns="http://www.w3.org/2000/svg" xmlns:xlink="http://www.w3.org/1999/xlink" width="16" height="16" viewBox="0 0 16 16"><defs><clipPath id="b"><rect width="16" height="16"/></clipPath></defs><g id="a" clip-path="url(#b)"><path d="M273,618a8,8,0,1,1-8,8A8,8,0,0,1,273,618Zm-.015,1a7,7,0,1,1-7,7A7,7,0,0,1,272.985,619Zm-.455,10.94h1.28v-4h-1.28Zm-.024-5.824a.871.871,0,0,0,.632.24.959.959,0,0,0,.656-.24.775.775,0,0,0,.272-.607.848.848,0,0,0-.272-.632.906.906,0,0,0-.656-.265.826.826,0,0,0-.632.265.885.885,0,0,0-.248.632.806.806,0,0,0,.248.608Z" transform="translate(-265 -618)" fill="#fff" fill-rule="evenodd"/></g></svg>