<svg xmlns="http://www.w3.org/2000/svg" width="72" height="72" viewBox="0 0 72 72"><g transform="translate(-360)"><rect width="72" height="72" transform="translate(360)" fill="none"/><g transform="translate(247.044 -10.627)"><path d="M112.956,82.451c1.95-6.3,4.21-12.282,6.277-18.462-13.7-23.958,3.254-50.929,26.215-53.169C167.127,8.7,184.9,24.276,184.956,45.528c.057,22.424-21.691,41.253-46.154,33.6-1.845-.577-4.129-2.458-6.277-2.585-3-.177-6.938,1.979-9.969,2.954C119.233,80.566,116.343,81.637,112.956,82.451ZM133.264,69.9c19.754,11.989,43.409-1.458,45.415-21.046a29.071,29.071,0,0,0-31.385-32.123c-21.739,1.583-34.8,27.533-21.415,46.523q-1.777,4.869-3.323,9.969C126.183,72.17,129.526,70.836,133.264,69.9Z" fill="#fff" fill-rule="evenodd"/><path d="M173.362,59.489c2.078,4.346,5.292,10.775,0,13.662a24.785,24.785,0,0,0,12.923,12.185c1.926-1.274,3.191-3.209,4.8-4.8a42.218,42.218,0,0,1,9.23,4.8c.28,6.352-5.072,8.7-9.6,8.492-9.551-.439-22.679-12.506-25.846-21.415C162.99,67.125,165.152,57.015,173.362,59.489Z" transform="translate(-32.345 -30.576)" fill="#fff" fill-rule="evenodd"/></g></g></svg>