<svg xmlns="http://www.w3.org/2000/svg" width="14" height="24"><defs><clipPath id="a"><path d="M0 0H14V24H0z"/></clipPath></defs><g clip-path="url(#a)"><path d="M13.213 0H9.99a5.561 5.561 0 0 0-5.963 5.906V8.63H.786a.5.5 0 0 0-.507.49v3.946a.5.5 0 0 0 .507.49h3.241v9.956a.5.5 0 0 0 .507.49h4.23a.5.5 0 0 0 .506-.49v-9.956h3.789a.5.5 0 0 0 .507-.49V9.12a.484.484 0 0 0-.149-.347.51.51 0 0 0-.358-.143H9.268V6.321c0-1.11.274-1.673 1.771-1.673h2.172a.5.5 0 0 0 .506-.49V.495A.5.5 0 0 0 13.213 0z" fill="#fff"/></g></svg>