<svg xmlns="http://www.w3.org/2000/svg" xmlns:xlink="http://www.w3.org/1999/xlink" width="18" height="18" viewBox="0 0 18 18"><defs><clipPath id="b"><rect width="18" height="18"/></clipPath></defs><g id="a" clip-path="url(#b)"><path d="M1342.359,1086.536a8.951,8.951,0,0,0-3.421-2.145,5.2,5.2,0,1,0-5.888,0,9.012,9.012,0,0,0-6.057,8.509h1.406a7.595,7.595,0,0,1,15.19,0h1.406A8.941,8.941,0,0,0,1342.359,1086.536Zm-6.365-2.636a3.8,3.8,0,1,1,3.8-3.8A3.8,3.8,0,0,1,1335.994,1083.9Z" transform="translate(-1326.993 -1074.9)" fill="#333" fill-rule="evenodd"/></g></svg>