<svg xmlns="http://www.w3.org/2000/svg" xmlns:xlink="http://www.w3.org/1999/xlink" width="32" height="32" viewBox="0 0 32 32"><defs><clipPath id="b"><rect width="32" height="32"/></clipPath></defs><g id="a" clip-path="url(#b)"><g transform="translate(-1564 -1571.9)"><path d="M1576.758,1594.543a1,1,0,0,1-1-1v-11.286a1,1,0,0,1,1.509-.861l9.542,5.643a1,1,0,0,1,0,1.721l-9.542,5.643A1,1,0,0,1,1576.758,1594.543Zm1-10.533v7.78l6.578-3.89Z" fill="#fff"/><path d="M15-1A16,16,0,0,1,26.314,26.314,16,16,0,0,1,3.686,3.686,15.9,15.9,0,0,1,15-1Zm0,30A14,14,0,0,0,24.9,5.1,14,14,0,1,0,5.1,24.9,13.908,13.908,0,0,0,15,29Z" transform="translate(1565 1572.9)" fill="#fff"/></g></g></svg>