<svg xmlns="http://www.w3.org/2000/svg" xmlns:xlink="http://www.w3.org/1999/xlink" width="10" height="12" viewBox="0 0 10 12"><defs><clipPath id="b"><rect width="10" height="12"/></clipPath></defs><g id="a" clip-path="url(#b)"><path d="M1199.76,1001.592a.828.828,0,0,0-.59-.239h-.28v-1.636a3.622,3.622,0,0,0-1.15-2.693,3.9,3.9,0,0,0-5.48,0,3.622,3.622,0,0,0-1.15,2.693v1.636h-.28a.828.828,0,0,0-.59.239.787.787,0,0,0-.24.58v4.909a.783.783,0,0,0,.24.579.828.828,0,0,0,.59.239h8.34a.828.828,0,0,0,.59-.239.783.783,0,0,0,.24-.579v-4.909A.787.787,0,0,0,1199.76,1001.592Zm-2.54-.239h-4.44v-1.636a2.057,2.057,0,0,1,.65-1.542,2.246,2.246,0,0,1,3.14,0,2.1,2.1,0,0,1,.65,1.542Z" transform="translate(-1190 -995.899)" fill="#fff" fill-rule="evenodd"/></g></svg>