<svg xmlns="http://www.w3.org/2000/svg" xmlns:xlink="http://www.w3.org/1999/xlink" width="18" height="18" viewBox="0 0 18 18"><defs><clipPath id="b"><rect width="18" height="18"/></clipPath></defs><g id="a" clip-path="url(#b)"><path d="M1324.93,1376.665a.766.766,0,0,0-.609-.54l-5.295-.812-2.37-5.039a.768.768,0,0,0-1.354,0l-2.37,5.04-5.286.812a.762.762,0,0,0-.609.54.822.822,0,0,0,.191.813l3.824,3.922-.9,5.541a.811.811,0,0,0,.3.776.728.728,0,0,0,.8.059l4.73-2.614,4.738,2.615a.725.725,0,0,0,.8-.061.816.816,0,0,0,.3-.778l-.906-5.539,3.831-3.922A.815.815,0,0,0,1324.93,1376.665Zm-5.362,3.891a.82.82,0,0,0-.216.7l.715,4.366-3.735-2.062a.734.734,0,0,0-.7,0l-3.729,2.06.709-4.367a.814.814,0,0,0-.217-.7l-3.016-3.092,4.167-.641a.758.758,0,0,0,.568-.433l1.869-3.972,1.869,3.972a.762.762,0,0,0,.568.433l4.172.641Z" transform="translate(-1306.968 -1369.868)" fill="#fff" fill-rule="evenodd"/></g></svg>