<svg xmlns="http://www.w3.org/2000/svg" xmlns:xlink="http://www.w3.org/1999/xlink" width="48" height="48" viewBox="0 0 48 48"><defs><clipPath id="b"><rect width="48" height="48"/></clipPath></defs><g id="a" clip-path="url(#b)"><path d="M1055,1491v20.5l1.8,2a4.374,4.374,0,0,0,3.3,1.4h20.2c3.5,0,5.5-1.7,6-4.9l2.6-17.4a4.689,4.689,0,0,0-1.8-4.6,4.109,4.109,0,0,0-2.6-.9h-12V1477c0-2.6-.7-4.3-2-5.3a5.494,5.494,0,0,0-4.3-.7v8a11,11,0,0,1-5,9l-.2.2a17.8,17.8,0,0,1-4.6,2.3l-.2.2h-.2Zm-1-.1-.5-.9H1045v24.1h8.4l.6-2.6Zm1,24c0,.7-.4,1-1.1,1.2h-9.2a1.685,1.685,0,0,1-1.7-1.7v-24.7a1.685,1.685,0,0,1,1.7-1.7h9a1.508,1.508,0,0,1,1.4.9l.5-.2a19.576,19.576,0,0,0,4.4-2.2,9,9,0,0,0,4.2-7.5v-8.8a1.1,1.1,0,0,1,.6-1c.2,0,4-1.2,7,1,1.7,1.3,2.6,3.6,2.6,6.8v8.1h10a7.068,7.068,0,0,1,4,1.3,6.628,6.628,0,0,1,2.5,6.5l-2.7,17.4c-.5,4.2-3.4,6.6-7.9,6.6h-20.2C1057,1516.9,1056,1515.9,1055,1514.9Z" transform="translate(-1043 -1468.873)" fill="#20a038"/></g></svg>