<svg xmlns="http://www.w3.org/2000/svg" xmlns:xlink="http://www.w3.org/1999/xlink" width="25" height="32" viewBox="0 0 25 32"><defs><clipPath id="b"><rect width="25" height="32"/></clipPath></defs><g id="a" clip-path="url(#b)"><path d="M1485.66,1573.7a.572.572,0,0,1,.54.6v27.2a.572.572,0,0,1-.54.6h-20.32a.572.572,0,0,1-.54-.6v-21.67l5.99-6.13Zm0-1.8h-15.63l-7.03,7.2v22.4a2.37,2.37,0,0,0,2.34,2.4h20.32a2.37,2.37,0,0,0,2.34-2.4h0v-27.2a2.37,2.37,0,0,0-2.34-2.4Zm-20.88,9.8h6.3a2.34,2.34,0,0,0,2.31-2.36v-5.64h-1.43v5.64a.883.883,0,0,1-.876.89h-6.3Zm10.73,2.2a6.5,6.5,0,1,1-6.5,6.5A6.5,6.5,0,0,1,1475.51,1583.9Zm-1.16,8.99a.258.258,0,0,1-.17-.05.37.37,0,0,1-.18-.32v-4.25a.386.386,0,0,1,.18-.33.321.321,0,0,1,.34.01l3.31,2.12a.4.4,0,0,1,0,.65l-3.31,2.12A.258.258,0,0,1,1474.35,1592.89Z" transform="translate(-1463 -1571.9)" fill="#20a038" fill-rule="evenodd"/></g></svg>