<svg xmlns="http://www.w3.org/2000/svg" xmlns:xlink="http://www.w3.org/1999/xlink" width="40" height="40" viewBox="0 0 40 40"><defs><clipPath id="b"><rect width="40" height="40"/></clipPath></defs><g id="a" clip-path="url(#b)"><path d="M39.04,22.283l-7.57,7.44V40H3.94V36.126H0V0H27.54V3.874h3.93V20.6l2.93-2.882a3.36,3.36,0,0,1,4.64,0,3.2,3.2,0,0,1,0,4.565ZM26.23,1.29H1.31V34.842H3.94V3.872H26.23V1.292Zm3.93,3.867H5.25v33.55h24.9v-7.7l-6.09,6.01-5.8,1.14,1.16-5.7L30.16,21.89V5.16ZM23.74,35.51l1.86-1.826-2.79-2.74-1.85,1.827Zm-3.31-1.432-.5,2.433,2.48-.486Zm3.31-4.048,2.78,2.74L37.64,21.82l-2.78-2.74ZM38.11,18.637a2.042,2.042,0,0,0-2.23-.37l2.61,2.56A1.882,1.882,0,0,0,38.11,18.637Zm-6.95,7.748-.93-.913,4.63-4.56.93.913ZM7.87,25.8H22.95v1.292H7.87V25.8Zm0-4.512H27.54v1.292H7.87V21.29Zm10.49-4.52h9.18v1.292H18.36v-1.29Zm0-4.51h9.18v1.29H18.36Zm0-4.52h9.18V9.03H18.36V7.74Zm-10.49,0h7.87V18.06H7.87V7.74Zm1.32,9.03h5.24V9.03H9.19v7.74Zm7.85,18.072H7.87v-1.29h9.17v1.29Z" fill="#128f3a" fill-rule="evenodd"/></g></svg>