<svg xmlns="http://www.w3.org/2000/svg" xmlns:xlink="http://www.w3.org/1999/xlink" width="12" height="12" viewBox="0 0 12 12"><defs><clipPath id="b"><rect width="12" height="12"/></clipPath></defs><g id="a" clip-path="url(#b)"><path d="M268.817,538.256l1.157,2.083,2,1.992-2.76-.543h-2.225v2.536h2.225l2.582-.544-1.87,1.9-1.2,1.9,2.225,1.267,1.113-1.9.845-2.626,1.024,2.762,1.157,1.9,2.092-1.268-1.024-1.766-2.047-2.173,2.848.544h2.048v-2.536H276.87l-3.026.543,2.047-2.173,1.157-1.947-2.136-1.177-1.068,1.811-.935,2.581-.8-2.536-1.113-1.9Z" transform="translate(-267.007 -536.986)" fill="#fff" fill-rule="evenodd"/></g></svg>