<svg xmlns="http://www.w3.org/2000/svg" xmlns:xlink="http://www.w3.org/1999/xlink" width="40" height="34" viewBox="0 0 40 34"><defs><clipPath id="b"><rect width="40" height="34"/></clipPath></defs><g id="a" clip-path="url(#b)"><path d="M1042.35,579.578a.653.653,0,0,1-.4-.141l-.33-.267v19.508h.73a.66.66,0,0,1,0,1.32h-38.7a.66.66,0,0,1,0-1.32h.73v-6.834l-.33.267a.645.645,0,0,1-1.05-.518v-3.521a.651.651,0,0,1,.25-.518l8.47-6.8a1.99,1.99,0,0,1,2.51,0l6.05,4.851V579.17l-.33.267a.65.65,0,0,1-.69.075.662.662,0,0,1-.36-.594V575.4a.678.678,0,0,1,.24-.519l2.52-2.02v-4.5a.654.654,0,0,1,.65-.659h2.76a.654.654,0,0,1,.65.659V569.6l3.97-3.187a1.993,1.993,0,0,1,2.51,0l10.55,8.467a.656.656,0,0,1,.25.519v3.52a.662.662,0,0,1-.36.594.649.649,0,0,1-.29.065Zm-16.63,19.1h2.85v-3.611h-.04a.654.654,0,0,1-.46-.193.668.668,0,0,1,0-.933.647.647,0,0,1,.46-.194h.04V590.14h-2.85v8.538Zm-4.15,0h2.86v-9.2a.653.653,0,0,1,.64-.66h4.15a.655.655,0,0,1,.65.66v9.2h10.45V578.129l-9.37-7.524-9.38,7.524v20.549Zm-11.75,0h6.31v-1.5h-6.31Zm0-2.817h6.31v-1.5h-6.31Zm0-2.816h6.31v-1.5h-6.31Zm-4.14,5.633h2.85v-7.79a.654.654,0,0,1,.65-.659h7.6a.654.654,0,0,1,.65.659v7.79h2.85V590.8l-7.3-5.859-7.3,5.859v7.875Zm7.75-16.89a.723.723,0,0,0-.91,0l-8.22,6.6v1.84l8.28-6.647a.635.635,0,0,1,.8,0l6.9,5.537v-1.839Zm11-12.771h-1.47v2.8l1.47-1.179v-1.622Zm17.27,6.7-10.3-8.269a.725.725,0,0,0-.91,0l-10.3,8.269v1.84l10.36-8.312a.626.626,0,0,1,.4-.141.647.647,0,0,1,.4.141l10.35,8.312Zm-12.48,10.2h-4.15a.652.652,0,0,1-.64-.659v-5.633a.653.653,0,0,1,.64-.661h4.15a.655.655,0,0,1,.65.661v5.633a.654.654,0,0,1-.65.657Zm-.65-5.633h-2.85v.793h2.85Zm0,2.113h-2.85v2.2h2.85Zm4.11-3.433h4.14a.655.655,0,0,1,.65.661v5.633a.654.654,0,0,1-.65.659h-4.14a.654.654,0,0,1-.65-.659v-5.633a.655.655,0,0,1,.65-.663Zm.64,5.634h2.85v-2.2h-2.85Zm0-3.521h2.85v-.793h-2.85Zm-.64,7.745h4.14a.655.655,0,0,1,.65.66v5.633a.654.654,0,0,1-.65.66h-4.14a.654.654,0,0,1-.65-.66V589.48a.655.655,0,0,1,.65-.66Zm.64,5.633h2.85v-2.2h-2.85Zm0-3.52h2.85v-.795h-2.85v.793Z" transform="translate(-1002.99 -565.968)" fill="#20a038" fill-rule="evenodd"/></g></svg>