<svg xmlns="http://www.w3.org/2000/svg" xmlns:xlink="http://www.w3.org/1999/xlink" width="20" height="13" viewBox="0 0 20 13"><defs><clipPath id="b"><rect width="20" height="13"/></clipPath></defs><g id="a" clip-path="url(#b)"><path d="M12.813.2a.687.687,0,0,0-.959,0,.645.645,0,0,0,0,.923l4.862,4.723H.671A.658.658,0,0,0,0,6.5a.665.665,0,0,0,.671.662H16.716l-4.862,4.715a.655.655,0,0,0,0,.931.685.685,0,0,0,.959,0l6.013-5.841a.63.63,0,0,0,0-.923Z" transform="translate(0.486 -0.004)" fill="#fff" fill-rule="evenodd"/></g></svg>