<svg xmlns="http://www.w3.org/2000/svg" width="72.003" height="72.002" viewBox="0 0 72.003 72.002"><g transform="translate(-143.998 0.002)"><rect width="72" height="72" transform="translate(144)" fill="none"/><g transform="translate(144)"><path d="M1620.44,19363h-2.882c-16.271,0-24.438,0-29.5-5.062s-5.063-13.227-5.063-29.5v-2.881c0-16.268,0-24.434,5.063-29.5s13.226-5.062,29.5-5.062h2.882c16.271,0,24.438,0,29.5,5.063s5.064,13.23,5.064,29.5v2.881c0,16.271,0,24.439-5.064,29.5S1636.711,19363,1620.44,19363Zm1.8-30.838h0c5.726.566,10.485,4.672,12.42,10.711h8.524a23.743,23.743,0,0,0-5.605-10.037,22.572,22.572,0,0,0-6.728-4.994,22.937,22.937,0,0,0,6.222-5.557,21.382,21.382,0,0,0,4.308-9.385h-7.741a19.474,19.474,0,0,1-4.55,7.963,11.644,11.644,0,0,1-6.85,3.889V19312.9H1614.5v20.76a12.43,12.43,0,0,1-7.265-5.678,22.157,22.157,0,0,1-2.689-6.211,36.6,36.6,0,0,1-1.179-8.871h-8.217a44.127,44.127,0,0,0,1.944,12.582,26.99,26.99,0,0,0,5.128,9.426,21.905,21.905,0,0,0,8.132,5.916,28.1,28.1,0,0,0,10.956,2.049h.928v-10.711Z" transform="translate(-1583 -19291)" fill="#fff"/></g></g></svg>