<svg xmlns="http://www.w3.org/2000/svg" xmlns:xlink="http://www.w3.org/1999/xlink" width="14" height="16" viewBox="0 0 14 16"><defs><clipPath id="b"><rect width="14" height="16"/></clipPath></defs><g id="a" clip-path="url(#b)"><path d="M11.055,4.87a6.158,6.158,0,0,0,.8-.68,3.516,3.516,0,0,0,.983-1.83,2.046,2.046,0,0,0-.5-1.82A1.878,1.878,0,0,0,10.973,0a3.266,3.266,0,0,0-2.24,1.03,8.93,8.93,0,0,0-1.97,3.54A7.27,7.27,0,0,0,5.1,1.18,2.48,2.48,0,0,0,3.358.41,1.846,1.846,0,0,0,2.04.94a2.23,2.23,0,0,0,.237,3.1,5.092,5.092,0,0,0,1.1.83H0V8.92H1V16H13V8.92h1V4.87ZM9.535,1.84a2.15,2.15,0,0,1,1.447-.7.786.786,0,0,1,.57.2c.407.42.178,1.37-.49,2.04A6.894,6.894,0,0,1,8.65,4.87H7.858A7.745,7.745,0,0,1,9.536,1.84Zm-6.88.51a.763.763,0,0,1,.19-.6.693.693,0,0,1,.522-.2,1.394,1.394,0,0,1,.952.43,5.676,5.676,0,0,1,1.26,2.47l.022.09-.086-.03A5.61,5.61,0,0,1,3.08,3.24,1.47,1.47,0,0,1,2.655,2.35ZM6,14.99H2V8.41H6ZM6,7.91H1V5.88H6Zm6,7.08H8V8.41h4Zm1-7.08H8V5.88h5Z" transform="translate(0 0.001)" fill="#fff" fill-rule="evenodd"/></g></svg>