<svg xmlns="http://www.w3.org/2000/svg" xmlns:xlink="http://www.w3.org/1999/xlink" width="21" height="18" viewBox="0 0 21 18"><defs><clipPath id="b"><rect width="21" height="18"/></clipPath></defs><g id="a" clip-path="url(#b)"><path d="M1849.042,1157.013h19.516a.742.742,0,0,0,.742-.742v-13.49a.743.743,0,0,0-.725-.759H1862.9v-2.276a.742.742,0,0,0-.725-.759h-6.709a.742.742,0,0,0-.742.742v2.312h-5.679a.742.742,0,0,0-.742.742v13.49A.762.762,0,0,0,1849.042,1157.013Zm7.162-16.508h5.21v1.536h-5.21Zm-6.421,3.035h5.5a.5.5,0,0,0,.163.018.509.509,0,0,0,.163-.018h6.366a.5.5,0,0,0,.163.018.506.506,0,0,0,.163-.018h5.5v5.219h-4.9v-.907a.742.742,0,1,0-1.483-.054.5.5,0,0,0,0,.054v.907h-5.21v-.907a.742.742,0,1,0-1.483-.054.5.5,0,0,0,0,.054v.907h-4.938Zm0,6.736h4.938v.852a.742.742,0,0,0,1.483,0v-.852h5.21v.852a.742.742,0,0,0,1.483,0v-.852h4.938v5.22h-18.052Z" transform="translate(-1848.3 -1138.987)" fill="#333" fill-rule="evenodd"/></g></svg>