<svg xmlns="http://www.w3.org/2000/svg" xmlns:xlink="http://www.w3.org/1999/xlink" width="60" height="52" viewBox="0 0 60 52"><defs><clipPath id="b"><rect width="60" height="52"/></clipPath></defs><g id="a" clip-path="url(#b)"><path d="M59,7.405H49.852A9.713,9.713,0,0,0,40.442,0H22.96a9.832,9.832,0,0,0-9.725,9.78V21.352H1a1,1,0,0,0-1,1V37.67a1,1,0,0,0,1,1H13.237v3.553A9.766,9.766,0,0,0,22.971,52h17.48a9.83,9.83,0,0,0,9.726-9.777v-17.5H59a1,1,0,0,0,1-1V8.4a1,1,0,0,0-1-1ZM15.237,9.78A7.823,7.823,0,0,1,22.971,2h17.46A7.732,7.732,0,0,1,47.785,7.4H23.318a1,1,0,0,0-1,1V21.352h-7.08V9.78ZM2,23.352H22.387v.374a1,1,0,0,0,1,1h4.125l.006,5.49a1,1,0,0,0,.6.915.977.977,0,0,0,.354.075c.016,0,.03.01.047.01a.622.622,0,0,0,.065-.013,1.034,1.034,0,0,0,.222-.04c.036-.013.07-.02.1-.034a1.013,1.013,0,0,0,.286-.18l6.34-5.885v11.61H31.415a1,1,0,0,0-1,1l0,4.132-5.242-4.864a1,1,0,0,0-.68-.267H2V23.355Zm46.175,18.87A7.822,7.822,0,0,1,40.438,50H22.972a7.765,7.765,0,0,1-7.734-7.777V38.67h8.788l6.7,6.223a.976.976,0,0,0,.7.258.272.272,0,0,0,.053.013.14.14,0,0,0,.035-.01.257.257,0,0,0,.04-.007.98.98,0,0,0,.324-.066,1,1,0,0,0,.6-.917l0-5.49h4.124a1,1,0,0,0,1-1V24.724H48.18v17.5h0ZM58,22.726H35.51a1,1,0,0,0-.68.267l-5.314,4.932,0-4.2a1,1,0,0,0-1-1H24.39V9.407H58v13.32Z" fill="#999"/></g></svg>