<svg xmlns="http://www.w3.org/2000/svg" xmlns:xlink="http://www.w3.org/1999/xlink" width="22" height="18" viewBox="0 0 22 18"><defs><clipPath id="b"><rect width="22" height="18"/></clipPath></defs><g id="a" clip-path="url(#b)"><path d="M690,159h-1v-1h1a1,1,0,0,0,1-1V146a1,1,0,0,0-1-1H675a1,1,0,0,0-1,1v1h13a2,2,0,0,1,2,2v11a2,2,0,0,1-2,2H672a2,2,0,0,1-2-2V149a2,2,0,0,1,2-2h1v-1a2,2,0,0,1,2-2h15a2,2,0,0,1,2,2v11A2,2,0,0,1,690,159Zm-19,1a1,1,0,0,0,1,1h15a1,1,0,0,0,1-1v-8H671Zm1-12a1,1,0,0,0-1,1v2h17v-2a1,1,0,0,0-1-1Zm1,9h12v1H673Zm0-2h6v1h-6Z" transform="translate(-670 -144)" fill="#fff" fill-rule="evenodd"/></g></svg>