<svg xmlns="http://www.w3.org/2000/svg" xmlns:xlink="http://www.w3.org/1999/xlink" width="25" height="32" viewBox="0 0 25 32"><defs><clipPath id="b"><rect width="25" height="32"/></clipPath></defs><g id="a" clip-path="url(#b)"><path d="M1456.66,1573.7a.572.572,0,0,1,.54.6v27.2a.572.572,0,0,1-.54.6h-20.32a.572.572,0,0,1-.54-.6v-21.67l5.99-6.13Zm0-1.8h-15.63l-7.03,7.2v22.4a2.37,2.37,0,0,0,2.34,2.4h20.32a2.37,2.37,0,0,0,2.34-2.4h0v-27.2a2.37,2.37,0,0,0-2.34-2.4Zm-20.88,9.8h6.3a2.34,2.34,0,0,0,2.31-2.36v-5.64h-1.43v5.64a.883.883,0,0,1-.876.89h-6.3Zm6.22,5.2h9a1,1,0,0,1,0,2h-9a1,1,0,0,1,0-2Zm0,5h9a1,1,0,0,1,0,2h-9a1,1,0,0,1,0-2Z" transform="translate(-1434 -1571.9)" fill="#20a038" fill-rule="evenodd"/></g></svg>