<svg xmlns="http://www.w3.org/2000/svg" xmlns:xlink="http://www.w3.org/1999/xlink" width="43" height="39" viewBox="0 0 43 39"><defs><clipPath id="b"><rect width="43" height="39"/></clipPath></defs><g id="a" clip-path="url(#b)"><path d="M42,14.64a1,1,0,0,0,1-1V3.89A3.888,3.888,0,0,0,39.17,0H3.83A3.888,3.888,0,0,0,0,3.89v9.78a1,1,0,0,0,1,1,4.86,4.86,0,0,1,0,9.72,1,1,0,0,0-1,1v9.78A3.888,3.888,0,0,0,3.83,39H39.17A3.888,3.888,0,0,0,43,35.11V25.33a1,1,0,0,0-1-1,4.86,4.86,0,1,1,0-9.72ZM35.33,19.5a6.8,6.8,0,0,0,5.75,6.74v8.88a1.94,1.94,0,0,1-1.92,1.93H3.83a1.94,1.94,0,0,1-1.92-1.93V26.24a6.82,6.82,0,0,0,0-13.47V3.87A1.94,1.94,0,0,1,3.83,1.94H39.17a1.94,1.94,0,0,1,1.92,1.93v8.88a6.8,6.8,0,0,0-5.76,6.75Z" fill="#128f3a"/><path d="M27.84,10.9a1.054,1.054,0,0,0-1.36.24L14.74,26.89A.822.822,0,0,0,15,28.1a1.059,1.059,0,0,0,.54.15,1,1,0,0,0,.82-.39L28.11,12.11a.822.822,0,0,0-.27-1.21Zm-7.39,4.22a4.19,4.19,0,0,0-3.91-4.38,4.19,4.19,0,0,0-3.91,4.38,4.19,4.19,0,0,0,3.91,4.38,4.19,4.19,0,0,0,3.91-4.38Zm-5.87,0c0-1.42.9-2.63,2-2.63s2,1.2,2,2.63-.9,2.63-2,2.63-2.01-1.2-2.01-2.63h.01ZM26.32,19.5a4.19,4.19,0,0,0-3.91,4.37,4.19,4.19,0,0,0,3.91,4.38,4.189,4.189,0,0,0,3.92-4.38A4.189,4.189,0,0,0,26.32,19.5Zm0,7c-1.06,0-2-1.2-2-2.63s.9-2.63,2-2.63,2,1.2,2,2.63S27.38,26.5,26.32,26.5Z" fill="#128f3a"/></g></svg>