<svg xmlns="http://www.w3.org/2000/svg" xmlns:xlink="http://www.w3.org/1999/xlink" width="100" height="100" viewBox="0 0 100 100"><defs><clipPath id="b"><rect width="100" height="100"/></clipPath></defs><g id="a" clip-path="url(#b)"><path d="M976.724,1392.1a29.965,29.965,0,0,0-59.455,0,50,50,0,1,1,59.455,0ZM947,1332.9a13.509,13.509,0,1,0,12.989,14.009c.007-.17.01-.34.01-.51A13.254,13.254,0,0,0,947,1332.9Zm0,25a11.51,11.51,0,1,1,10.988-12.01c.007.17.011.341.011.511A11.272,11.272,0,0,1,947,1357.9Zm0,10a28.114,28.114,0,0,1,27.868,25.519,50.033,50.033,0,0,1-55.736,0A28.114,28.114,0,0,1,947,1367.9Z" transform="translate(-896.996 -1301.895)" fill="#ccc" fill-rule="evenodd"/></g></svg>