<svg xmlns="http://www.w3.org/2000/svg" xmlns:xlink="http://www.w3.org/1999/xlink" width="18" height="20" viewBox="0 0 18 20"><defs><clipPath id="b"><rect width="18" height="20"/></clipPath></defs><g id="a" clip-path="url(#b)"><path d="M12.68,6.9l-1.51-.057-.33,9.269,1.51.057L12.68,6.9ZM8.24,6.872H9.76v9.269H8.24V6.872Zm-1.08,9.24L6.83,6.843,5.32,6.9l.33,9.269ZM0,2.494V4.108H1.58L2.83,19.264A.777.777,0,0,0,3.58,20H14.39a.786.786,0,0,0,.76-.736L16.4,4.108H18V2.494H0ZM13.7,18.386H4.27L3.09,4.108H14.88L13.7,18.386ZM11.55,0H6.45a1.306,1.306,0,0,0-1.3,1.292v1.2H6.71V1.547h4.58v.947h1.56v-1.2A1.306,1.306,0,0,0,11.55,0Z" fill="#128f3a" fill-rule="evenodd"/></g></svg>