<svg xmlns="http://www.w3.org/2000/svg" xmlns:xlink="http://www.w3.org/1999/xlink" width="100" height="100" viewBox="0 0 100 100"><defs><clipPath id="b"><rect width="100" height="100"/></clipPath></defs><g id="a" clip-path="url(#b)"><path d="M50,0a50,50,0,1,0,50,50A50.239,50.239,0,0,0,50,0ZM40.36,58.6H38.24v3.82H35.07V58.6H24.27V55.94q2.051-4.541,4.12-9.14l4.12-9.18h3.31L27.76,55.79h7.31V48.38h3.17V55.8h2.12v2.8Zm17.5-2.38a5.437,5.437,0,0,1-.66,2.7,6.353,6.353,0,0,1-1.74,2A8.143,8.143,0,0,1,53,62.17a8.812,8.812,0,0,1-2.71.43,9.01,9.01,0,0,1-2.75-.43,7.891,7.891,0,0,1-2.41-1.24,6.444,6.444,0,0,1-1.72-2,5.434,5.434,0,0,1-.66-2.7V43.84a5.547,5.547,0,0,1,.66-2.72,6.677,6.677,0,0,1,1.74-2.05,7.7,7.7,0,0,1,2.42-1.28,8.73,8.73,0,0,1,5.42,0,7.7,7.7,0,0,1,2.42,1.28,6.689,6.689,0,0,1,1.74,2.05,5.547,5.547,0,0,1,.66,2.72l.05,12.38Zm18.5,2.38H74.24v3.82H71.07V58.6H60.27V55.94q2.051-4.541,4.12-9.14l4.12-9.18h3.31L63.76,55.79h7.31V48.38h3.17V55.8h2.12v2.8ZM53.25,41.23a3.949,3.949,0,0,0-1.42-.74,5.264,5.264,0,0,0-3,0,3.949,3.949,0,0,0-1.42.74,4,4,0,0,0-1.06,1.35,4.478,4.478,0,0,0-.41,2V55.4a4.354,4.354,0,0,0,.41,2,4,4,0,0,0,2.48,2.07,5.264,5.264,0,0,0,3,0,3.949,3.949,0,0,0,1.42-.74,4.054,4.054,0,0,0,1.51-3.33V44.6a4.325,4.325,0,0,0-.43-2,4.2,4.2,0,0,0-1.08-1.37Z" fill="#20a038"/></g></svg>