<svg xmlns="http://www.w3.org/2000/svg" xmlns:xlink="http://www.w3.org/1999/xlink" width="45" height="56" viewBox="0 0 45 56"><defs><radialGradient id="a" cx="0.192" cy="0.995" r="1.09" gradientUnits="objectBoundingBox"><stop offset="0" stop-color="#09f"/><stop offset="0.61" stop-color="#a033ff"/><stop offset="0.935" stop-color="#ff5280"/><stop offset="1" stop-color="#ff7061"/></radialGradient><clipPath id="c"><rect width="45" height="56"/></clipPath></defs><g id="b" clip-path="url(#c)"><g transform="translate(0 5.5)"><path d="M134.5,122c-12.675,0-22.5,9.284-22.5,21.825a21.348,21.348,0,0,0,7.066,16.143,1.8,1.8,0,0,1,.6,1.283l.123,4a1.8,1.8,0,0,0,2.526,1.592l4.466-1.971a1.8,1.8,0,0,1,1.2-.088,24.536,24.536,0,0,0,6.513.865c12.675,0,22.5-9.284,22.5-21.825S147.175,122,134.5,122Z" transform="translate(-112 -122)" fill-rule="evenodd" fill="url(#a)"/><path d="M268.887,404.3l6.609-10.486a3.375,3.375,0,0,1,4.88-.9l5.257,3.943a1.35,1.35,0,0,0,1.626,0l7.1-5.388a1.069,1.069,0,0,1,1.55,1.421L289.3,403.37a3.375,3.375,0,0,1-4.88.9l-5.257-3.943a1.35,1.35,0,0,0-1.626,0l-7.1,5.388A1.069,1.069,0,0,1,268.887,404.3Z" transform="translate(-259.898 -376.091)" fill="#fff" fill-rule="evenodd"/></g></g></svg>