<svg xmlns="http://www.w3.org/2000/svg" width="56" height="56" viewBox="0 0 56 56">
  <g id="icon_viber" transform="translate(11.285 10.387)">
    <rect id="Прямоугольник_2141" data-name="Прямоугольник 2141" width="56" height="56" transform="translate(-11.285 -10.387)" fill="none"/>
    <path id="Контур_4998" data-name="Контур 4998" d="M9.047,6.207a1.274,1.274,0,0,0-.833.164H8.193A6.387,6.387,0,0,0,6.64,7.648,2.451,2.451,0,0,0,6.014,8.93a1.733,1.733,0,0,0,.064.737l.026.016a18.347,18.347,0,0,0,1.633,3.526,20.741,20.741,0,0,0,3.149,4.3l.037.053.058.043.037.043.043.037a21.037,21.037,0,0,0,4.315,3.164,20.019,20.019,0,0,0,3.531,1.628v.01a1.828,1.828,0,0,0,.54.084,2.5,2.5,0,0,0,1.5-.641A6.174,6.174,0,0,0,22.2,20.375v-.01a1.152,1.152,0,0,0-.244-1.522,18.806,18.806,0,0,0-2.916-2.094,1.331,1.331,0,0,0-1.685.233l-.61.768a1.107,1.107,0,0,1-.88.329l-.016.01a7.964,7.964,0,0,1-5.365-5.37,1.079,1.079,0,0,1,.339-.88l.763-.615a1.351,1.351,0,0,0,.228-1.7A18.312,18.312,0,0,0,9.729,6.613,1.16,1.16,0,0,0,9.045,6.2Z" transform="translate(2.066 2.393)" fill="#fff"/>
    <path id="Контур_4999" data-name="Контур 4999" d="M12.855,5a.775.775,0,1,0,0,1.551,6.812,6.812,0,0,1,4.878,1.868,6.89,6.89,0,0,1,1.517,2.338A6.76,6.76,0,0,1,19.7,13.5a.775.775,0,0,0,1.55.066A8.311,8.311,0,0,0,20.7,10.2a8.44,8.44,0,0,0-1.867-2.875l-.016-.015A8.36,8.36,0,0,0,12.855,5Z" transform="translate(5.415 1.735)" fill="#fff"/>
    <path id="Контур_5000" data-name="Контур 5000" d="M12.821,6.644a.775.775,0,0,0,0,1.551h.025a4.565,4.565,0,0,1,3.167,1.346,4.108,4.108,0,0,1,1.093,3.013.776.776,0,0,0,1.551.036,5.657,5.657,0,0,0-1.507-4.1h0a6.115,6.115,0,0,0-4.223-1.838l-.026,0Z" transform="translate(5.396 2.641)" fill="#fff"/>
    <path id="Контур_5001" data-name="Контур 5001" d="M12.816,8.319a.775.775,0,0,0-.082,1.549,1.924,1.924,0,0,1,1.323.492,1.992,1.992,0,0,1,.493,1.349.775.775,0,0,0,1.549-.083,3.523,3.523,0,0,0-.939-2.357A3.456,3.456,0,0,0,12.816,8.319Z" transform="translate(5.371 3.563)" fill="#fff"/>
    <path id="Контур_5002" data-name="Контур 5002" d="M9.72,2.677a34.353,34.353,0,0,1,14.988,0l.526.118a8,8,0,0,1,6.005,5.836,30.58,30.58,0,0,1,0,15.044,8,8,0,0,1-6.005,5.836l-.526.118a34.353,34.353,0,0,1-9.426.773l-4.115,3.682a1.163,1.163,0,0,1-1.923-.675l-.681-4.065A8,8,0,0,1,3.19,23.674a30.58,30.58,0,0,1,0-15.044A8,8,0,0,1,9.195,2.795ZM24.2,4.948a32.027,32.027,0,0,0-13.973,0L9.7,5.065A5.668,5.668,0,0,0,5.444,9.2a28.253,28.253,0,0,0,0,13.9A5.668,5.668,0,0,0,9.7,27.239l.139.031a1.163,1.163,0,0,1,.893.943l.456,2.726,2.9-2.6a1.163,1.163,0,0,1,.858-.293,32.03,32.03,0,0,0,9.249-.691l.526-.118A5.668,5.668,0,0,0,28.985,23.1a28.256,28.256,0,0,0,0-13.9,5.668,5.668,0,0,0-4.258-4.138Z" transform="translate(0 0)" fill="#fff"/>
  </g>
</svg>
