<svg xmlns="http://www.w3.org/2000/svg" xmlns:xlink="http://www.w3.org/1999/xlink" width="48" height="48" viewBox="0 0 48 48"><defs><clipPath id="b"><rect width="48" height="48"/></clipPath></defs><g id="a" clip-path="url(#b)"><path d="M1133.27,1512.2a14.384,14.384,0,0,0-28.54,0,24,24,0,1,1,28.54,0ZM1119,1483.78a6.485,6.485,0,1,0,6.24,6.479A6.363,6.363,0,0,0,1119,1483.78Zm0,12a5.525,5.525,0,1,1,5.28-5.521A5.411,5.411,0,0,1,1119,1495.78Zm0,4.8a13.494,13.494,0,0,1,13.377,12.247,24.005,24.005,0,0,1-26.755,0A13.5,13.5,0,0,1,1119,1500.58Z" transform="translate(-1095 -1468.9)" fill="#20a038" fill-rule="evenodd"/></g></svg>