<svg xmlns="http://www.w3.org/2000/svg" xmlns:xlink="http://www.w3.org/1999/xlink" width="12" height="13" viewBox="0 0 12 13"><defs><clipPath id="b"><rect width="12" height="13"/></clipPath></defs><g id="a" clip-path="url(#b)"><path d="M277.571,507.991H266.426a.47.47,0,0,0-.418.5.478.478,0,0,0,.418.5h11.156a.47.47,0,0,0,.417-.5.477.477,0,0,0-.428-.5Zm-11.562-4.5L266,505.553a.447.447,0,0,0,.127.317.42.42,0,0,0,.306.127l2.047-.011a.418.418,0,0,0,.3-.127l7.069-7.088a.447.447,0,0,0,0-.624l-2.025-2.052a.446.446,0,0,0-.623,0l-1.414,1.428-5.655,5.66a.47.47,0,0,0-.128.307Zm7.512-6.464,1.424,1.428-.8.8-1.424-1.428Zm-6.637,6.654,5.212-5.226,1.425,1.428-5.212,5.216-1.435.01Z" transform="translate(-266 -495.991)" fill="#fff" fill-rule="evenodd"/></g></svg>