<svg xmlns="http://www.w3.org/2000/svg" width="24" height="24"><defs><clipPath id="a"><path d="M0 0H24V24H0z"/></clipPath></defs><g clip-path="url(#a)"><path d="M.462 7.5c.1-.5.1-1.1.2-1.6a5.929 5.929 0 0 1 5.8-5.3q5.55-.15 11.1 0a6 6 0 0 1 5.9 6q.15 5.4 0 10.8a5.933 5.933 0 0 1-5.9 6q-5.55.15-11.1 0c-3.3-.1-5.6-2.6-5.9-6 0-.3-.1-.6-.1-.9zm11.5 13.9c1.7 0 3.4.1 5.1 0a4.121 4.121 0 0 0 4.3-4.4c.1-3.3.1-6.7 0-10a4.175 4.175 0 0 0-4.3-4.4c-3.4-.1-6.7-.1-10.1 0a4.094 4.094 0 0 0-4.3 4.3c-.1 3.4-.1 6.8 0 10.1a4.149 4.149 0 0 0 4.3 4.3c1.7.1 3.3.1 5 .1zm0-15.9a6.5 6.5 0 1 1-6.5 6.5 6.487 6.487 0 0 1 6.5-6.5zm0 10.8a4.3 4.3 0 1 0-4.3-4.3 4.268 4.268 0 0 0 4.3 4.3zm7.5-10.8a1 1 0 1 1-1-1 .945.945 0 0 1 1 1z" fill="#fff"/></g></svg>