<svg xmlns="http://www.w3.org/2000/svg" xmlns:xlink="http://www.w3.org/1999/xlink" width="39" height="39" viewBox="0 0 39 39"><defs><clipPath id="b"><rect width="39" height="39"/></clipPath></defs><g id="a" clip-path="url(#b)"><path d="M30.64,35.49v-.2c0-4.1-5.94-9.29-9.82-9.29H18.18c-3.89,0-9.82,5.18-9.82,9.29v.2a19.5,19.5,0,1,1,22.29,0h-.01ZM19.5,12.07a5.847,5.847,0,0,0-5.57,6,5.847,5.847,0,0,0,5.57,6,5.847,5.847,0,0,0,5.57-6A5.847,5.847,0,0,0,19.5,12.07Zm0,10.21a4.018,4.018,0,0,1-3.71-4.18,4.018,4.018,0,0,1,3.71-4.18,4.018,4.018,0,0,1,3.71,4.18,4.018,4.018,0,0,1-3.71,4.19Zm-1.32,5.57h2.64c2.91,0,8.06,4.36,8.06,7.43v1.31a19.507,19.507,0,0,1-18.77,0v-1.3c.01-3.08,5.16-7.43,8.07-7.43v-.01Z" transform="translate(-0.005 0.011)" fill="#20a038" fill-rule="evenodd"/></g></svg>