<svg width="21" height="21" viewBox="0 0 21 21" fill="none" xmlns="http://www.w3.org/2000/svg">
<path d="M20.9267 21C20.399 21 19.865 21 19.3059 21C19.2179 18.1038 18.0808 15.7479 15.8065 13.97C14.1103 12.6444 12.1565 12.0538 10.0204 12.1544C5.59135 12.3491 1.64599 16.0683 1.61458 20.9812C1.08686 20.9812 0.565417 20.9812 0 20.9812C0.0125648 18.7509 0.647088 16.728 1.93498 14.9249C3.21031 13.1281 4.90028 11.8654 7.01117 11.0864C5.1076 9.60371 4.20293 7.70642 4.47308 5.3191C4.64898 3.71708 5.39659 2.39778 6.64051 1.38003C9.21002 -0.730863 12.8852 -0.38533 15.0904 2.17789C17.2012 4.63432 17.0756 8.76186 13.9407 11.0675C14.3742 11.2623 14.8076 11.4319 15.216 11.6518C18.5331 13.4485 20.4304 16.2128 20.8827 19.976C20.889 20.0451 20.9142 20.1142 20.933 20.1833C20.9267 20.4534 20.9267 20.7299 20.9267 21ZM14.8642 6.11068C14.8893 3.67939 12.9355 1.6753 10.5105 1.65017C8.07918 1.61876 6.09394 3.56631 6.04368 6.03529C5.99342 8.42261 7.99123 10.4644 10.41 10.5021C12.835 10.5398 14.8391 8.56711 14.8642 6.11068Z" fill="#818185"/>
</svg>
