<svg width="17" height="17" viewBox="0 0 17 17" fill="none" xmlns="http://www.w3.org/2000/svg">
<path d="M3.81296 0C4.05208 0.0743205 4.29766 0.129253 4.53032 0.226193C4.97947 0.41361 5.28322 0.772287 5.57404 1.14389C5.95533 1.63182 6.33986 2.11652 6.72439 2.60122C7.63239 3.74834 7.59038 5.36077 6.62745 6.45942C6.55313 6.54343 6.48204 6.63714 6.44649 6.74054C6.39479 6.89888 6.44649 7.04752 6.56605 7.17031C7.65501 8.25927 8.74073 9.34822 9.83292 10.4372C10.0397 10.644 10.2918 10.6408 10.505 10.4307C10.938 10.001 11.4518 9.72629 12.0528 9.62289C12.9156 9.47424 13.704 9.65197 14.3923 10.1981C14.9804 10.6601 15.5524 11.1448 16.1275 11.6231C16.5961 12.0141 16.8934 12.5052 16.9806 13.1127C16.9838 13.1386 16.9968 13.1644 17.0032 13.187C17.0032 13.3486 17.0032 13.5102 17.0032 13.6717C16.9935 13.7137 16.9806 13.7525 16.9709 13.7945C16.8998 14.2114 16.7318 14.5862 16.4571 14.9061C15.5039 16.0144 14.2954 16.6704 12.8542 16.9031C12.6312 16.9386 12.4115 16.9677 12.1886 17C11.9397 17 11.6942 17 11.4454 17C11.3937 16.9903 11.342 16.9774 11.287 16.9709C10.686 16.9289 10.0947 16.8255 9.5518 16.5638C8.91846 16.2568 8.28835 15.9337 7.69702 15.5556C6.57575 14.8447 5.57727 13.9722 4.62079 13.0546C3.6417 12.111 2.74016 11.0996 1.93233 10.0074C1.47672 9.39346 1.08573 8.7375 0.727048 8.06216C0.452386 7.55161 0.232655 7.02813 0.126022 6.46588C0.0743205 6.18476 0.0420072 5.90363 0 5.62251C0 5.35431 0 5.08287 0 4.81467C0.00969398 4.76944 0.0258506 4.7242 0.0290819 4.67573C0.155104 3.32503 0.626877 2.11975 1.5478 1.10511C1.86447 0.752899 2.19084 0.400684 2.63999 0.216499C2.86942 0.12279 3.11823 0.0710892 3.36058 0C3.51245 0 3.66109 0 3.81296 0ZM11.8299 15.2551C12.9318 15.2615 14.1338 14.8512 14.9966 13.9302C15.3553 13.5489 15.3456 13.2226 14.9416 12.893C14.4279 12.4729 13.9012 12.0722 13.41 11.6295C12.9253 11.1933 12.1562 11.2353 11.7006 11.678C10.7732 12.5795 9.44839 12.5278 8.54039 11.6069C7.49667 10.5503 6.44003 9.50656 5.38985 8.45315C4.73066 7.79072 4.52709 7.00874 4.81791 6.11367C4.92454 5.78407 5.13781 5.52233 5.35754 5.2606C5.71298 4.83729 5.74853 4.20072 5.4157 3.76126C4.96008 3.15377 4.48185 2.56244 4.00361 1.97434C3.75803 1.67059 3.45429 1.67383 3.16347 1.93556C2.53982 2.49458 2.12298 3.17962 1.90971 3.98422C1.68352 4.83406 1.65444 5.69036 1.94203 6.53051C2.18438 7.23171 2.56567 7.86504 2.97928 8.47577C3.78711 9.67136 4.74035 10.7442 5.77761 11.7459C6.96351 12.8898 8.21403 13.9432 9.68751 14.709C10.3338 15.0483 10.9994 15.2422 11.8299 15.2551Z" fill="#C3C3CD"/>
</svg>
