<svg width="25" height="21" viewBox="0 0 25 21" fill="none" xmlns="http://www.w3.org/2000/svg">
<path d="M14.1581 17.2947C13.2424 18.1314 12.3662 18.9417 11.4834 19.752C11.121 20.088 10.7126 20.3383 10.2119 20.391C9.36864 20.4833 8.70326 20.1473 8.32116 19.4094C8.00493 18.8033 7.80071 18.1314 7.57013 17.4857C6.97062 15.7992 6.39747 14.1127 5.79138 12.4262C5.74526 12.301 5.59374 12.1627 5.46857 12.1231C4.13121 11.7279 2.78727 11.3655 1.4565 10.9571C1.08757 10.8451 0.718644 10.654 0.422186 10.4169C-0.118028 9.98863 -0.14438 9.23102 0.369482 8.76986C0.66594 8.50634 1.02828 8.29553 1.40379 8.15059C4.902 6.80006 8.4068 5.46929 11.9116 4.13193C15.3439 2.82751 18.7697 1.51651 22.2086 0.205504C22.8806 -0.0514264 23.5657 -0.130482 24.185 0.343852C24.7647 0.791833 24.9162 1.43087 24.7911 2.11601C24.4683 3.80912 24.1191 5.49564 23.7765 7.18216C22.9662 11.1942 22.1559 15.1997 21.339 19.2118C21.1875 19.9694 20.8449 20.6018 20.0675 20.8851C19.3824 21.1355 18.7565 20.9576 18.2097 20.536C17.3533 19.8838 16.5298 19.1986 15.6865 18.5266C15.1858 18.1182 14.6785 17.7163 14.1581 17.2947ZM1.91107 9.5143C1.91107 9.54065 1.91107 9.56042 1.91107 9.58677C3.28795 9.98205 4.67142 10.3839 6.0549 10.7726C6.16689 10.8055 6.31842 10.766 6.42382 10.7067C9.43452 9.17173 12.4452 7.63673 15.4493 6.10173C16.4968 5.56811 17.5377 5.0279 18.5852 4.50086C19.0727 4.2571 19.58 4.46133 19.6854 4.94225C19.7645 5.28483 19.5932 5.52858 19.3758 5.76575C17.2347 8.03201 15.1002 10.2983 12.9657 12.5711C12.6297 12.9269 12.3003 13.2892 11.9643 13.6515C12.0368 13.7174 12.0763 13.757 12.1158 13.7899C14.3557 15.595 16.5956 17.3935 18.8355 19.192C19.5339 19.752 19.7776 19.6664 19.9489 18.7836C20.667 15.2261 21.3851 11.6686 22.1032 8.11106C22.505 6.10832 22.9135 4.11217 23.3088 2.10943C23.3483 1.91838 23.2956 1.70756 23.2824 1.50992C23.0848 1.53627 22.8674 1.5231 22.6829 1.58898C21.3983 2.06331 20.1202 2.55741 18.8355 3.05151C14.0132 4.89614 9.18418 6.73418 4.36179 8.57881C3.54488 8.88844 2.72797 9.19808 1.91107 9.5143ZM7.18144 11.9584C7.83365 13.8294 8.47927 15.674 9.12489 17.5187C9.48723 16.3197 9.79027 15.1338 10.0736 13.9414C10.1592 13.5923 10.2778 13.2892 10.5347 13.0191C12.0104 11.4709 13.4729 9.90958 14.9421 8.35482C15.1068 8.17694 15.2649 7.99907 15.4296 7.8146C15.4164 7.80143 15.4032 7.78166 15.3835 7.76849C12.6495 9.15855 9.92203 10.5552 7.18144 11.9584ZM10.4095 18.6584C10.4293 18.6782 10.4425 18.6979 10.4622 18.7243C11.3055 17.9469 12.1554 17.1695 13.0184 16.3724C12.432 15.9046 11.8918 15.4698 11.3187 15.0087C10.9959 16.267 10.6994 17.466 10.4095 18.6584Z" fill="#C3C3CD"/>
</svg>
