<svg width="21" height="21" viewBox="0 0 21 21" fill="none" xmlns="http://www.w3.org/2000/svg">
<path d="M0.0273205 21C0.283248 19.8265 0.526691 18.7091 0.770134 17.5918C0.919945 16.9239 1.076 16.256 1.20708 15.5818C1.23829 15.432 1.21333 15.2448 1.14466 15.1137C-1.78914 9.3397 1.14466 2.40469 7.3431 0.482113C13.0671 -1.29689 19.0783 2.00519 20.6513 7.79165C22.062 12.9976 19.0096 18.6155 13.8536 20.2822C11.1758 21.1498 8.55407 21 5.98856 19.8202C5.85747 19.7641 5.68269 19.7391 5.54537 19.7703C3.82254 20.1511 2.09971 20.5443 0.37688 20.9313C0.283248 20.9563 0.183374 20.9688 0.0273205 21ZM2.18086 18.8465C3.41056 18.5656 4.57159 18.2972 5.74511 18.0475C5.90117 18.0163 6.10092 18.035 6.23824 18.1099C8.36057 19.2335 10.5703 19.4769 12.8924 18.8652C17.0871 17.7603 19.9085 13.497 19.2781 9.21486C18.5665 4.39593 14.0971 1.06263 9.25943 1.73054C3.4917 2.53577 -0.134975 8.69052 2.51793 14.1087C2.91119 14.9139 2.94864 15.6006 2.72392 16.3995C2.50545 17.1861 2.36188 17.9975 2.18086 18.8465Z" fill="#818185"/>
<path d="M7.45551 5.81923C7.84252 5.74433 8.07972 5.97529 8.22953 6.35606C8.42928 6.86791 8.62903 7.37977 8.86623 7.87914C9.02228 8.20997 8.96611 8.48463 8.76011 8.7468C8.61655 8.92782 8.46049 9.09011 8.30444 9.25241C8.14839 9.40846 8.1359 9.57076 8.24826 9.75802C9.02853 11.0751 10.1084 12.0302 11.5316 12.6044C11.7626 12.6981 11.9311 12.6481 12.0747 12.4609C12.2932 12.18 12.5304 11.9178 12.7364 11.6369C12.8986 11.4184 13.0734 11.3435 13.3231 11.4621C13.9661 11.7742 14.6152 12.0863 15.2582 12.3984C15.4704 12.4983 15.4579 12.6856 15.4517 12.8791C15.4267 14.3522 13.8911 14.9889 12.8737 14.8204C10.8762 14.4833 9.17834 13.5907 7.83004 12.0676C7.04977 11.1875 6.30071 10.2761 5.89498 9.15253C5.51421 8.10386 5.64529 7.13008 6.40059 6.26867C6.73766 5.8879 6.88123 5.81923 7.45551 5.81923Z" fill="#818185"/>
</svg>
