<svg xmlns="http://www.w3.org/2000/svg" width="24.131" height="24" viewBox="0 0 24.131 24"><defs><style>.a{fill:#fff;}</style></defs><path class="a" d="M844,850.319c.1-.523.1-1.15.209-1.673a6.2,6.2,0,0,1,6.065-5.543q5.8-.157,11.608,0a6.272,6.272,0,0,1,6.17,6.275q.157,5.647,0,11.294a6.2,6.2,0,0,1-6.17,6.274q-5.8.157-11.608,0c-3.451-.1-5.856-2.719-6.17-6.274,0-.314-.1-.628-.1-.941Zm12.026,14.536c1.778,0,3.556.1,5.333,0a4.309,4.309,0,0,0,4.5-4.6c.1-3.451.1-7.007,0-10.458a4.366,4.366,0,0,0-4.5-4.6c-3.555-.1-7.006-.1-10.562,0-2.719.1-4.5,1.778-4.5,4.5-.1,3.556-.1,7.111,0,10.562a4.339,4.339,0,0,0,4.5,4.5C852.575,864.855,854.248,864.855,856.026,864.855Zm0-16.628a6.8,6.8,0,1,1-6.8,6.8A6.784,6.784,0,0,1,856.026,848.228Zm0,11.294a4.5,4.5,0,1,0-4.5-4.5A4.463,4.463,0,0,0,856.026,859.522Zm7.843-11.294a1.046,1.046,0,1,1-1.046-1.046A.988.988,0,0,1,863.869,848.228Z" transform="translate(-844 -843.025)"/></svg>