<svg xmlns="http://www.w3.org/2000/svg" viewBox="0 0 479 467"><defs><style>.cls-1{fill:#00a174;}</style></defs><title>Ресурс 10</title><g id="Слой_2" data-name="Слой 2"><g id="Layer_1" data-name="Layer 1"><path class="cls-1" d="M479,65.92c-2.1,1.11-4.72,1.76-6.18,3.43-3.2,3.64-7.19,2.69-11,2.69-29.66.06-59.33,0-89,.08-3.08,0-6.16.55-9.37.86V221.8c3.59.22,7.16.57,10.73.61,7.33.1,14.67-.12,22,.09,3.48.1,4.67-1.12,4.64-4.57q-.18-19.76,0-39.5c.09-7.5,5.55-12.94,12-12.32a5.13,5.13,0,0,1,3.08,1.15c3.69,4,7,7.9,6.82,14.18-.43,16.16-.13,32.34-.15,48.5a14.26,14.26,0,0,1-14.24,14.49c-12.33.11-24.66,0-37,.06-2.6,0-5.2.44-8.14.7,0,10.68-.34,20.83.2,30.94.17,3.41,3.23,5.67,7.28,5.65,12.33-.08,24.66,0,37,0h9.33c7.71,9.25,5.32,19.26,5.52,28.81.19,9,.41,18-.08,27-.34,6.36-1.84,12.66-2.85,19.22H405.74c-6.23-5.77-4.89-13-4.93-20-.06-10,0-20,0-30,0-1.79-.18-3.58-.3-5.88H387.23c-9.67,0-19.33.09-29,0-3.25-.05-7,.31-9.61-1.17-4.84-2.76-4.53-8.09-4.51-13.12q.13-46.5,0-93c0-2.62-.27-5.24-.45-8.44H233.47c-1.57-3.11-3.83-5.57-3.75-8a13.37,13.37,0,0,1,3.63-8,11.06,11.06,0,0,1,7.25-3c32.33-.19,64.66-.13,97-.13h6.23V72.44c-2.4-.12-4.68-.34-7-.35-30.83,0-61.66-.21-92.49.13-7.17.08-11.27-3.52-15-8.54-1.36-1.85,1-8.16,3.42-9.78a22.33,22.33,0,0,1,13-3.75q102.48.26,205,.1c2.79,0,5.57-.33,9-.54,0-10.71.31-21-.28-31.24-.11-1.91-3.76-3.72-6-5.32-.66-.48-1.95-.08-2.95-.08h-250c-7.62,0-9.35,1.72-9.35,9.25q0,39.26,0,78.51c0,6.41,2.41,8.84,8.75,8.84q48.26,0,96.5.06c8.12,0,11,3.24,10.3,11.13-.42,4.42-3.79,6.36-7.43,7.66-1.49.53-3.3.23-5,.23q-54.75,0-109.49,0c-2.77,0-6.18.28-8.17-1.14-3.8-2.69-4.87-6.86-4.83-11.9.31-31.5.16-63,.14-94.51,0-2.47-.21-4.94-.35-7.8-1.91-.11-3.51-.29-5.12-.29h-139c-6.1,0-8.36,2.22-8.38,8.22,0,9.16,0,18.32,0,28.22,2.88.26,5.6.72,8.33.73q46.74.07,93.49,0a13.39,13.39,0,0,1,13.81,13.8q0,55,0,110c0,8.18-2.61,11-10.57,11q-29.25.1-58.49,0c-7.25,0-12.14-6.54-9.19-13.19,1.2-2.71,3.83-6,8.45-6,14.16.25,28.32.09,42.49.05,2.48,0,5-.21,7.83-.34V73.1a57.3,57.3,0,0,0-7.54-1q-40.25-.12-80.5,0c-8.06,0-8.1.12-8.1,8q0,10.25,0,20.5c0,6.88,2.21,9.1,9,9.1H73.46c1.57,3.12,3.22,5.32,3.69,7.74.29,1.56-1.13,3.47-1.84,5.19-1.69,4.1-4.48,6.27-9.22,6.21-13-.18-26-.08-39,0-2.46,0-4.91.3-7.61.48V337.57H56.35v-5.73q0-47.5,0-95c0-5.39,4.57-12.88,9.48-13.44,2.86-.32,6.87,1.56,8.9,3.79,3,3.27,3.75,7.8,3.59,12.58-.39,11.16-.17,22.34-.09,33.51,0,2.63.5,5.25.83,8.48h99.14c2.33,0,4.67.05,7,.18,3.52.21,5.4,2.12,5.83,5.63,1.17,9.39-2.22,13.31-11.64,13.32H78.53c-.12,2.52-.31,4.64-.31,6.76,0,31-.2,62,.12,93,.07,7.21-3.54,11.37-8.69,15-1.82,1.3-8.1-1.32-9.72-3.6-2.94-4.14-3.84-8.6-3.68-13.69.34-11,.13-22,.08-33,0-2.48-.3-4.95-.52-8.16H50.29c-13,0-26,.06-39-.08-3.15,0-7.07,1.29-8.53-3.46C2.62,353.22,1,353.2,0,353V0H479Z"/><path class="cls-1" d="M0,398c1.12-.12,3,.12,3.24-.39,2.41-5.41,7.59-4.07,10.56-2.72a9.66,9.66,0,0,1,5.54,9.39c-.5,13.81-.16,27.66-.13,41.49,0,5.73,2.33,8.06,8,8.07q40.25,0,80.47,0c5.35,0,8-2.72,8-8q0-23.47,0-46.85c1.85-.61,3.07-1,4.27-1.41,2-.73,5.17-2.71,5.85-2.07,3.14,3,9.2,3.06,9,9.64-.34,13.48-.09,27,0,40.49,0,2.48.24,4.95.39,8,2,.1,3.74.27,5.5.27H451.64c5.63,0,8.13-2.43,8.14-7.94,0-9.31,0-18.63,0-28.55-3-.25-5.79-.67-8.54-.68q-47-.06-94,0c-7,0-13.9-6.82-13-13,.23-1.51,1-3.58,2.18-4.19,3.88-2,7.26-4.82,12.29-4.77,30.16.26,60.31.13,90.47.12,1.67,0,3.33,0,5-.05,3.86-.13,5.66-1.45,5.65-6q-.24-127.23-.12-254.46v-4.93c-2.78-.22-5.21-.57-7.64-.58-13.33-.06-26.66.17-40-.22-2.69-.08-6.48-1.75-7.71-3.88-1.8-3.11-6.62-7.06-.74-11.17.7-.49.63-2.09,1.1-3.84q13.19,0,26.4,0c12.32,0,24.65,0,37,.07,3,0,6.72-1.07,8,3.46.13.47,1.81.49,2.77.72V467H0Z"/><path class="cls-1" d="M244.5,357.23H126.34c-10-.12-12.79-3.27-10.09-13.21a8.2,8.2,0,0,1,7.83-5.85c8.49,0,17,0,25.49,0h78.62V244.46h-5.83q-40.73,0-81.46,0c-8.3,0-16.87,1.38-24.68-5.35V226.88c14.4-7.85,29.71-3.23,44.47-4.4,3.59-.28,7.23,0,11.38,0,0-5.86,0-11.15,0-16.44,0-9.83,0-19.66,0-29.49,0-7.47,3.44-10.66,10.83-10.44,3.87.11,8,3.93,8.1,7.8.15,11.33.15,22.66.19,34,0,4.33,0,8.66,0,13.74,2.83.29,5.55.81,8.26.82,30.65.05,61.3.13,91.95-.06,5.7,0,9.8,2.5,13.53,6.11a6.82,6.82,0,0,1-.07,9.94c-3.57,3.5-7.45,6.23-13,6.13-13.47-.23-27-.07-41.4-.07v6q0,41,0,82C250.49,340.59,251.92,349,244.5,357.23Z"/><path class="cls-1" d="M287.77,393.93c0-9.88,0-18.86,0-27.84,0-24.83,0-49.65,0-74.47,0-8.83,5.79-13,13.76-9.25,2.26,1.05,5.49,3.54,5.42,7.79-.24,14-.07,28-.06,42v6h44.73c9.33,0,14.11,6.46,10.85,15.4-.62,1.7-4,3.34-6.12,3.39-14,.35-28,.25-42,.3h-7c-.19,2.69-.5,5.12-.51,7.55-.06,13.49-.14,27,0,40.48,0,4.08-2.48,5.84-5.14,8.17-4.63,4.07-9.94,3.19-15.2,3.19q-48.72,0-97.43,0c-5.27,0-12.92-6.14-13.12-10.4-.23-5,6.14-11.22,11.94-11.33,8-.16,16-.06,24-.06,22.15,0,44.31,0,66.46,0C281.41,394.78,284.35,394.26,287.77,393.93Z"/></g></g></svg>