<svg xmlns="http://www.w3.org/2000/svg" width="13.17" height="16" viewBox="0 0 13.17 16"><defs><style>.a{stroke:#000;stroke-width:0.4px;}.a,.b{fill-rule:evenodd;}</style></defs><g transform="translate(-3.494 -1.25)"><path class="a" d="M7.25,7.935A2.685,2.685,0,1,1,9.935,10.62,2.685,2.685,0,0,1,7.25,7.935ZM9.935,6.1a1.837,1.837,0,1,0,1.837,1.837A1.837,1.837,0,0,0,9.935,6.1Z" transform="translate(0.144 0.089)"/><path class="b" d="M3.518,7.139A6.416,6.416,0,0,1,9.912,1.25h.334a6.416,6.416,0,0,1,6.394,5.889,6.923,6.923,0,0,1-1.54,4.951L11.39,16.629a1.693,1.693,0,0,1-2.621,0L5.058,12.091A6.924,6.924,0,0,1,3.518,7.139ZM9.912,2.411A5.255,5.255,0,0,0,4.675,7.234a5.762,5.762,0,0,0,1.282,4.121l3.711,4.538a.532.532,0,0,0,.823,0L14.2,11.355a5.762,5.762,0,0,0,1.282-4.121,5.255,5.255,0,0,0-5.237-4.823Z" transform="translate(0)"/></g></svg>