<svg xmlns="http://www.w3.org/2000/svg" width="140" height="25.947" viewBox="0 0 140 25.947"><defs><style>.a{fill:#0e7910;}.b{fill:#20a038;}.c{fill:#333;}</style></defs><g transform="translate(-3502.406 -3800.325)"><g transform="translate(3502.406 3800.325)"><g transform="translate(0)"><path class="a" d="M2.683,25.946,17.861,0l18.6,25.946L0,11.025l28.96,8.122L17.861,8.2Z"/><path class="b" d="M7.3,25.946,22.478,4.962V0Z" transform="translate(-4.617)"/><path class="b" d="M48.6,13.5v3.234L59.7,27.685Z" transform="translate(-30.739 -8.538)"/><path class="b" d="M0,30,31.312,40.695l5.145,4.227" transform="translate(0 -18.975)"/></g></g><path class="c" d="M7.713-53.557a9.228,9.228,0,0,1,1.835.174,4.111,4.111,0,0,1,1.51.616,3.163,3.163,0,0,1,1.034,1.173,3.958,3.958,0,0,1,.383,1.847v7.8H9.85v-1.022L9.8-42.988a2.643,2.643,0,0,1-1.289.883,5.3,5.3,0,0,1-1.707.279,4.383,4.383,0,0,1-2.9-.894,3.159,3.159,0,0,1-1.068-2.567,3.475,3.475,0,0,1,.255-1.324,3.229,3.229,0,0,1,.743-1.1,3.5,3.5,0,0,1,1.219-.755,4.711,4.711,0,0,1,1.684-.279H9.85v-.836a1.9,1.9,0,0,0-.1-.627,1.2,1.2,0,0,0-.36-.523,1.96,1.96,0,0,0-.7-.36,3.765,3.765,0,0,0-1.115-.139,4.592,4.592,0,0,0-1.6.244,3.322,3.322,0,0,0-1.138.708L3.439-52.047A4.6,4.6,0,0,1,5.39-53.22,7.988,7.988,0,0,1,7.713-53.557ZM5.32-45.474a1.341,1.341,0,0,0,.1.511,1.136,1.136,0,0,0,.348.453,1.988,1.988,0,0,0,.627.325,3.091,3.091,0,0,0,.964.128,4.492,4.492,0,0,0,.859-.081,2.565,2.565,0,0,0,.755-.267,1.818,1.818,0,0,0,.569-.488,1.469,1.469,0,0,0,.279-.766,2.175,2.175,0,0,0,.023-.348v-.743H7.178a2.18,2.18,0,0,0-1.428.372A1.154,1.154,0,0,0,5.32-45.474Zm23.622,3.531V-48.8a2.6,2.6,0,0,0-.523-1.73,2.032,2.032,0,0,0-1.638-.616,2.048,2.048,0,0,0-1.533.65,2.34,2.34,0,0,0-.627,1.7v6.852H22V-48.8a2.557,2.557,0,0,0-.534-1.73,2.038,2.038,0,0,0-1.626-.616,2.085,2.085,0,0,0-1.545.65,2.316,2.316,0,0,0-.639,1.7v6.852H15.029v-11.5h2.625v1.231a.047.047,0,0,1,.035.012.047.047,0,0,0,.035.012,3.355,3.355,0,0,1,1.359-1.01,4.334,4.334,0,0,1,1.707-.36,3.476,3.476,0,0,1,3.182,1.649,5.814,5.814,0,0,1,1.661-1.208,4.521,4.521,0,0,1,1.986-.441,3.953,3.953,0,0,1,2.834,1.034,3.947,3.947,0,0,1,1.092,3.008v7.572Zm7.99-11.5v6.852a2.7,2.7,0,0,0,.488,1.765,2.049,2.049,0,0,0,1.649.581,2.173,2.173,0,0,0,1.568-.616,2.291,2.291,0,0,0,.639-1.73v-6.852H43.9v11.5H41.276v-1.138h-.07a3.2,3.2,0,0,1-1.347.964,4.376,4.376,0,0,1-1.579.314,4.058,4.058,0,0,1-2.869-1,4.016,4.016,0,0,1-1.08-3.089v-7.549Zm13.1,11.5a5.366,5.366,0,0,1-1.254-.139,2.609,2.609,0,0,1-1.022-.488,2.269,2.269,0,0,1-.685-.941,3.89,3.89,0,0,1-.244-1.475v-13.82h2.625v13.425a1.087,1.087,0,0,0,.29.883,1.291,1.291,0,0,0,.825.232h.465v2.323Zm5.04-4.994a3.827,3.827,0,0,0,.139,1.034,2.491,2.491,0,0,0,.441.883,2.228,2.228,0,0,0,.766.616,2.413,2.413,0,0,0,1.092.232,4.492,4.492,0,0,0,1.289-.244,3.726,3.726,0,0,0,1.428-.848q.418.465.766.917t.766.917a5.843,5.843,0,0,1-2.114,1.254,7.159,7.159,0,0,1-2.23.372,6.647,6.647,0,0,1-1.812-.255,3.969,3.969,0,0,1-1.626-.917,4.829,4.829,0,0,1-1.173-1.788,7.839,7.839,0,0,1-.453-2.892,7.539,7.539,0,0,1,.453-2.8,5.186,5.186,0,0,1,1.173-1.823,4.268,4.268,0,0,1,1.614-1,5.528,5.528,0,0,1,1.777-.3,5.212,5.212,0,0,1,2.079.395,4.415,4.415,0,0,1,1.556,1.1,4.779,4.779,0,0,1,.976,1.73,7.245,7.245,0,0,1,.337,2.276v1.138Zm2.276-4.251a2.009,2.009,0,0,0-1.51.627,2.884,2.884,0,0,0-.72,1.765h4.413a2.627,2.627,0,0,0-.685-1.788A2.059,2.059,0,0,0,57.349-51.187Zm14.145,9.244-2.416-3.879-2.392,3.879H63.528l4.181-5.876-4-5.621h3.136l2.23,3.716,2.253-3.716h3.136l-4,5.644,4.181,5.853Zm4.971,0v-3.205h3.159v3.205Zm10.986-9.175a2.152,2.152,0,0,0-1.556.581,2.245,2.245,0,0,0-.6,1.7v6.922H82.667V-53.441h2.578v1.37h.093a3.248,3.248,0,0,1,2.787-1.487,4.692,4.692,0,0,1,1.185.139,3.091,3.091,0,0,1,1,.465l-.976,2.369A3.376,3.376,0,0,0,88.381-51,3.818,3.818,0,0,0,87.452-51.118Zm6.713-2.323v6.852a2.7,2.7,0,0,0,.488,1.765,2.049,2.049,0,0,0,1.649.581,2.173,2.173,0,0,0,1.568-.616,2.291,2.291,0,0,0,.639-1.73v-6.852h2.625v11.5H98.508v-1.138h-.07a3.2,3.2,0,0,1-1.347.964,4.376,4.376,0,0,1-1.579.314,4.058,4.058,0,0,1-2.869-1,4.016,4.016,0,0,1-1.08-3.089v-7.549Z" transform="translate(3541.273 3860.446)"/></g></svg>