<svg xmlns="http://www.w3.org/2000/svg" width="16.5" height="15.5" viewBox="0 0 16.5 15.5"><defs><style>.a,.b{fill:#fd5555;}.b{fill-rule:evenodd;}</style></defs><path class="a" d="M19,18.25a.75.75,0,0,1,0,1.5H13A1.75,1.75,0,0,1,11.25,18V6A1.75,1.75,0,0,1,13,4.25h6a.75.75,0,0,1,0,1.5H13a.25.25,0,0,0-.25.25V18a.25.25,0,0,0,.25.25Z" transform="translate(-11.25 -4.25)"/><path class="b" d="M4.5,14.365a1.25,1.25,0,0,1-1.25-1.25V10.875A1.25,1.25,0,0,1,4.5,9.625H9.113q.01-.11.02-.22l.054-.556a1.227,1.227,0,0,1,1.751-.988,15.059,15.059,0,0,1,4.367,3.164l.1.1a1.253,1.253,0,0,1,0,1.734l-.1.1a15.06,15.06,0,0,1-4.367,3.164,1.227,1.227,0,0,1-1.751-.988l-.054-.556q-.011-.11-.02-.22Zm5.308-1.5a.75.75,0,0,1,.749.7q.027.436.07.872l.016.161A13.562,13.562,0,0,0,13.5,12.624q.337-.3.653-.629a13.558,13.558,0,0,0-3.516-2.607l-.016.161q-.042.435-.07.872a.75.75,0,0,1-.749.7H4.75v1.741Z" transform="translate(0.747 -4.25)"/></svg>