<svg xmlns="http://www.w3.org/2000/svg" xmlns:xlink="http://www.w3.org/1999/xlink" width="18" height="16" viewBox="0 0 18 16"><defs><clipPath id="b"><rect width="18" height="16"/></clipPath></defs><g id="a" clip-path="url(#b)"><path d="M688.17,1263.078h-9.6a.822.822,0,0,0,0,1.644h9.6l-1.07,1.063a.806.806,0,0,0-.022,1.14l.022.022a.829.829,0,0,0,1.17,0l2.49-2.465c.02-.02.03-.04.05-.06a.052.052,0,0,0,.02-.03l.03-.036c.01-.012.01-.023.02-.035a.061.061,0,0,0,.02-.032c.01-.012.01-.025.02-.037s.01-.023.02-.035a.05.05,0,0,0,.01-.036.064.064,0,0,0,.01-.04.051.051,0,0,0,.01-.038.063.063,0,0,0,.01-.04.065.065,0,0,0,.01-.043.052.052,0,0,1,.01-.038v-.162a.051.051,0,0,1-.01-.036.072.072,0,0,0-.01-.043.062.062,0,0,0-.01-.04.053.053,0,0,0-.01-.038.058.058,0,0,0-.01-.038c0-.013-.01-.025-.01-.037a.066.066,0,0,0-.02-.036c-.01-.012-.01-.025-.02-.04a.055.055,0,0,0-.02-.03.062.062,0,0,0-.02-.037l-.03-.035a.052.052,0,0,0-.02-.03.21.21,0,0,0-.05-.057l-2.49-2.464a.829.829,0,0,0-1.17,0,.806.806,0,0,0-.022,1.14l.022.022Zm-14.33,8.822h10.64a.868.868,0,0,0,.84-.89v-2.554a.84.84,0,1,0-1.68,0v1.666h-8.96v-12.445h8.96v1.666a.84.84,0,0,0,1.68,0v-2.555a.868.868,0,0,0-.84-.89H673.84a.868.868,0,0,0-.84.892v14.22A.868.868,0,0,0,673.84,1271.9Z" transform="translate(-673 -1255.898)" fill="#fff" fill-rule="evenodd"/></g></svg>