<svg xmlns="http://www.w3.org/2000/svg" width="169.115" height="31.343" viewBox="0 0 169.115 31.343"><g transform="translate(0)"><path d="M3.241,31.343,21.576,0,44.039,31.343,0,13.318l34.983,9.811L21.576,9.9Z" fill="#0e7910"/><path d="M7.3,31.343,25.635,5.993V0Z" transform="translate(-4.059)" fill="#20a038"/><path d="M48.6,13.5v3.906l13.407,13.23Z" transform="translate(-27.024 -7.507)" fill="#20a038"/><path d="M0,30,37.824,42.919l6.215,5.106" transform="translate(0 -16.682)" fill="#20a038"/></g><path d="M8.727-52.387a11.016,11.016,0,0,1,2.217.213,4.933,4.933,0,0,1,1.824.753,3.854,3.854,0,0,1,1.249,1.434,4.89,4.89,0,0,1,.463,2.258v9.544H11.308v-1.25l-.056-.028A3.192,3.192,0,0,1,9.7-38.383a6.326,6.326,0,0,1-2.062.341,5.251,5.251,0,0,1-3.507-1.094,3.885,3.885,0,0,1-1.291-3.139,4.3,4.3,0,0,1,.309-1.619,3.952,3.952,0,0,1,.9-1.349,4.225,4.225,0,0,1,1.473-.923,5.628,5.628,0,0,1,2.034-.341h3.76V-47.53a2.354,2.354,0,0,0-.126-.767,1.471,1.471,0,0,0-.435-.639,2.357,2.357,0,0,0-.842-.44,4.5,4.5,0,0,0-1.347-.17,5.486,5.486,0,0,0-1.936.3,4.006,4.006,0,0,0-1.375.866L3.565-50.54a5.55,5.55,0,0,1,2.357-1.434A9.54,9.54,0,0,1,8.727-52.387ZM5.837-42.5a1.657,1.657,0,0,0,.126.625,1.388,1.388,0,0,0,.421.554,2.391,2.391,0,0,0,.758.4,3.692,3.692,0,0,0,1.164.156,5.363,5.363,0,0,0,1.038-.1,3.074,3.074,0,0,0,.912-.327,2.2,2.2,0,0,0,.687-.6,1.811,1.811,0,0,0,.337-.937,2.692,2.692,0,0,0,.028-.426v-.909H8.082a2.61,2.61,0,0,0-1.726.454A1.419,1.419,0,0,0,5.837-42.5Zm28.535,4.317v-8.379a3.2,3.2,0,0,0-.631-2.116,2.439,2.439,0,0,0-1.978-.753,2.459,2.459,0,0,0-1.852.8,2.882,2.882,0,0,0-.758,2.073v8.379H25.983v-8.379a3.153,3.153,0,0,0-.645-2.116,2.446,2.446,0,0,0-1.964-.753,2.5,2.5,0,0,0-1.866.8,2.852,2.852,0,0,0-.772,2.073v8.379H17.565v-14.06h3.171v1.505a.057.057,0,0,1,.042.014.057.057,0,0,0,.042.014,4.057,4.057,0,0,1,1.641-1.236,5.181,5.181,0,0,1,2.062-.44,4.185,4.185,0,0,1,3.844,2.017,7.028,7.028,0,0,1,2.006-1.477,5.406,5.406,0,0,1,2.4-.54A4.742,4.742,0,0,1,36.2-51.123a4.86,4.86,0,0,1,1.319,3.678v9.26Zm9.652-14.06v8.379a3.329,3.329,0,0,0,.589,2.159,2.458,2.458,0,0,0,1.992.71,2.608,2.608,0,0,0,1.894-.753,2.821,2.821,0,0,0,.772-2.116v-8.379h3.171v14.06H49.27v-1.392h-.084A3.868,3.868,0,0,1,47.559-38.4a5.23,5.23,0,0,1-1.908.383,4.865,4.865,0,0,1-3.465-1.221,4.946,4.946,0,0,1-1.3-3.778v-9.231Zm15.825,14.06a6.407,6.407,0,0,1-1.515-.17,3.135,3.135,0,0,1-1.235-.6,2.773,2.773,0,0,1-.828-1.15,4.81,4.81,0,0,1-.295-1.8v-16.9h3.171v16.418a1.339,1.339,0,0,0,.351,1.079,1.546,1.546,0,0,0,1,.284h.561v2.84Zm6.089-6.107a4.734,4.734,0,0,0,.168,1.264,3.061,3.061,0,0,0,.533,1.079,2.7,2.7,0,0,0,.926.753,2.885,2.885,0,0,0,1.319.284,5.367,5.367,0,0,0,1.557-.3,4.49,4.49,0,0,0,1.726-1.037q.505.568.926,1.122T74.017-40a7.041,7.041,0,0,1-2.553,1.534,8.553,8.553,0,0,1-2.694.454,7.938,7.938,0,0,1-2.188-.312,4.779,4.779,0,0,1-1.964-1.122A5.911,5.911,0,0,1,63.2-41.636a9.693,9.693,0,0,1-.547-3.536,9.322,9.322,0,0,1,.547-3.423,6.35,6.35,0,0,1,1.417-2.23,5.145,5.145,0,0,1,1.95-1.221,6.6,6.6,0,0,1,2.146-.369,6.228,6.228,0,0,1,2.511.483,5.334,5.334,0,0,1,1.88,1.349,5.863,5.863,0,0,1,1.178,2.116,8.961,8.961,0,0,1,.407,2.784v1.392Zm2.75-5.2a2.413,2.413,0,0,0-1.824.767,3.55,3.55,0,0,0-.87,2.159h5.331a3.234,3.234,0,0,0-.828-2.187A2.472,2.472,0,0,0,68.686-49.489Zm17.087,11.3-2.918-4.743-2.89,4.743H76.15l5.05-7.186-4.826-6.874h3.788L82.856-47.7l2.722-4.545h3.788l-4.826,6.9,5.05,7.158Zm6,0V-42.1h3.816v3.92ZM105.049-49.4a2.582,2.582,0,0,0-1.88.71,2.765,2.765,0,0,0-.729,2.074v8.464H99.269V-52.245h3.114v1.676h.112a3.91,3.91,0,0,1,3.367-1.818,5.6,5.6,0,0,1,1.431.17,3.713,3.713,0,0,1,1.206.568l-1.178,2.9a4.053,4.053,0,0,0-1.15-.511A4.559,4.559,0,0,0,105.049-49.4Zm8.109-2.84v8.379a3.329,3.329,0,0,0,.589,2.159,2.458,2.458,0,0,0,1.992.71,2.608,2.608,0,0,0,1.894-.753,2.821,2.821,0,0,0,.772-2.116v-8.379h3.171v14.06H118.4v-1.392h-.084a3.868,3.868,0,0,1-1.627,1.179,5.23,5.23,0,0,1-1.908.383,4.865,4.865,0,0,1-3.465-1.221,4.946,4.946,0,0,1-1.3-3.778v-9.231Z" transform="translate(47.54 61.215)" fill="#333"/></svg>