<svg xmlns="http://www.w3.org/2000/svg" viewBox="0 0 15.98 13"><path d="M13.69,13H2.29A2.34,2.34,0,0,1,0,10.61V2.39A2.34,2.34,0,0,1,2.29,0h11.4A2.34,2.34,0,0,1,16,2.39v8.22A2.34,2.34,0,0,1,13.69,13ZM2.29.88A1.49,1.49,0,0,0,.84,2.39v8.22a1.49,1.49,0,0,0,1.45,1.51h11.4a1.48,1.48,0,0,0,1.45-1.51V2.39A1.48,1.48,0,0,0,13.69.88ZM8,8.29H8A3.75,3.75,0,0,1,5.16,6.94L.66,1.59,1.29,1l4.5,5.35a2.85,2.85,0,0,0,2.2,1H8a2.92,2.92,0,0,0,2.2-1L14.8,1l.63.58L10.83,7A3.74,3.74,0,0,1,8,8.29Z" fill="#fff" fill-rule="evenodd"/></svg>