<svg xmlns="http://www.w3.org/2000/svg" width="32" height="32" viewBox="0 0 32 32"><g transform="translate(-410 -2114)"><path d="M2.8,8.353a33.561,33.561,0,0,0,.122,8.2,3.138,3.138,0,0,0,2.831,2.66l1.51.131a54.635,54.635,0,0,0,9.465,0l1.51-.131a3.138,3.138,0,0,0,2.831-2.66,33.558,33.558,0,0,0,.122-8.2q-.054-.453-.122-.9a3.138,3.138,0,0,0-2.831-2.66l-1.51-.131a54.647,54.647,0,0,0-9.465,0l-1.51.131a3.138,3.138,0,0,0-2.831,2.66Q2.858,7.9,2.8,8.353ZM7.4,6.153a53.146,53.146,0,0,1,9.205,0l1.51.131a1.638,1.638,0,0,1,1.478,1.388q.018.117.034.233L14.064,11a4.25,4.25,0,0,1-4.128,0L4.375,7.906q.017-.117.034-.233A1.638,1.638,0,0,1,5.887,6.284ZM19.809,9.52a29.1,29.1,0,0,1-.218,6.808,1.638,1.638,0,0,1-1.478,1.388l-1.51.131a53.152,53.152,0,0,1-9.205,0l-1.51-.131a1.638,1.638,0,0,1-1.478-1.388A29.1,29.1,0,0,1,4.192,9.52l5.016,2.787a5.75,5.75,0,0,0,5.585,0Z" transform="translate(414.389 2118.453)" fill="#2eab6e" fill-rule="evenodd"/><rect width="32" height="32" transform="translate(410 2114)" fill="none"/></g></svg>