<svg width="129" height="24" viewBox="0 0 129 24" fill="none" xmlns="http://www.w3.org/2000/svg">
<path opacity="0.7" d="M2.46086 23.7395L16.3786 0L33.4307 23.7368L0 10.0866L26.5534 17.5174L16.3758 7.49855L2.45814 23.7368L2.46086 23.7395Z" fill="#008D80"/>
<path d="M2.46307 23.7395L16.3808 4.53924V0L2.46307 23.7368V23.7395Z" fill="#008D80"/>
<path d="M16.3789 4.53906V7.49837L26.5564 17.5172L16.3789 4.54177V4.53906Z" fill="#008D80"/>
<path d="M0 10.0859L28.7127 19.8717L33.4307 23.7389" fill="#008D80"/>
<path d="M52.5042 8.51229C53.5363 7.41204 55.1144 7.00554 56.5513 7.47166C57.1977 7.65052 57.7573 8.06244 58.1212 8.62611C58.2163 8.76703 58.2652 8.77245 58.3901 8.65321C59.08 7.9432 59.9872 7.47979 60.9705 7.33616C61.9863 7.1573 63.0321 7.39036 63.8741 7.98113C64.7324 8.6234 65.2159 9.64778 65.1697 10.7155C65.1969 12.7263 65.1778 17.9241 65.1778 17.9241H64.0371C64.0371 17.9241 63.3797 17.9024 63.0538 17.9241H62.793C62.793 17.9241 62.7958 16.6016 62.7958 16.0976V11.6992C62.8066 11.3036 62.7414 10.9106 62.6029 10.5421C62.4182 10.0434 61.9891 9.67759 61.4648 9.56919C60.3892 9.23586 59.2484 9.83748 58.9143 10.9106C58.8383 11.1572 58.8084 11.4147 58.8301 11.6721C58.8329 13.4147 58.8301 17.9241 58.8301 17.9241H57.214C57.214 17.9241 57.1162 17.9268 56.4453 17.9241C56.4426 17.2005 56.4453 17.9241 56.4453 17.9241C56.4453 17.9241 56.4345 15.9106 56.4345 15.2927V11.7751C56.4535 11.3307 56.3774 10.8862 56.2063 10.4743C56.0053 10.0109 55.5925 9.67488 55.0981 9.5719C54.7396 9.47434 54.362 9.46892 53.9981 9.55293C53.262 9.75347 52.7024 10.3578 52.5612 11.1058C52.5177 11.2927 52.4987 11.4852 52.5069 11.6776C52.5096 13.355 52.5177 17.9241 52.5177 17.9241H50.0352C50.0352 17.9241 50.0433 11.5827 50.0379 8.55836C50.0379 8.25214 50.1601 7.95945 50.3828 7.74808C50.5893 7.52044 50.8853 7.39578 51.1922 7.40662C51.5698 7.42288 51.9501 7.41746 52.3276 7.40662C52.4716 7.40391 52.5123 7.44727 52.5096 7.58819C52.4987 7.889 52.5042 8.18709 52.5042 8.51229Z" fill="black"/>
<path d="M128.989 12.9929C128.989 14.543 128.995 17.6432 128.995 17.6432C128.995 17.6432 128.938 17.9142 128.728 17.9007C128.386 17.8763 128.041 17.8844 127.696 17.8708C127.202 17.8383 126.784 17.4942 126.653 17.0199C126.604 16.8627 126.569 16.8167 126.436 16.9576C125.618 17.7841 124.453 18.1717 123.302 17.9955C122.565 17.9494 121.865 17.6676 121.3 17.1934C120.621 16.5836 120.238 15.7137 120.246 14.8031C120.172 13.0715 120.23 11.3343 120.216 9.59995C120.213 9.13112 120.205 7.3615 120.205 7.3615H122.606V13.5132C122.595 13.8655 122.631 14.2178 122.707 14.5592C122.815 15.1636 123.299 15.6351 123.907 15.73C124.366 15.8438 124.85 15.8221 125.298 15.6676C126.001 15.4264 126.493 14.7923 126.553 14.0498C126.594 13.5484 126.604 13.0444 126.583 12.543C126.583 11.1772 126.561 7.35879 126.561 7.35879C126.561 7.35879 126.947 7.39673 127.512 7.35879C127.552 7.35608 127.593 7.35879 127.634 7.35879C127.759 7.36963 127.886 7.36692 128.011 7.35879C128.541 7.34524 128.997 7.35879 128.997 7.35879C128.997 7.34253 128.997 7.35879 128.997 7.35879C128.997 8.9089 128.997 11.4427 128.997 12.9929H128.986H128.989Z" fill="black"/>
<path d="M76.5106 12.9675C76.5106 14.5258 76.5052 16.084 76.5161 17.6423C76.5161 17.8591 76.4536 17.9106 76.2499 17.897C75.9077 17.8726 75.5627 17.8808 75.2177 17.8672C74.7234 17.8347 74.3051 17.4932 74.1747 17.0163C74.1258 16.8564 74.0905 16.813 73.9574 16.9539C73.1399 17.7805 71.9746 18.168 70.823 17.9919C70.0787 17.9431 69.3698 17.6558 68.8048 17.1735C68.1367 16.5664 67.7591 15.7019 67.7673 14.8022C67.6939 13.0949 67.7374 7.36328 67.7374 7.36328C67.7374 7.36328 67.7374 7.83211 67.7374 7.36328H70.1303V13.5394C70.1168 13.9079 70.1575 14.2765 70.2499 14.6342C70.3775 15.1979 70.8366 15.6288 71.4069 15.7263C71.9149 15.8564 72.4527 15.8212 72.9389 15.6233C73.5826 15.355 74.0226 14.748 74.0769 14.0543C74.1177 13.5529 74.1258 13.0488 74.1068 12.5475C74.1068 11.1654 74.096 7.36328 74.096 7.36328H75.0303C75.0303 7.36328 75.0982 7.36328 75.1335 7.36328H76.5079V15.2304C76.5079 15.2304 76.5079 11.4201 76.5079 12.9703L76.5106 12.9675Z" fill="black"/>
<path d="M97.5398 17.7185C98.0667 16.7944 98.9169 15.4828 99.4683 14.5695C99.5063 14.5072 99.528 14.4286 99.6258 14.388C100.202 15.3175 100.783 16.247 101.351 17.1847C101.524 17.5478 101.867 17.8025 102.266 17.8595C103.062 17.9326 103.86 17.8893 104.708 17.8947C104.624 17.7754 104.572 17.6996 104.518 17.6264C103.352 15.995 102.184 14.369 101.008 12.7457C100.902 12.6373 100.902 12.4666 101.008 12.3582C102.13 10.7891 103.246 9.21729 104.363 7.6455C104.412 7.57775 104.493 7.51813 104.488 7.40702L101.622 7.50458C101.155 8.36636 100.245 9.69967 99.748 10.5425C99.7046 10.6156 99.6584 10.6888 99.5959 10.7864C99.0907 9.94628 98.5828 9.14683 98.121 8.32299C97.882 7.75119 97.3198 7.38263 96.7005 7.39076C96.0432 7.39618 95.3831 7.41786 94.6851 7.40702C94.7638 7.52084 94.8154 7.59401 94.867 7.66718C95.978 9.22271 97.0834 10.781 98.2025 12.3311C98.3139 12.4449 98.3112 12.6265 98.1971 12.7376C97.0237 14.3717 95.853 16.0085 94.6851 17.6481C94.6362 17.7185 94.5574 17.7782 94.5547 17.8947L97.5425 17.7212L97.5398 17.7185Z" fill="black"/>
<path d="M81.6014 0.414062C81.5933 2.42488 81.596 6.79338 81.596 8.8042H81.6041V14.7337C81.6096 15.4952 81.8948 15.7906 82.6662 15.7607C83.1822 15.7011 83.6793 15.9667 83.9183 16.4274C84.1492 16.9586 83.902 17.5764 83.3697 17.8068C83.2746 17.8474 83.1714 17.8745 83.0682 17.8854C82.4136 17.9477 81.7562 17.9152 81.1098 17.7932C80.0722 17.6334 79.29 16.7689 79.2302 15.7228C79.203 15.4816 79.1895 15.2377 79.1895 14.9965C79.1895 11.254 79.1895 7.50882 79.1895 3.76632L81.5987 0.414062H81.6014Z" fill="black"/>
<path d="M114.427 8.62844C114.525 8.6447 114.541 8.58507 114.569 8.54713C115.351 7.49024 116.435 7.38997 117.527 7.38997C118.618 7.38997 119.501 7.70704 119.501 7.70704L117.527 9.57422C117.527 9.57422 116.85 9.34116 115.875 9.57693C115.096 9.7585 114.528 10.4279 114.482 11.2273C114.433 11.8371 114.457 12.4495 114.457 13.062C114.457 14.3275 114.463 15.5904 114.465 16.856C114.395 17.398 113.955 17.818 113.409 17.8668C113.056 17.8831 112.703 17.8749 112.352 17.8993C112.129 17.9129 112.056 17.8587 112.056 17.6175C112.062 14.6202 112.059 11.6203 112.051 8.62301C111.994 8.07018 112.363 7.56341 112.909 7.44417C113.257 7.38997 113.61 7.371 113.963 7.38997C114.422 7.39539 114.425 7.38997 114.425 7.84796C114.425 8.11083 114.425 8.37098 114.425 8.63114L114.427 8.62844Z" fill="black"/>
<path d="M109.263 16.3655C109.274 16.5498 109.274 16.7341 109.258 16.9157C109.163 17.4278 108.739 17.8154 108.22 17.8669C107.946 17.8967 107.669 17.8967 107.394 17.8669C106.802 17.7937 106.359 17.2924 106.359 16.6989V16.0214C106.354 15.3818 106.87 14.8588 107.511 14.8534H107.522C107.698 14.8534 107.875 14.8534 108.052 14.8534C108.69 14.8181 109.236 15.3059 109.271 15.9428C109.271 15.9916 109.271 16.0403 109.271 16.0891V16.3655H109.263Z" fill="black"/>
<path d="M47.7051 10.5563C47.7377 9.16066 46.8087 7.9249 45.4588 7.56448C44.8286 7.3802 44.174 7.29077 43.5167 7.2989C42.2999 7.22844 40.806 7.80566 40.3958 8.00078C39.9857 8.1959 39.1138 8.73519 39.1138 8.73519L41.0396 9.98992C41.0396 9.98992 41.083 9.96553 41.1048 9.95198C41.9658 9.45605 42.9762 9.28803 43.9513 9.48315C44.8938 9.6322 45.2904 10.1173 45.2931 11.0577C45.2904 11.1877 45.2877 11.2907 45.2958 11.4587C45.2958 11.6511 45.2361 11.6891 45.0568 11.6891C44.0898 11.681 43.1202 11.6539 42.1532 11.6945C40.0183 11.7839 38.7444 13.2473 38.8721 15.1308C38.8884 16.1633 39.4805 17.0982 40.4067 17.5589C41.0423 17.876 41.7458 18.0278 42.4547 18.0034C43.5004 17.9871 44.5027 17.8164 45.2931 16.9221C45.2931 17.2229 45.3012 17.4559 45.2904 17.6863C45.2822 17.8462 45.3257 17.9112 45.4968 17.9004C45.8581 17.8814 46.2193 17.8814 46.5778 17.8733C47.1754 17.8489 47.6589 17.3855 47.7051 16.792C47.7159 16.6429 47.7078 16.4912 47.7078 16.3394C47.7078 14.4153 47.7186 12.4858 47.7051 10.559V10.5563ZM45.2877 14.2256C45.3501 14.9357 44.8911 15.5861 44.2012 15.7649C43.3212 16.0847 42.3515 16.0495 41.4986 15.6728C41.0613 15.521 40.7788 15.0955 40.806 14.6321C40.8386 14.1714 41.1645 13.7866 41.6127 13.6728C41.9576 13.559 42.3162 13.5021 42.6801 13.5075C43.0495 13.4966 43.4217 13.5021 43.7911 13.4994C44.2284 13.4994 44.6657 13.4994 45.103 13.4885C45.2442 13.4858 45.2985 13.5237 45.2904 13.6701C45.2795 13.8544 45.2904 14.0386 45.2904 14.2229L45.2877 14.2256Z" fill="black"/>
<path d="M92.2858 13.3481C92.897 13.321 93.3859 12.8278 93.4049 12.2181C93.3859 11.8658 93.3696 11.5135 93.3207 11.1666C93.0056 8.92813 91.5769 7.49996 89.3225 7.294C87.3831 7.11514 85.5633 7.90646 84.7403 10.0067C84.0395 11.7655 84.0449 13.7248 84.7566 15.4782C85.1939 16.7004 86.2423 17.6028 87.5162 17.8603C88.4696 18.0798 89.4637 18.0716 90.4144 17.8359C91.2211 17.657 91.9735 17.2912 92.6145 16.7681C93.0627 16.3725 93.1251 15.7004 92.7557 15.2289C92.3673 14.844 91.7698 14.7682 91.2971 15.0446C91.1179 15.153 90.9495 15.2858 90.7648 15.3752C90.0178 15.8169 89.1296 15.9497 88.2849 15.7519C87.3207 15.405 86.6986 14.4674 86.7584 13.4457C86.7801 13.2831 86.8888 13.3427 86.9621 13.3427C87.8557 13.3373 88.7466 13.34 89.6376 13.34C90.5176 13.3454 91.4031 13.3346 92.2858 13.3481ZM88.9286 11.6354H86.9866C86.9024 11.6354 86.8046 11.6761 86.8046 11.5135C86.8616 10.6056 87.4592 9.81972 88.3229 9.51891C89.4692 9.19913 90.6588 9.86579 90.9793 11.0067C91.0228 11.1585 91.0473 11.3129 91.0554 11.4701C91.0663 11.611 91.0228 11.6354 90.8951 11.6354C90.2378 11.6273 89.5832 11.63 88.9286 11.63V11.6354Z" fill="black"/>
</svg>
