<svg xmlns="http://www.w3.org/2000/svg" width="21.778" height="20.054" viewBox="0 0 21.778 20.054">
  <defs>
    <style>
      .cls-1 {
        fill: #fff;
      }
    </style>
  </defs>
  <path id="Контур_5076" data-name="Контур 5076" class="cls-1" d="M23.079-24.108a4.53,4.53,0,0,1-1.451,3.121l-.151.151-8.459,8.911a52.557,52.557,0,0,1-4.592,4.38A5.747,5.747,0,0,1,5.75-6a4.071,4.071,0,0,1-2.04-.773A3.9,3.9,0,0,1,2.136-8.366a12.517,12.517,0,0,1-.568-2.9,40.32,40.32,0,0,1-.267-4.8,3.664,3.664,0,0,1,1.177-2.608,3.583,3.583,0,0,1,2.6-1.2q1.355,0,1.615,2.478.027.287.041.424a12.416,12.416,0,0,0,.506,2.656q.287.753.78.753a1.765,1.765,0,0,0,.767-.445,17.583,17.583,0,0,0,1.341-1.211l8.692-8.61a12.681,12.681,0,0,1,1.957-1.656,2.853,2.853,0,0,1,1.465-.561.678.678,0,0,1,.643.342,2.508,2.508,0,0,1,.192,1.15Z" transform="translate(-1.301 26.052)"/>
</svg>
