<svg xmlns="http://www.w3.org/2000/svg" width="64" height="64" viewBox="0 0 64 64"><defs><style>.a{fill:none;}.b{fill:#fd8724;}.c{fill:#fff;stroke:#fd8724;stroke-width:2px;}.d{stroke:none;}</style></defs><g transform="translate(20 55) rotate(-90)"><g transform="translate(-9 -20)"><path class="a" d="M0,0H64V64H0Z"/></g><g transform="translate(-0.418 -0.709)"><path class="b" d="M15.508,6.747h0a1.122,1.122,0,0,0-1.589,0L8.747,11.919a1.122,1.122,0,0,0,0,1.589l5.172,5.172a1.122,1.122,0,0,0,1.589,0h0a1.122,1.122,0,0,0,0-1.589l-4.372-4.383,4.372-4.372A1.132,1.132,0,0,0,15.508,6.747Z" transform="translate(0 0)"/></g><g class="c" transform="translate(38 5) rotate(90)"><rect class="d" width="14" height="21" rx="7"/><rect class="a" x="1" y="1" width="12" height="19" rx="6"/></g><rect class="b" width="2" height="6" rx="1" transform="translate(33 11) rotate(90)"/></g></svg>