<svg xmlns="http://www.w3.org/2000/svg" width="24" height="24" viewBox="0 0 24 24"><defs><style>.a,.b{fill:none;}.a{stroke:#333;stroke-miterlimit:10;stroke-width:1.4px;fill-rule:evenodd;}</style></defs><g transform="translate(-1219 -11)"><path class="a" d="M13.826,13.7s1.251-.758,1.541-.913a.819.819,0,0,1,.77-.082c.274.172,2.585,1.737,2.779,1.876a.679.679,0,0,1,.022.923c-.267.389-2.51,2.845-3.032,2.828s-2.691-.066-6.782-4.232S4.986,7.722,4.969,7.191s2.508-2.7,2.889-2.974a.658.658,0,0,1,.907.022c.155.217,1.674,2.563,1.841,2.831a.849.849,0,0,1-.08.785c-.257.477-.665,1.063-.931,1.535A13.822,13.822,0,0,0,11.554,11.7,13.615,13.615,0,0,0,13.826,13.7Z" transform="translate(1219.393 11.671)"/><rect class="b" width="24" height="24" transform="translate(1219 11)"/></g></svg>