<svg xmlns="http://www.w3.org/2000/svg" xmlns:xlink="http://www.w3.org/1999/xlink" width="64" height="64" viewBox="0 0 64 64">
  <defs>
    <style>
      .cls-1, .cls-4 {
        fill: url(#linear-gradient);
      }

      .cls-2 {
        fill: #e3f4e8;
      }

      .cls-3 {
        clip-path: url(#clip-path);
      }

      .cls-4 {
        stroke: rgba(0,0,0,0);
      }
    </style>
    <linearGradient id="linear-gradient" x1="0.154" y1="0.215" x2="0.653" y2="0.823" gradientUnits="objectBoundingBox">
      <stop offset="0" stop-color="#2eab6e"/>
      <stop offset="1" stop-color="#007780"/>
    </linearGradient>
    <clipPath id="clip-path">
      <circle id="Эллипс_453" data-name="Эллипс 453" class="cls-1" cx="32" cy="32" r="32"/>
    </clipPath>
  </defs>
  <g id="Сгруппировать_2697" data-name="Сгруппировать 2697" transform="translate(-900 -8420)">
    <circle id="Эллипс_414" data-name="Эллипс 414" class="cls-2" cx="32" cy="32" r="32" transform="translate(900 8420)"/>
    <g id="Группа_масок_5" data-name="Группа масок 5" class="cls-3" transform="translate(900 8420)">
      <path id="Контур_5081" data-name="Контур 5081" class="cls-4" d="M-7987.013-10337.517a2.986,2.986,0,0,1-2.986-2.987v-14.939a2.983,2.983,0,0,1,.359-1.422l-.035.067h0a2.989,2.989,0,0,1,2.044-1.887l19.452-5.214a3.066,3.066,0,0,1,.775-.1,2.99,2.99,0,0,1,2.883,2.215l1.023,3.82a2.984,2.984,0,0,1,1.385,2.521v2.65l1.457,5.438a2.955,2.955,0,0,1-.147,1.97,3,3,0,0,1-1.31,1.429v3.453a2.987,2.987,0,0,1-2.988,2.987Zm-1.992-17.927v14.939a2,2,0,0,0,1.992,1.992h21.911a2,2,0,0,0,1.992-1.992v-14.939a2,2,0,0,0-1.992-1.992h-21.911A2,2,0,0,0-7989-10355.443Zm26.891,10.249a2.007,2.007,0,0,0,.5-1.9l-.5-1.85Zm-27.523-11.675a2.984,2.984,0,0,1,2.123-1.52A2.969,2.969,0,0,0-7989.637-10356.869Zm2.144-1.523.02,0Zm22.392-.039a2.932,2.932,0,0,1,.456.035l-.84-3.131a1.992,1.992,0,0,0-1.922-1.477,2.022,2.022,0,0,0-.516.068l-16.813,4.5h19.635Zm-22.329.029h0Zm.049-.006.007,0Zm.158-.016h0Zm.1-.006h0Zm.049,0h0Zm16.49,10.706a2.241,2.241,0,0,1,2.241-2.241,2.242,2.242,0,0,1,2.241,2.241,2.24,2.24,0,0,1-2.241,2.24A2.24,2.24,0,0,1-7970.579-10347.725Zm1,0a1.246,1.246,0,0,0,1.245,1.244,1.246,1.246,0,0,0,1.245-1.244,1.246,1.246,0,0,0-1.245-1.245A1.246,1.246,0,0,0-7969.583-10347.725Zm-19.177-8.674c-.114.361-.243.955-.243.955A3.709,3.709,0,0,1-7988.76-10356.4Z" transform="translate(8007.276 10381.816)"/>
    </g>
  </g>
</svg>
