<svg xmlns="http://www.w3.org/2000/svg" viewBox="0 0 414.37 466.18"><defs><style>.cls-1{fill:#00a174;}</style></defs><title>Ресурс 5</title><g id="Слой_2" data-name="Слой 2"><g id="Layer_1" data-name="Layer 1"><path class="cls-1" d="M82,466.18c-13.58-9.83-18.36-23.33-18.32-39.8Q64,266,63.76,105.57v-7.5H.45c-.18-2-.4-3.41-.41-4.84C0,74.11,0,55,.06,35.86.13,23.15,4.16,12.13,14.11,3.59a14.1,14.1,0,0,1,10-3.48Q158.28.23,292.49.18c18.8,0,37.6.31,56.38-.17,6.62-.17,11,2.45,15.06,7a39.93,39.93,0,0,1,10.42,25.79c.1,2.33.08,4.66.08,7q0,172.88,0,345.75v6.95h39.91v6.39c0,10.31-.09,20.63,0,30.94.15,15.23-5.9,27.33-18.08,36.41Zm276.49-73.66v-5.23q0-175.59,0-351.18a34.23,34.23,0,0,0-.71-7.9c-2.79-11.64-11.8-18.07-25.3-18.08q-127.71,0-255.42,0c-1.42,0-2.84.15-5.27.3,9.11,12.26,8.06,25.86,8.06,39.3q0,188.31,0,376.62c0,2.5,0,5,.14,7.48A23.35,23.35,0,0,0,103,456.17c12.36.35,23-8.21,24-20.6s.48-24.58.66-36.87c0-1.92.17-3.84.29-6.18Zm39.68,16.2H143.83c-1.38,16,2.94,32.69-8.34,47.52H371.31a47.53,47.53,0,0,0,6-.25c11.37-1.42,19.92-9.59,20.72-20.84C398.61,426.56,398.12,417.9,398.12,408.72Zm-335-327c0-17.87.21-35.28-.19-52.68-.07-3.19-2.11-6.67-4.09-9.42-6-8.3-16.67-11.37-26.75-8.17-9.31,3-15.73,11.32-16,21.87C15.84,46.92,16,60.55,16,74.18V81.7Z"/><path class="cls-1" d="M270.85,66a103.48,103.48,0,0,1-24.77,71.49c-8.22,9.77-18.16,17.52-29,24.16-1.11.68-3.52.3-4.77-.49-34.58-21.78-52.92-52.75-52.87-94,0-6.32.14-12.64-.06-19-.08-2.82,1-4.12,3.59-5,16.45-5.3,32.84-10.79,49.3-16a9.88,9.88,0,0,1,5.7,0c16.47,5.26,32.86,10.75,49.31,16,2.62.84,3.71,2.12,3.6,5C270.7,53.43,270.85,58.75,270.85,66Zm-16,2.81c0-3-.19-6,.06-9,.26-3.16-.87-4.73-4-5.73-10.9-3.49-21.67-7.38-32.58-10.86a11.57,11.57,0,0,0-6.62,0c-8.24,2.55-16.38,5.43-24.54,8.24-11.88,4.09-11.81,4.11-11.77,16.91.08,30.44,11.94,54.94,36.53,73.18,2.76,2.06,4.54,2.06,7.27-.05C243.12,123.09,254.73,98.75,254.9,68.77Z"/><path class="cls-1" d="M342.34,313.1v15.18H143.84V313.1Z"/><path class="cls-1" d="M262.67,249.37v15.06H96V249.37Z"/><path class="cls-1" d="M342.23,281.09v15.49h-159c0-4.5-.13-8.89.11-13.27,0-.84,1.46-1.78,2.44-2.32.64-.36,1.63-.1,2.46-.1H337.82C339.13,280.9,340.43,281,342.23,281.09Z"/><path class="cls-1" d="M342.33,217.64v15.19H183.52V217.64Z"/><path class="cls-1" d="M96.09,345h126.6v15.29H96.09Z"/><path class="cls-1" d="M159.74,192.84V177.77H270.41v15.07Z"/><path class="cls-1" d="M342.31,344.68v15.65c-1.63.09-3.21.26-4.79.26-31.1,0-62.2-.09-93.29.12-4.59,0-5.55-1.48-5.45-5.71.26-10.31.06-10.32,10.2-10.32h93.33Z"/><path class="cls-1" d="M95.7,296.43c0-4.49-.16-8.62.12-12.72.07-1,1.62-2.67,2.5-2.67,22.73-.15,45.46-.12,68.59-.12v15.51Z"/><path class="cls-1" d="M167,217.7v15.15H96V217.7Z"/><path class="cls-1" d="M278.88,264.45c0-4.36-.2-8.49.14-12.58a4.12,4.12,0,0,1,2.94-2.74c19.91-.17,39.83-.12,60.15-.12v15.44Z"/><path class="cls-1" d="M96.05,313h31.09v15.41H96.05Z"/><path class="cls-1" d="M211.93,120.77l-8.6-13.32c10.85-8.73,17.72-19.75,19.76-34.38l15.75,1.62C236.83,94.32,227.31,108.85,211.93,120.77Z"/></g></g></svg>