<svg xmlns="http://www.w3.org/2000/svg" xmlns:xlink="http://www.w3.org/1999/xlink" width="45" height="56" viewBox="0 0 45 56"><defs><clipPath id="b"><rect width="45" height="56"/></clipPath></defs><g id="a" clip-path="url(#b)"><path d="M0,0H45V56H0Z" fill="none"/><g transform="translate(-15688 -1468)"><path d="M15689,1474h32v2h-32Z" fill="#fff"/><rect width="25" height="2" rx="1" transform="translate(15689 1515)" fill="#fff"/><rect width="2.5" height="2.5" rx="1.25" transform="translate(15704 1518)" fill="#fff"/><path d="M15732.034,1523.994a1,1,0,0,1-1-.939c-.013-.2-.007-1.7.013-5.924.029-6.432.074-16.153-.014-17.881-.011-.209-.231-1.416-3.551-4.638-1.835-1.781-3.685-3.269-3.7-3.284a1,1,0,1,1,1.252-1.56c.078.063,1.932,1.554,3.834,3.4a28.98,28.98,0,0,1,2.711,2.957,5.792,5.792,0,0,1,1.455,3.025c.09,1.783.045,11.537.016,17.991-.014,2.975-.025,5.545-.016,5.8a1,1,0,0,1-.938,1.052Z" fill="#fff"/><path d="M15714.994,1523.994a1,1,0,0,1-1-.987c-.056-4.454.712-8.057,2.282-10.711a9.591,9.591,0,0,1,1.534-1.992c-.741-.644-1.841-1.608-2.951-2.61-3.864-3.484-4.281-4.184-4.426-4.513a4.983,4.983,0,0,1,.863-5.887c2.163-2.564,5.48-1.339,6.58-.646.175.11.5.315,5.161,4.841,2.269,2.2,4.486,4.385,4.508,4.406a1,1,0,1,1-1.4,1.426c-3.285-3.232-8.707-8.511-9.346-8.989a4.689,4.689,0,0,0-1.779-.575,2.369,2.369,0,0,0-2.215.853.982.982,0,0,1-.072.079,2.976,2.976,0,0,0-.523,3.569c.014.024.025.048.037.073.079.133.621.879,4.069,3.983,1.88,1.692,3.694,3.247,3.712,3.262a1,1,0,0,1,.354.879.979.979,0,0,1-.533.762,6.2,6.2,0,0,0-1.944,2.259c-1.64,2.9-1.943,6.767-1.909,9.505a1,1,0,0,1-.987,1.012Z" fill="#fff"/><path d="M15716.01,1524H15692a4,4,0,0,1-4-4v-48a4,4,0,0,1,4-4h26a4,4,0,0,1,4,4v29h-2v-29a2,2,0,0,0-2-2h-26a2,2,0,0,0-2,2v48a2,2,0,0,0,2,2h24.01Z" fill="#fff"/></g></g></svg>