<svg xmlns="http://www.w3.org/2000/svg" viewBox="0 0 16 16.01"><path d="M13,16h0c-2.2-.07-4.92-1.72-8.1-4.91S.07,5.19,0,3C0,2,2.33.3,2.35.28A1.21,1.21,0,0,1,4,.42C4.23.67,6,3.31,6.17,3.63A1.38,1.38,0,0,1,6.1,5L5.34,6.35a20.91,20.91,0,0,0,2,2.3,19.22,19.22,0,0,0,2.3,2c.39-.22,1.12-.64,1.36-.76a1.38,1.38,0,0,1,1.35-.08c.35.21,3,2,3.22,2.13a1,1,0,0,1,.41.76,1.44,1.44,0,0,1-.27.94S14,16,13,16ZM3.18,1a.51.51,0,0,0-.29.1A7.06,7.06,0,0,0,.94,3C1,5.39,3.5,8.36,5.57,10.44s5,4.55,7.46,4.63a7.74,7.74,0,0,0,1.92-2,.39.39,0,0,0,.08-.4c-.17-.12-2.84-1.89-3.16-2.09a.67.67,0,0,0-.41.11c-.34.17-1.59.89-1.59.89l-.24.14-.24-.14a23.89,23.89,0,0,1-5-5l-.13-.24.13-.23s.72-1.26.89-1.59a.7.7,0,0,0,.11-.42C5.18,3.83,3.45,1.2,3.28,1A.12.12,0,0,0,3.18,1Z" fill="#fff" fill-rule="evenodd"/></svg>