<svg xmlns="http://www.w3.org/2000/svg" width="32" height="32" viewBox="0 0 32 32"><g transform="translate(-410 -2079)"><rect width="32" height="32" transform="translate(410 2079)" fill="none"/><path d="M5.84,9.856a17.217,17.217,0,0,0,8.922,8.663l.012.005.764.34a2.25,2.25,0,0,0,2.739-.738l1.274-1.764a.25.25,0,0,0-.046-.341l-2.225-1.795a.25.25,0,0,0-.358.046l-.866,1.168a.75.75,0,0,1-.912.237,13.388,13.388,0,0,1-6.67-6.67A.75.75,0,0,1,8.713,8.1l1.168-.866a.25.25,0,0,0,.046-.358l-1.8-2.225A.25.25,0,0,0,7.791,4.6L6.018,5.882a2.25,2.25,0,0,0-.731,2.755L5.84,9.855ZM14.17,19.9a18.716,18.716,0,0,1-9.693-9.416v0l-.554-1.22A3.75,3.75,0,0,1,5.14,4.666l1.773-1.28a1.75,1.75,0,0,1,2.386.32l1.8,2.225a1.75,1.75,0,0,1-.32,2.5l-.67.5a11.892,11.892,0,0,0,5.118,5.118l.5-.67a1.75,1.75,0,0,1,2.5-.32l2.225,1.795a1.75,1.75,0,0,1,.32,2.387l-1.274,1.764a3.75,3.75,0,0,1-4.566,1.229Z" transform="translate(413.416 2082.945)" fill="#2eab6e" fill-rule="evenodd"/></g></svg>