<svg height="109.835" viewBox="0 0 100.934 109.835" width="100.934" xmlns="http://www.w3.org/2000/svg"><path d="m647.326 1552.774h-20.184l-20.653 20.653c-1.877 1.878-4.694 1.878-6.1 0a4.259 4.259 0 0 1 -1.408-3.285v-17.367h-8.919a22.035 22.035 0 0 1 -22.062-22.061v-43.653a22.035 22.035 0 0 1 22.061-22.061h56.8a22.035 22.035 0 0 1 22.061 22.061v43.653a21.352 21.352 0 0 1 -21.596 22.06zm13.142-65.713a13.432 13.432 0 0 0 -13.142-13.143h-56.8a13.432 13.432 0 0 0 -13.142 13.143v43.653a13.432 13.432 0 0 0 13.142 13.142h13.143a4.207 4.207 0 0 1 4.225 4.224v11.265l14.551-14.55a4.261 4.261 0 0 1 3.286-1.408h22.069a13.432 13.432 0 0 0 13.143-13.142v-43.184zm-69.938 17.368h56.8v8.918h-56.8zm39.428-17.368h17.367v8.919h-17.367zm-39.428 0h30.51v8.919h-30.51zm30.51 43.653h-30.51v-8.914h30.51z" fill="#fff" fill-rule="evenodd" transform="translate(-568 -1465)"/></svg>