<svg xmlns="http://www.w3.org/2000/svg" width="86.767" height="75.151" viewBox="0 0 86.767 75.151">
  <path id="quote" d="M-10171.4-9691.13q11-4.277,16.342-13.288a35.3,35.3,0,0,0,5.346-18.177,16.409,16.409,0,0,1-5.192.918,13.888,13.888,0,0,1-10.233-4.126q-4.124-4.124-4.123-12.067a15.583,15.583,0,0,1,4.887-11.913,17.587,17.587,0,0,1,12.524-4.582,19.657,19.657,0,0,1,15.426,6.721q5.958,6.719,5.959,19.552a55.311,55.311,0,0,1-3.057,19.244,49,49,0,0,1-7.941,14.206,47.973,47.973,0,0,1-10.692,9.774,46.905,46.905,0,0,1-11.608,5.654Zm-45.832,0q11-4.277,16.344-13.288a35.3,35.3,0,0,0,5.347-18.177,16.421,16.421,0,0,1-5.2.918,13.894,13.894,0,0,1-10.233-4.126q-4.124-4.124-4.123-12.067a15.583,15.583,0,0,1,4.887-11.913,17.589,17.589,0,0,1,12.526-4.582,19.66,19.66,0,0,1,15.426,6.721q5.959,6.719,5.957,19.552a55.337,55.337,0,0,1-3.054,19.244,48.965,48.965,0,0,1-7.944,14.206,47.91,47.91,0,0,1-10.692,9.774,46.872,46.872,0,0,1-11.605,5.654Z" transform="translate(10217.234 9754.365)" fill="#2eab6e"/>
</svg>
