<svg width="485" height="87" viewBox="0 0 485 87" fill="none" xmlns="http://www.w3.org/2000/svg">
<path d="M9.23654 86.6499L61.475 0.96875L125.478 86.6401L0 37.3735L99.6649 64.1928L61.4648 28.0326L9.22634 86.6401L9.23654 86.6499Z" fill="#008D80"/>
<path d="M9.23657 86.6499L61.475 17.3616V0.978546L9.23657 86.6499Z" fill="#2EAD6F"/>
<path d="M61.4749 17.3519V28.0327L99.675 64.1928L61.4749 17.3616V17.3519Z" fill="#2EAD6F"/>
<path d="M0 37.3735L107.77 72.6925L125.478 86.6499" fill="#2EAD6F"/>
<path d="M197.079 31.6965C200.953 27.7254 206.876 26.2583 212.269 27.9406C214.696 28.5862 216.796 30.0729 218.162 32.1073C218.519 32.6159 218.702 32.6355 219.171 32.2051C221.761 29.6425 225.166 27.97 228.856 27.4516C232.669 26.806 236.594 27.6472 239.755 29.7794C242.976 32.0975 244.791 35.7947 244.618 39.6484C244.72 46.9059 244.648 65.6657 244.648 65.6657H240.366C240.366 65.6657 237.899 65.5875 236.676 65.6657H235.697C235.697 65.6657 235.707 60.8926 235.707 59.0734V43.1989C235.748 41.7709 235.504 40.3526 234.984 39.0224C234.29 37.2227 232.68 35.9023 230.712 35.5111C226.675 34.308 222.393 36.4794 221.139 40.3526C220.854 41.2427 220.741 42.1719 220.823 43.1011C220.833 49.3902 220.823 65.6657 220.823 65.6657H214.757C214.757 65.6657 214.39 65.6755 211.872 65.6657C211.862 63.0542 211.872 65.6657 211.872 65.6657C211.872 65.6657 211.831 58.3985 211.831 56.1684V43.4728C211.902 41.8687 211.617 40.2646 210.975 38.7779C210.22 37.1054 208.671 35.8925 206.815 35.5208C205.47 35.1687 204.052 35.1492 202.686 35.4524C199.923 36.1762 197.823 38.3573 197.293 41.0569C197.13 41.7318 197.059 42.4262 197.089 43.1206C197.1 49.1751 197.13 65.6657 197.13 65.6657H187.812C187.812 65.6657 187.843 42.7783 187.822 31.8628C187.822 30.7575 188.281 29.7012 189.117 28.9383C189.892 28.1167 191.003 27.6667 192.155 27.7059C193.572 27.7646 194.999 27.745 196.416 27.7059C196.957 27.6961 197.11 27.8526 197.1 28.3612C197.059 29.4469 197.079 30.5228 197.079 31.6965Z" fill="#333333"/>
<path d="M484.136 47.8644C484.136 53.4591 484.156 64.6485 484.156 64.6485C484.156 64.6485 483.942 65.6266 483.157 65.5777C481.872 65.4897 480.578 65.519 479.283 65.4701C477.427 65.3527 475.857 64.1105 475.368 62.3989C475.184 61.8316 475.052 61.6653 474.552 62.1739C471.484 65.1571 467.11 66.5558 462.788 65.92C460.025 65.7537 457.394 64.7365 455.274 63.0249C452.725 60.8241 451.288 57.6845 451.318 54.3981C451.043 48.148 451.257 41.8784 451.206 35.6186C451.196 33.9265 451.165 27.5396 451.165 27.5396H460.178V49.7423C460.137 51.0138 460.269 52.2854 460.555 53.5178C460.963 55.6989 462.777 57.4008 465.061 57.7431C466.784 58.1539 468.599 58.0757 470.281 57.5182C472.921 56.6477 474.766 54.3589 474.991 51.6789C475.144 49.8695 475.184 48.0502 475.103 46.2407C475.103 41.3111 475.021 27.5298 475.021 27.5298C475.021 27.5298 476.469 27.6667 478.59 27.5298C478.743 27.52 478.895 27.5298 479.048 27.5298C479.517 27.5689 479.996 27.5591 480.465 27.5298C482.453 27.4809 484.166 27.5298 484.166 27.5298C484.166 27.5298 484.166 27.4711 484.166 27.5298C484.166 33.1245 484.166 42.2697 484.166 47.8644H484.125H484.136Z" fill="#333333"/>
<path d="M287.171 47.7764C287.171 53.4004 287.151 59.0245 287.191 64.6485C287.191 65.431 286.957 65.6168 286.192 65.5679C284.908 65.4799 283.613 65.5092 282.318 65.4603C280.463 65.343 278.893 64.1105 278.404 62.3891C278.22 61.812 278.087 61.6555 277.588 62.1641C274.519 65.1473 270.146 66.546 265.823 65.9102C263.03 65.7342 260.369 64.6974 258.248 62.9564C255.74 60.7655 254.323 57.6453 254.354 54.3981C254.079 48.2361 254.242 27.5493 254.242 27.5493C254.242 27.5493 254.242 29.2415 254.242 27.5493H263.223V49.8401C263.172 51.1703 263.325 52.5006 263.672 53.7916C264.151 55.8261 265.874 57.3813 268.015 57.7334C269.921 58.2029 271.94 58.0757 273.765 57.3617C276.181 56.3934 277.833 54.2024 278.036 51.6985C278.189 49.889 278.22 48.0698 278.149 46.2603C278.149 41.272 278.108 27.5493 278.108 27.5493H281.615C281.615 27.5493 281.87 27.5493 282.002 27.5493H287.161V55.9435C287.161 55.9435 287.161 42.1914 287.161 47.7861L287.171 47.7764Z" fill="#333333"/>
<path d="M366.1 64.9224C368.077 61.5871 371.268 56.8531 373.338 53.5569C373.481 53.3319 373.562 53.0483 373.929 52.9016C376.09 56.2564 378.272 59.6113 380.403 62.9955C381.055 64.3062 382.34 65.2256 383.839 65.431C386.826 65.6951 389.823 65.5386 393.004 65.5581C392.688 65.1278 392.494 64.8539 392.29 64.5898C387.917 58.7017 383.533 52.8331 379.118 46.9743C378.721 46.5831 378.721 45.9669 379.118 45.5756C383.329 39.9125 387.519 34.2395 391.709 28.5666C391.892 28.322 392.198 28.1069 392.178 27.7058L381.422 28.058C379.669 31.1683 376.254 35.9805 374.388 39.0224C374.225 39.2865 374.052 39.5506 373.817 39.9027C371.921 36.8706 370.014 33.9852 368.281 31.0118C367.384 28.948 365.274 27.6178 362.949 27.6472C360.482 27.6667 358.005 27.745 355.385 27.7058C355.68 28.1166 355.874 28.3807 356.068 28.6448C360.237 34.2591 364.387 39.8831 368.587 45.4778C369.005 45.8886 368.995 46.544 368.567 46.945C364.163 52.8429 359.769 58.7506 355.385 64.6681C355.201 64.9224 354.906 65.1376 354.895 65.5581L366.11 64.9322L366.1 64.9224Z" fill="#333333"/>
<path d="M306.276 2.46121C306.246 9.71868 306.256 25.4856 306.256 32.743H306.286V54.1438C306.307 56.8922 307.377 57.9583 310.273 57.8507C312.21 57.6356 314.075 58.5941 314.972 60.2569C315.839 62.1739 314.911 64.404 312.913 65.2354C312.556 65.3821 312.169 65.4799 311.781 65.519C309.324 65.744 306.857 65.6266 304.431 65.1865C300.536 64.6094 297.6 61.4893 297.376 57.7138C297.274 56.8433 297.223 55.963 297.223 55.0925C297.223 41.585 297.223 28.0677 297.223 14.5603L306.266 2.46121H306.276Z" fill="#333333"/>
<path d="M429.491 32.1073C429.858 32.166 429.919 31.9508 430.021 31.8139C432.957 27.9993 437.025 27.6374 441.123 27.6374C445.222 27.6374 448.535 28.7818 448.535 28.7818L441.123 35.5208C441.123 35.5208 438.585 34.6797 434.925 35.5306C431.999 36.1859 429.868 38.6018 429.695 41.4872C429.511 43.6879 429.603 45.8984 429.603 48.1089C429.603 52.6766 429.624 57.2346 429.634 61.8023C429.369 63.7584 427.717 65.2745 425.668 65.4505C424.343 65.5092 423.017 65.4799 421.702 65.5679C420.866 65.6168 420.591 65.4212 420.591 64.5507C420.611 53.733 420.601 42.9054 420.571 32.0877C420.357 30.0924 421.743 28.2634 423.792 27.833C425.097 27.6374 426.422 27.5689 427.748 27.6374C429.471 27.6569 429.481 27.6374 429.481 29.2904C429.481 30.2391 429.481 31.1781 429.481 32.1171L429.491 32.1073Z" fill="#333333"/>
<path d="M410.101 60.0319C410.141 60.697 410.141 61.3621 410.08 62.0174C409.723 63.866 408.133 65.2647 406.186 65.4505C405.156 65.5581 404.116 65.5581 403.087 65.4505C400.864 65.1865 399.202 63.377 399.202 61.235V58.7897C399.182 56.4814 401.119 54.5937 403.525 54.5741H403.566C404.228 54.5741 404.891 54.5741 405.554 54.5741C407.95 54.447 409.999 56.2075 410.131 58.5061C410.131 58.6821 410.131 58.8582 410.131 59.0342V60.0319H410.101Z" fill="#333333"/>
<path d="M179.055 39.0615C179.177 34.0243 175.69 29.5642 170.624 28.2634C168.258 27.5983 165.801 27.2755 163.334 27.3048C158.767 27.0505 153.16 29.1339 151.62 29.8381C150.081 30.5423 146.808 32.4887 146.808 32.4887L154.037 37.0173C154.037 37.0173 154.2 36.9293 154.281 36.8804C157.513 35.0905 161.306 34.484 164.965 35.1883C168.503 35.7262 169.992 37.477 170.002 40.871C169.992 41.3405 169.981 41.7122 170.012 42.3186C170.012 43.013 169.788 43.15 169.115 43.15C165.485 43.1206 161.846 43.0228 158.216 43.1695C150.203 43.4923 145.422 48.774 145.901 55.5718C145.962 59.2983 148.185 62.6728 151.661 64.3355C154.047 65.4799 156.687 66.0276 159.348 65.9396C163.273 65.8809 167.035 65.2647 170.002 62.037C170.002 63.1227 170.032 63.9638 169.992 64.7952C169.961 65.3723 170.124 65.607 170.766 65.5679C172.122 65.4995 173.478 65.4995 174.824 65.4701C177.067 65.3821 178.881 63.7095 179.055 61.5675C179.096 61.0295 179.065 60.4818 179.065 59.9341C179.065 52.9896 179.106 46.0256 179.055 39.0713V39.0615ZM169.981 52.3049C170.216 54.8676 168.493 57.215 165.903 57.8605C162.6 59.0147 158.961 58.8875 155.76 57.528C154.118 56.9802 153.058 55.4446 153.16 53.7721C153.282 52.1093 154.506 50.7204 156.188 50.3096C157.482 49.8988 158.828 49.6934 160.194 49.713C161.581 49.6739 162.977 49.6934 164.364 49.6836C166.005 49.6836 167.647 49.6836 169.288 49.6445C169.818 49.6347 170.022 49.7717 169.992 50.2998C169.951 50.9649 169.992 51.6301 169.992 52.2952L169.981 52.3049Z" fill="#333333"/>
<path d="M346.383 49.1457C348.677 49.0479 350.512 47.2677 350.583 45.067C350.512 43.7955 350.451 42.524 350.267 41.272C349.084 33.1929 343.722 28.0384 335.26 27.295C327.981 26.6495 321.151 29.5055 318.062 37.0858C315.431 43.4336 315.452 50.5052 318.123 56.8335C319.764 61.2447 323.699 64.5018 328.481 65.431C332.059 66.2232 335.79 66.1939 339.359 65.3429C342.386 64.6974 345.21 63.377 347.616 61.4893C349.299 60.0612 349.533 57.6356 348.147 55.9337C346.689 54.5448 344.446 54.2709 342.672 55.2686C341.999 55.6598 341.367 56.1391 340.674 56.4618C337.87 58.0561 334.536 58.5354 331.366 57.8214C327.747 56.5694 325.412 53.1852 325.636 49.4978C325.718 48.9109 326.126 49.1261 326.401 49.1261C329.755 49.1066 333.099 49.1163 336.443 49.1163C339.746 49.1359 343.07 49.0968 346.383 49.1457ZM333.782 42.9641H326.493C326.177 42.9641 325.81 43.1108 325.81 42.524C326.024 39.2474 328.267 36.4109 331.509 35.3252C335.811 34.171 340.276 36.5772 341.479 40.6949C341.642 41.2427 341.734 41.8002 341.765 42.3675C341.805 42.8761 341.642 42.9641 341.163 42.9641C338.696 42.9348 336.239 42.9446 333.782 42.9446V42.9641Z" fill="#333333"/>
</svg>
