<svg xmlns="http://www.w3.org/2000/svg" width="20" height="20" viewBox="0 0 20 20"><path d="M0,0H20V20H0Z" fill="none"/><path d="M15.378,5.958a6.625,6.625,0,0,0-5.4-1.925,6.667,6.667,0,1,0,6.7,9.5.835.835,0,0,0-.75-1.2.811.811,0,0,0-.733.442,5,5,0,1,1-4.525-7.108A4.929,4.929,0,0,1,14.186,7.15L12.928,8.408a.833.833,0,0,0,.583,1.425H16.5A.836.836,0,0,0,17.336,9V6.008a.836.836,0,0,0-1.425-.592l-.533.542Z" transform="translate(-0.669 -0.666)" fill="#2eab6e"/><path d="M10.675,3.8a6.805,6.805,0,0,1,4.7,1.879l.394-.4a1.02,1.02,0,0,1,.725-.3,1.042,1.042,0,0,1,1.043,1.037V9A1.035,1.035,0,0,1,16.5,10.033H13.511a1.033,1.033,0,0,1-.725-1.766L13.9,7.152a4.715,4.715,0,0,0-3.232-1.285,4.8,4.8,0,0,0-1.1,9.471,5.071,5.071,0,0,0,1.1.123,4.8,4.8,0,0,0,4.341-2.77,1.013,1.013,0,0,1,.915-.557,1.035,1.035,0,0,1,.93,1.486,6.85,6.85,0,1,1-6.9-9.785A7.07,7.07,0,0,1,10.675,3.8Zm4.7,2.445L15.236,6.1a6.416,6.416,0,0,0-4.562-1.9A6.67,6.67,0,0,0,10,4.232a6.47,6.47,0,1,0,6.5,9.215.639.639,0,0,0-.034-.62.621.621,0,0,0-.535-.294.611.611,0,0,0-.553.329,5.2,5.2,0,0,1-4.7,3,5.471,5.471,0,0,1-1.188-.132,5.2,5.2,0,1,1,4.844-8.719l.14.141-1.4,1.4a.629.629,0,0,0-.138.7.62.62,0,0,0,.58.388H16.5A.634.634,0,0,0,17.136,9V6.008a.634.634,0,0,0-.643-.637.612.612,0,0,0-.441.186Z" transform="translate(-0.669 -0.666)" fill="#2eab6e"/></svg>