<svg xmlns="http://www.w3.org/2000/svg" viewBox="0 0 478.15 465.23"><defs><style>.cls-1{fill:#00a174;}</style></defs><title>Ресурс 7</title><g id="Слой_2" data-name="Слой 2"><g id="Layer_1" data-name="Layer 1"><path class="cls-1" d="M478.15,123.75c-2.29,4.36-6,5.65-10.75,5.62-19.45-.14-38.91-.09-58.37,0-4.64,0-8.16-1-10.4-5.89-1.95-4.23-5.58-2-8.49-.52-9.44,4.85-18.45,10.84-28.34,14.47-31,11.4-62.23,10.51-93.27-.39-.94-.33-1.91-.6-2.82-1-13.53-5.92-27.67-7.23-42.34-6.84-21.6.58-43.24-.22-64.85.28-15.49.35-28.26-3.62-36.14-18.65-4.31,2.44-8.31,4.68-12.29,7-18.42,10.63-36.71,21.5-55.29,31.86-20.14,11.23-44.06-.48-47.65-23-2.06-12.93,4.28-25.53,16.48-32.57Q66.16,69.48,108.71,45c17.56-10.13,34.83-20.81,52.77-30.22C172.69,8.86,184.89,4.85,196.65,0h59.9a20,20,0,0,0,3.22,1c12.71,1.54,25.5,2.57,38.12,4.62,32.05,5.19,64.32,4.28,96.57,4.18,1.4,0,3.72-.75,4.07-1.7,2-5.52,6.18-6.23,11.2-6.21,19.12.1,38.25.16,57.37,0,4.75-.05,8.4,1.24,11,5.19ZM270.59,81.58H155.88a53.6,53.6,0,0,0-6.47.2A14.78,14.78,0,0,0,136.54,92.1c-3.95,11.05,3.77,21.18,16.34,21.24,25.45.1,50.9.47,76.33-.15A96.29,96.29,0,0,1,268.07,120a129.58,129.58,0,0,0,68.53,7.92C354,125.3,369,117.26,383.73,108.4a20.53,20.53,0,0,1,9.78-2.71c4-.07,5.05-1.31,5-5.18-.15-22.78-.07-45.55-.07-68.33,0-6.43,0-6.42-6.57-6.44-19.29-.07-38.68,1.09-57.85-.5-32.12-2.67-64.12-6.91-96.12-10.85-22.5-2.77-44.07.24-63.72,11.36-47.87,27.09-95.38,54.83-143,82.41-8.35,4.83-10.84,14-6.39,21.87s14,10.44,22.5,5.56q34.85-19.94,69.5-40.19a8.28,8.28,0,0,0,3.45-4.4c5-16.89,16-25.38,33.63-25.41q55.62-.09,111.25,0c1.76,0,3.51.18,5.43.28Zm144-63.52V113h47.2V18.06Z"/><path class="cls-1" d="M356.26,354.9l38.6-22.27q13.61-7.86,27.21-15.7c16.72-9.59,36-4.91,45.09,10.95,9,15.6,3.44,34.59-13,44.11-46,26.64-92,53.37-138.26,79.67-8.59,4.89-18.13,8.18-27.4,11.78A29.81,29.81,0,0,1,278.24,465c-13.14.17-26.29-.28-39.42.15-23.76.77-47.1-3.22-70.45-6.36-28.37-3.81-56.78-2.34-85.18-2.66a5.38,5.38,0,0,0-3.93,2.58c-1.88,3.77-4.75,5.31-8.79,5.3C50,464,29.55,464,9.1,464,3,463.94,0,460.84,0,454.6Q0,400.23,0,345.84c0-6.21,2.94-9.31,9.12-9.34,20.46-.11,40.92-.19,61.37.14a11.83,11.83,0,0,1,7.89,4c3.31,4,4.9,4.82,9.53,2.31,8.46-4.59,16.63-9.95,25.53-13.46,30.94-12.22,62.3-12,93.71-1.48.95.32,1.92.59,2.83,1,14.92,6.54,30.51,8.07,46.7,7.57,20.94-.66,41.91-.16,62.87-.16C338.9,336.45,344.29,339.1,356.26,354.9ZM207.62,384.26h66.9q25.46,0,50.89,0c7.33,0,13-2.8,15.93-9.75C346,363.36,338,352.44,325.1,352.4c-30.26-.08-60.53,0-90.8-.09a32.32,32.32,0,0,1-9.26-1.45c-7.93-2.46-15.72-5.38-23.63-7.91-33.44-10.67-65.81-9.2-96.75,8.61-7.64,4.4-14.56,10.8-25,8.62v5.72c0,22.78.14,45.56-.12,68.33,0,4.95,1.54,6,6.21,6,20.12-.15,40.33-1.09,60.33.5,29.48,2.35,58.86,6.16,88.18,10.16,26.63,3.64,51.61.19,75-13.54,17.91-10.53,36-20.82,54-31.21q40.57-23.43,81.17-46.87c10.58-6.12,13.78-14.73,8.84-23.48-4.84-8.57-14.37-10.19-24.67-4.24-22,12.72-44.07,25.37-66,38.21-1.94,1.13-4.05,3.15-4.65,5.19C353,391.62,342,400.19,324.67,400.2q-55.87,0-111.75,0c-1.75,0-3.5-.16-5.3-.24ZM63.29,447.82v-95h-47v95Z"/><path class="cls-1" d="M231.51,145.52H247c-2.25,7.52,2.62,10.75,7.78,14a8.9,8.9,0,0,1,3.59,4c1.88,5.32,5.73,5.72,10.61,5.65,17.13-.26,34.26-.1,51.39-.1h6.09v15.51l-10.2.7c.59,1.58.93,2.79,1.48,3.9,7.06,14.12,13.83,28.4,21.36,42.27,3.75,6.89,3.92,13.5,1.91,20.63-5.3,18.78-23.73,30.65-43.88,28.24-18.18-2.17-33.11-18.33-33.81-37a18.71,18.71,0,0,1,1.86-8.56c7.38-15.25,15-30.38,22.59-45.55.56-1.14,1-2.33,1.88-4.27-9.2,0-17.77-.1-26.34.12-1,0-2,1.75-3,2.73-3.47,3.46-7,6.88-10.35,10.46-1.22,1.29-2.87,3-2.88,4.5-.16,30.26-.12,60.52-.09,90.79a20.67,20.67,0,0,0,.51,3h39v15.66H191.77V296.68h39c.14-2.2.35-3.95.35-5.7,0-28.76,0-57.53.07-86.3,0-3.3-.93-5.15-3.86-7.15-3.71-2.52-6.41-6.5-9.63-9.78-1-1.06-2.32-2.62-3.53-2.66-8.28-.23-16.57-.12-25.49-.12a40.78,40.78,0,0,0,1.47,4c7.32,14.74,14.48,29.55,22.13,44.12a22.76,22.76,0,0,1,2,15.89,39.72,39.72,0,0,1-78.45-4.35,20.54,20.54,0,0,1,2-10c7.19-15,14.75-29.77,22.17-44.64.66-1.31,1.24-2.64,2.16-4.62l-10.42-.7V169.08h6.1c18.13,0,36.26-.06,54.38.06,3,0,4.65-.82,6.3-3.51a24.2,24.2,0,0,1,7.73-8.19c3.82-2.24,5.69-4.65,5-9A13.1,13.1,0,0,1,231.51,145.52ZM175.34,195c-6.49,13-12.47,25-18.73,37.47H194Zm146.27,37.56c-6.35-12.7-12.35-24.68-18.79-37.54l-18.71,37.54ZM196.94,249.34H153.49a23,23,0,0,0,22.68,15.38C185.83,264.35,194.46,258.07,196.94,249.34Zm84.32-.17c2.22,9,11.68,15.6,21.63,15.56s19.44-6.72,21.47-15.56ZM246.89,177a7.81,7.81,0,0,0-15.62,0,7.81,7.81,0,1,0,15.62,0Z"/><path class="cls-1" d="M159.47,296.94c1.81-.15,2.93-.29,4.06-.32,12.8-.28,13.29.2,11.77,12.91-.13,1.12-1.73,2.85-2.76,2.93-4.08.34-8.21.14-13.07.14V296.94Z"/><path class="cls-1" d="M318.2,312.34H302.76c0-4.53-.17-8.79.12-13a3.74,3.74,0,0,1,2.61-2.56c4.09-.29,8.22-.12,12.71-.12Z"/></g></g></svg>