<svg xmlns="http://www.w3.org/2000/svg" width="58" height="58" viewBox="0 0 58 58" style="fill: #20A038;fill-rule: evenodd;">
  <path id="icon" d="M200.783,1028.85h11.14a0.925,0.925,0,1,0,0-1.85h-11.14A0.925,0.925,0,1,0,200.783,1028.85Zm5.57,14.86h-7.427a0.93,0.93,0,0,0,0,1.86h7.427A0.93,0.93,0,0,0,206.353,1043.71Zm-2.785-4.64a0.925,0.925,0,0,0-.929-0.93h-5.57a0.93,0.93,0,0,0,0,1.86h5.57A0.931,0.931,0,0,0,203.568,1039.07Zm-6.5-4.64h13a0.93,0.93,0,0,0,0-1.86h-13A0.93,0.93,0,0,0,197.069,1034.43Zm16.711,9.28h-3.714a0.93,0.93,0,0,0,0,1.86h3.714A0.93,0.93,0,0,0,213.78,1043.71Zm13.249,7.07a0.926,0.926,0,0,0,0,1.31l1.97,1.97a0.927,0.927,0,1,0,1.313-1.31l-1.969-1.97A0.934,0.934,0,0,0,227.029,1050.78Zm14.611,13.3-8.8-8.81a0.944,0.944,0,0,0-.657-0.27h0a0.915,0.915,0,0,0-.657.28l-2.618,2.63a0.929,0.929,0,0,0,1.317,1.31l1.961-1.97,8.145,8.14a2.785,2.785,0,1,1-3.938,3.94l-13.3-13.3a0.927,0.927,0,0,0-1.313,1.31l13.3,13.3A4.64,4.64,0,1,0,241.64,1064.08Zm-12.078-27.8a22.281,22.281,0,1,0-22.281,22.28A22.31,22.31,0,0,0,229.562,1036.28Zm-22.281,20.43a20.425,20.425,0,1,1,20.425-20.43A20.453,20.453,0,0,1,207.281,1056.71Zm10.212-18.57h-11.14a0.93,0.93,0,0,0,0,1.86h11.14A0.93,0.93,0,0,0,217.493,1038.14Zm0-5.57H213.78a0.93,0.93,0,0,0,0,1.86h3.713A0.93,0.93,0,0,0,217.493,1032.57Z" transform="translate(-185 -1014)"/>
</svg>
