<svg xmlns="http://www.w3.org/2000/svg" xmlns:xlink="http://www.w3.org/1999/xlink" width="64" height="64" viewBox="0 0 64 64">
  <defs>
    <style>
      .cls-1, .cls-4 {
        fill: url(#linear-gradient);
      }

      .cls-2 {
        fill: #e3f4e8;
      }

      .cls-3 {
        clip-path: url(#clip-path);
      }

      .cls-4 {
        stroke: rgba(0,0,0,0);
        stroke-miterlimit: 10;
      }
    </style>
    <linearGradient id="linear-gradient" x1="0.154" y1="0.215" x2="0.653" y2="0.823" gradientUnits="objectBoundingBox">
      <stop offset="0" stop-color="#2eab6e"/>
      <stop offset="1" stop-color="#007780"/>
    </linearGradient>
    <clipPath id="clip-path">
      <circle id="Эллипс_453" data-name="Эллипс 453" class="cls-1" cx="32" cy="32" r="32"/>
    </clipPath>
  </defs>
  <g id="Сгруппировать_2633" data-name="Сгруппировать 2633" transform="translate(-900 -8420)">
    <circle id="Эллипс_414" data-name="Эллипс 414" class="cls-2" cx="32" cy="32" r="32" transform="translate(900 8420)"/>
    <g id="Группа_масок_5" data-name="Группа масок 5" class="cls-3" transform="translate(900 8420)">
      <path id="Объединение_100" data-name="Объединение 100" class="cls-4" d="M14.184,29.8a17.673,17.673,0,0,1-6.468-4.663,26.283,26.283,0,0,1-4.761-7.379A38.726,38.726,0,0,1,.023,5.641L0,5.387,5.3,0H22.284l5.187,5.378-.009.236a36.263,36.263,0,0,1-2.309,11.774,26.052,26.052,0,0,1-4.371,7.42,18.53,18.53,0,0,1-6.2,4.976l-.194.082ZM1.148,5.8a37.487,37.487,0,0,0,2.8,11.466,25.229,25.229,0,0,0,4.53,7.065,19.639,19.639,0,0,0,4.208,3.486,12.7,12.7,0,0,0,1.658.858,13.507,13.507,0,0,0,1.612-.958,20.423,20.423,0,0,0,4.024-3.674,25,25,0,0,0,4.158-7.1A35.018,35.018,0,0,0,26.345,5.806l-4.531-4.7H5.76ZM11.206,17.166a1.66,1.66,0,0,1-1.66-1.661V12.738a1.66,1.66,0,0,1,1.573-1.658,8.861,8.861,0,0,1-.029-1.163,4.188,4.188,0,0,1,.848-2.607,2.37,2.37,0,0,1,1.845-.8h.05a2.4,2.4,0,0,1,1.877.854,4.337,4.337,0,0,1,.848,2.653,8.755,8.755,0,0,1-.016,1.058h.2a1.66,1.66,0,0,1,1.66,1.661v2.767a1.66,1.66,0,0,1-1.66,1.661Zm-.554-4.428v2.767a.554.554,0,0,0,.554.554h5.535a.554.554,0,0,0,.554-.554V12.738a.554.554,0,0,0-.554-.554H11.206A.554.554,0,0,0,10.652,12.738Zm4.781-1.661a4.64,4.64,0,0,0-.568-3,1.328,1.328,0,0,0-1.051-.459h-.033a1.261,1.261,0,0,0-1.008.417,4.585,4.585,0,0,0-.544,3.041ZM13.42,14.952V14.4a.553.553,0,1,1,0-1.106h1.107a.553.553,0,1,1,0,1.106v.554a.554.554,0,1,1-1.107,0Z" transform="translate(18.265 19.744)"/>
    </g>
  </g>
</svg>
