<svg xmlns="http://www.w3.org/2000/svg" xmlns:xlink="http://www.w3.org/1999/xlink" width="64" height="64" viewBox="0 0 64 64">
  <defs>
    <style>
      .cls-1, .cls-4 {
        fill: url(#linear-gradient);
      }

      .cls-2 {
        fill: #e3f4e8;
      }

      .cls-3 {
        clip-path: url(#clip-path);
      }

      .cls-4 {
        stroke: rgba(0,0,0,0);
        stroke-miterlimit: 10;
      }
    </style>
    <linearGradient id="linear-gradient" x1="0.154" y1="0.215" x2="0.653" y2="0.823" gradientUnits="objectBoundingBox">
      <stop offset="0" stop-color="#2eab6e"/>
      <stop offset="1" stop-color="#007780"/>
    </linearGradient>
    <clipPath id="clip-path">
      <circle id="Эллипс_453" data-name="Эллипс 453" class="cls-1" cx="32" cy="32" r="32"/>
    </clipPath>
  </defs>
  <g id="Сгруппировать_2609" data-name="Сгруппировать 2609" transform="translate(-900 -8420)">
    <circle id="Эллипс_414" data-name="Эллипс 414" class="cls-2" cx="32" cy="32" r="32" transform="translate(900 8420)"/>
    <g id="Группа_масок_5" data-name="Группа масок 5" class="cls-3" transform="translate(900 8420)">
      <path id="Объединение_98" data-name="Объединение 98" class="cls-4" d="M3.2,29.867a3.2,3.2,0,0,1-3.2-3.2V3.2A3.2,3.2,0,0,1,3.2,0H26.666a3.2,3.2,0,0,1,3.2,3.2V26.667a3.2,3.2,0,0,1-3.2,3.2Zm-2.133-3.2A2.135,2.135,0,0,0,3.2,28.8H26.666A2.135,2.135,0,0,0,28.8,26.667V8.533H25.6A.534.534,0,0,1,25.066,8V4.8H19.733V7.466h2.134A.534.534,0,0,1,22.4,8v2.667a.533.533,0,0,1-1.066,0V8.533H8A.533.533,0,0,1,8,7.466H18.666V4.8H16.533a.533.533,0,1,1,0-1.067H25.6a.533.533,0,0,1,.533.534v3.2H28.8V3.2a2.136,2.136,0,0,0-2.133-2.134H8.533V3.733h4.8a.533.533,0,1,1,0,1.067H4.8v5.867a.533.533,0,0,1-1.067,0v-6.4a.533.533,0,0,1,.533-.534h3.2V1.067H3.2A2.136,2.136,0,0,0,1.067,3.2V20H3.733V15.467a.533.533,0,0,1,.533-.533h3.2V12.8a.533.533,0,0,1,1.066,0v8.534h12.8V15.467a.533.533,0,0,1,1.066,0v6.4a.533.533,0,0,1-.533.534H8a.533.533,0,0,1-.533-.534V16H4.8v9.067H17.066a.533.533,0,1,1,0,1.066H4.266a.533.533,0,0,1-.533-.534V21.066H1.067ZM25.6,26.133H21.866a.533.533,0,1,1,0-1.066h3.2V12.8a.533.533,0,0,1,1.066,0V25.6a.533.533,0,0,1-.533.534Zm-7.466-7.466h-6.4a.534.534,0,0,1-.533-.534v-6.4a.534.534,0,0,1,.533-.534h6.4a.534.534,0,0,1,0,1.067H12.266V17.6H17.6V16.533a.533.533,0,0,1,1.066,0v1.6a.534.534,0,0,1-.533.534Z" transform="translate(17.067 17.067)"/>
    </g>
  </g>
</svg>
