<svg xmlns="http://www.w3.org/2000/svg" viewBox="0 0 445.23 466.15"><defs><style>.cls-1{fill:#00a174;}</style></defs><title>иконка-5</title><g id="Слой_2" data-name="Слой 2"><g id="Layer_1" data-name="Layer 1"><path class="cls-1" d="M233.64,0c8.25,1.8,16.68,3,24.73,5.5a120.53,120.53,0,0,1,84.92,120.93c-2.57,54.89-41.45,101.78-95,112.59-46.32,9.34-86.46-3.7-117.22-39.67-30.9-36.13-36.82-77.75-21-122.46,3-8.36,7.66-11.32,13.4-9,5.43,2.17,6.56,8,3.7,15.78-14.32,39-8.36,75.09,19.46,105.92,27.54,30.53,62.64,40.27,102.52,30.6,41-9.93,71.84-47.21,75.53-90C329,80.06,297.52,34.69,249.35,21.65c-22.12-6-43.78-4.4-65,4-.93.37-1.82.83-2.77,1.13-5.37,1.72-10-.21-12-5a8.43,8.43,0,0,1,5.29-11.69C185.54,6.61,196.5,4,207.37,1c1.42-.39,2.87-.66,4.31-1Z"/><path class="cls-1" d="M84.29,218.83c2.23-.17,4.17-.36,6.11-.47,8.47-.51,16.62,1.2,22.75,7,17.19,16.39,35,32.28,49.18,51.51,11.54,15.62,17.38,33,17,52.6-.37,19.12,0,38.25-.15,57.37,0,3.46.9,5.11,4.37,6.45,9.58,3.71,14.81,11.12,15.15,21.42.31,9.47.29,19,0,28.44A23.33,23.33,0,0,1,175.51,466q-51.89.25-103.79,0c-12.67-.06-22.62-9.75-23.29-22.74a265.71,265.71,0,0,1,0-28.92c.69-12.05,7.81-19.3,18.94-22.52,2.68-16.38-1.14-30.62-13-42.24-9.72-9.55-19.72-18.81-29.45-28.35a156.32,156.32,0,0,1-12.19-13.16C3.16,296.18-1.32,282.36.34,267.17Q7.8,199,16,130.94a32.34,32.34,0,0,1,31.91-28.76c16.2,0,29.84,12.16,31.85,29.33,1.27,10.88,1.35,21.89,1.86,32.85.79,16.95,1.48,33.89,2.23,50.84C83.93,216.32,84.13,217.44,84.29,218.83ZM161,391.22v-5.88c0-19.12-.28-38.24.1-57.35.29-15.18-3.9-29-13.62-40.18-14.37-16.52-29.67-32.26-45.16-47.74-7.55-7.55-20.69-3.47-23.83,6.68-1.95,6.3-.09,11.7,4.59,16.33Q100.6,280.43,118,298c4.6,4.65,4.83,9.74,1,13.67s-9.25,3.72-13.7-.69C93,298.78,80.63,286.69,68.67,274.22c-10.6-11-12-26.84-4.47-40.18A13.76,13.76,0,0,0,66,227.11q-1.71-44.61-3.81-89.19a26.92,26.92,0,0,0-2-9.16c-2.18-5.09-6.17-8.24-12-8.26a12.83,12.83,0,0,0-12.32,7.83,33.43,33.43,0,0,0-2.62,10C28.45,179.14,24.23,220,19,260.69c-2.28,17.69,2.31,31.95,15.19,44.09,12.44,11.74,24.83,23.56,36.56,36C81.5,352.22,87,366.13,86,382.17c-.17,2.93,0,5.88,0,9.05Zm-37.09,18.56c-16.45,0-32.9,0-49.35,0-6.4,0-7.92,1.59-8,8-.06,7.64-.09,15.28,0,22.92.08,5.28,2,7.19,7.33,7.2q49.59.06,99.2,0c5.47,0,7.46-2.09,7.52-7.58.07-7,0-14,0-20.93,0-8.3-1.3-9.64-9.43-9.65Q147.56,409.75,123.88,409.78Z"/><path class="cls-1" d="M377.86,391.83c13.68,4.68,19.2,12.36,19.23,26.75,0,7.48.1,15,0,22.45-.25,15.06-10.24,25-25.19,25.05q-50.13.07-100.28,0c-15,0-24.94-10.06-25.05-25.08-.07-8.48-.1-17,0-25.44.14-10.69,5.73-18.85,15.83-22.47,3.2-1.15,3.8-2.8,3.78-5.81-.11-18.79.43-37.6-.18-56.37-.77-23.61,7.27-43.88,22.64-61.07,13.39-15,27.79-29.07,42.05-43.24,6.44-6.39,14.78-8.7,23.82-8.28,2,.09,3.95.29,6.53.49.16-1.9.39-3.63.47-5.38q1.59-36.87,3.15-73.75c.35-8.42,1.7-16.53,6.68-23.64a31.45,31.45,0,0,1,33.22-12.92,32.3,32.3,0,0,1,24.66,27.09c2.8,20.92,5,41.92,7.44,62.88,2.58,22.29,4.68,44.64,7.81,66.85,3.37,23.84-4.53,43.05-21.73,59.12-10,9.3-20,18.58-29.61,28.19-7.25,7.2-13.77,15.21-15.13,25.77C377.22,379.05,377.86,385.26,377.86,391.83Zm-18.51-.63c0-3.94.11-7.25,0-10.56a51.86,51.86,0,0,1,12.5-36.42c6.39-7.62,13.47-14.69,20.48-21.76,8.06-8.15,16.68-15.76,24.54-24.09,8.21-8.71,11.17-19.46,9.83-31.34q-7-61.71-14-123.41a73.93,73.93,0,0,0-2.43-13.69A13.54,13.54,0,0,0,397,120.48c-5.61.15-10.5,3.87-12.44,9.87a30.41,30.41,0,0,0-1.37,7.82c-1.34,29.57-2.65,59.14-3.77,88.72a14.87,14.87,0,0,0,1.87,7.41c6.94,12.43,6.37,27.87-3.19,38.25-12.5,13.55-25.82,26.36-39,39.3a8.85,8.85,0,0,1-12.62-.11c-3.56-3.56-3.67-8.39-.18-12.55,1.39-1.65,3-3.13,4.5-4.66,10.7-10.69,21.5-21.29,32.09-32.1,6.27-6.4,6.31-15.46.48-21.52a14.69,14.69,0,0,0-21.06-.32c-13,12.89-26.06,25.69-38.36,39.19-13.32,14.62-20.72,31.64-19.74,52.16.86,17.92.18,35.92.18,53.88v5.38ZM321.56,448c16.45,0,32.9,0,49.35,0,5.94,0,7.8-1.83,7.86-7.7.09-7.81.11-15.62,0-23.43-.08-5.19-1.79-7-7-7q-50.1-.1-100.2,0c-4.95,0-6.84,2.09-6.9,7.11-.1,7.48-.05,15,0,22.43,0,6.78,1.79,8.58,8.53,8.59Q297.38,448,321.56,448Z"/><path class="cls-1" d="M222.63,133.51c14.79,0,29.57,0,44.36,0,11.47,0,17,6,16.59,17.43-1.12,29.8-27.63,54.24-59.62,55-33.33.77-61.81-25-62.25-56.36-.14-9.87,5.59-15.93,15.55-16C192.38,133.42,207.51,133.52,222.63,133.51ZM180.78,152c-.41,18.68,20.09,35.85,42.17,35.73,21.81-.11,42.21-17.48,41.58-35.73Z"/><path class="cls-1" d="M179.61,76.47a35.11,35.11,0,0,1,24.56,9.27c4.48,4,5.16,9.74,1.68,13.66s-8.71,4-13.36.3c-8.64-6.92-16.51-6.92-25.24,0-4.73,3.74-9.82,3.63-13.34-.3s-2.93-9.52,1.65-13.61A34.86,34.86,0,0,1,179.61,76.47Z"/><path class="cls-1" d="M295.05,94.41c-2.34,2.85-3.91,5.84-6.37,7.52-3.54,2.42-7.41,1.29-10.5-1.53-4.62-4.21-10-6.19-16-4.67a27.94,27.94,0,0,0-9.16,4.61c-5,3.6-10.37,3.59-13.76-.57-3.16-3.88-2.39-9.39,1.86-13.31,13.61-12.53,35-12.67,48.56-.1C291.69,88.26,292.87,91.09,295.05,94.41Z"/><path class="cls-1" d="M143.74,50.93a9.13,9.13,0,0,1-9.16-8.68,9.06,9.06,0,0,1,18.1-.72A9.1,9.1,0,0,1,143.74,50.93Z"/></g></g></svg>