<svg xmlns="http://www.w3.org/2000/svg" width="32" height="32" viewBox="0 0 32 32"><defs><style>.a{fill:none;}.b{fill:#20a038;}</style></defs><g transform="translate(32 32) rotate(180)"><path class="a" d="M0,0H32V32H0Z"/><g transform="translate(11.223 8.557)"><path class="b" d="M16.808,6.807h0a1.328,1.328,0,0,0-1.88,0l-6.12,6.12a1.328,1.328,0,0,0,0,1.88l6.12,6.12a1.328,1.328,0,0,0,1.88,0h0a1.328,1.328,0,0,0,0-1.88l-5.173-5.187,5.173-5.173A1.34,1.34,0,0,0,16.808,6.807Z" transform="translate(-8.418 -6.418)"/></g></g></svg>