<svg xmlns="http://www.w3.org/2000/svg" width="42" height="42" viewBox="0 0 42 42"><rect width="42" height="42" fill="none"/><g transform="translate(3.5 1.75)"><path d="M34.375,2.75V6.285a23.576,23.576,0,0,0-29.75,0V2.75H2V11.5h8.75V8.875H5.657a20.874,20.874,0,0,1,27.685,0H28.25V11.5H37V2.75Z" transform="translate(-2 -1)" fill="#fff"/><g transform="translate(3.5 7)"><path d="M30.057,20.347l-6.65-2.922a1.843,1.843,0,0,0-.77-.175H21.5V9.6a4.53,4.53,0,0,0-3.972-4.585A4.389,4.389,0,0,0,12.75,9.375V23.637l-3.273-.7a3.443,3.443,0,0,0-3.027.98L4,26.385l8.96,9.082A3.441,3.441,0,0,0,15.427,36.5H26.89a3.48,3.48,0,0,0,3.447-2.923l1.61-9.52A3.5,3.5,0,0,0,30.057,20.347ZM28.5,23.48,26.89,33H15.427L8.952,26.385l7.3,1.558V9.375a.875.875,0,1,1,1.75,0V20.19h3.08Z" transform="translate(-4 -5)" fill="#fff"/></g></g></svg>