<svg xmlns="http://www.w3.org/2000/svg" xmlns:xlink="http://www.w3.org/1999/xlink" width="64" height="64" viewBox="0 0 64 64">
  <defs>
    <style>
      .cls-1, .cls-4 {
        fill: url(#linear-gradient);
      }

      .cls-2 {
        fill: #e3f4e8;
      }

      .cls-3 {
        clip-path: url(#clip-path);
      }

      .cls-4 {
        stroke: rgba(0,0,0,0);
        stroke-miterlimit: 10;
      }
    </style>
    <linearGradient id="linear-gradient" x1="0.154" y1="0.215" x2="0.653" y2="0.823" gradientUnits="objectBoundingBox">
      <stop offset="0" stop-color="#2eab6e"/>
      <stop offset="1" stop-color="#007780"/>
    </linearGradient>
    <clipPath id="clip-path">
      <circle id="Эллипс_452" data-name="Эллипс 452" class="cls-1" cx="32" cy="32" r="32"/>
    </clipPath>
  </defs>
  <g id="Сгруппировать_2607" data-name="Сгруппировать 2607" transform="translate(-485 -8420)">
    <circle id="Эллипс_413" data-name="Эллипс 413" class="cls-2" cx="32" cy="32" r="32" transform="translate(485 8420)"/>
    <g id="Группа_масок_4" data-name="Группа масок 4" class="cls-3" transform="translate(485 8420)">
      <path id="Объединение_97" data-name="Объединение 97" class="cls-4" d="M3.2,29.867a3.026,3.026,0,0,1-3.2-2.8V2.8A3.025,3.025,0,0,1,3.2,0H21.335a3.024,3.024,0,0,1,3.2,2.8v9.466H23.468V2.8A2.016,2.016,0,0,0,21.335.932H3.2A2.017,2.017,0,0,0,1.067,2.8V27.066A2.017,2.017,0,0,0,3.2,28.933H21.335a2.015,2.015,0,0,0,2.133-1.868v-2h1.066v2a3.024,3.024,0,0,1-3.2,2.8Zm24.765-4.485-2.64-2.64c-.017-.017-.034-.036-.05-.055a5.331,5.331,0,1,1,1.133-1.121c.016.015.033.03.049.047l2.64,2.639a.8.8,0,1,1-1.132,1.13Zm-10.1-7a4.267,4.267,0,1,0,4.267-4.268A4.271,4.271,0,0,0,17.866,18.381ZM3.568,22.4c-.2,0-.367-.239-.367-.533s.165-.534.367-.534H9.085a.533.533,0,0,1,0,1.066H3.568Zm.167-5.333a.533.533,0,1,1,0-1.066H15.467a.533.533,0,0,1,0,1.066Zm0-5.333a.533.533,0,1,1,0-1.066H20.8a.533.533,0,0,1,0,1.066Zm0-5.333a.533.533,0,1,1,0-1.066H20.8a.533.533,0,0,1,0,1.066Z" transform="translate(18.733 17.066)"/>
    </g>
  </g>
</svg>
