<svg xmlns="http://www.w3.org/2000/svg" width="73.587" height="73.594" viewBox="0 0 73.587 73.594">
  <path id="icon" d="M430.591,4096.838v-.059h0v-.133a.105.105,0,0,0-.012-.059.313.313,0,0,0-.009-.059l-.013-.044a.341.341,0,0,0-.018-.074.207.207,0,0,0-.015-.044.364.364,0,0,0-.028-.059c-.009-.015,0-.015,0-.015l-12.609-27.745v-3.635h.081a2.464,2.464,0,0,0,2.464-2.458v-.192a2.443,2.443,0,0,0-2.071-2.429l-20.818-3.37v-2.134a5.007,5.007,0,1,0-7.484,0v2.017l-20.83,3.474a2.462,2.462,0,0,0-2.061,2.428v.207a2.464,2.464,0,0,0,2.464,2.458h.079v3.635L357.1,4096.293v.015a.178.178,0,0,1-.028.059.172.172,0,0,0-.015.044c0,.015-.012.044-.018.074l-.015.044a.53.53,0,0,0-.009.059.119.119,0,0,1-.01.059c-.01.015,0,.029,0,.044v.089h0v.088c.075,4.916,6.154,8.743,13.9,8.743s13.836-3.827,13.9-8.743a.113.113,0,0,0,0-.03v-.059h0v-.133a.12.12,0,0,0-.01-.059.555.555,0,0,0-.009-.059l-.013-.044a.276.276,0,0,0-.019-.074.361.361,0,0,0-.015-.044.27.27,0,0,0-.028-.059c-.01-.015,0-.015,0-.015l-12.609-27.745v-3.635h17.957v25.9a2.443,2.443,0,0,0-1.272,2.148v17.56l-7.552,2.37a3.708,3.708,0,0,0-2.62,3.562v1.943a1.189,1.189,0,0,0,1.192,1.193h27.958a1.189,1.189,0,0,0,1.192-1.192v-1.943a3.7,3.7,0,0,0-2.621-3.562l-7.552-2.37v-17.56a2.441,2.441,0,0,0-1.27-2.148v-25.9h17.957v3.635l-12.609,27.745v.015a.179.179,0,0,1-.028.059.175.175,0,0,0-.016.044c0,.015-.012.044-.018.074a.427.427,0,0,1-.013.044.545.545,0,0,0-.009.059.449.449,0,0,1-.012.059.22.22,0,0,0,0,.044v.089h0v.088c.075,4.916,6.155,8.743,13.906,8.743s13.836-3.827,13.9-8.743a.2.2,0,0,0,0-.03Zm-59.684-25.154,10.864,23.9H360.042Zm0,31.542c-5.519,0-10.282-2.311-11.316-5.255h22.633c-1.036,2.944-5.8,5.255-11.319,5.255Zm25.512-10.259v17.25h-5.246v-17.25a.076.076,0,0,1,.079-.074h5.085a.077.077,0,0,1,.055.02.076.076,0,0,1,.024.053Zm-3.974-2.458v-34.677a5.265,5.265,0,0,0,2.7,0v34.677Zm1.35-42.124a2.62,2.62,0,1,1-2.623,2.62,2.62,2.62,0,0,1,2.623-2.62Zm-24.161,14.145a.071.071,0,0,1-.055-.02.074.074,0,0,1-.024-.054v-.206a.091.091,0,0,1,.066-.074l20.438-3.4v3.753Zm36.955,53.929v.751H381v-.751a1.343,1.343,0,0,1,.948-1.294l8.214-2.562h7.265l8.214,2.561A1.345,1.345,0,0,1,406.59,4116.458Zm-9.059-57.579,20.437,3.312a.066.066,0,0,1,.05.022.068.068,0,0,1,.017.052v.191a.077.077,0,0,1-.024.054.075.075,0,0,1-.055.02H397.53Zm19.153,12.805,10.864,23.9H405.818Zm0,31.542c-5.519,0-10.284-2.311-11.317-5.255H428C426.966,4100.915,422.2,4103.226,416.684,4103.226Z" transform="translate(-357.004 -4046)" fill="#00a173"/>
</svg>
