<svg xmlns="http://www.w3.org/2000/svg" width="27.346" height="16.148" viewBox="0 0 27.346 16.148"><defs><style>.a{fill:#fff;}</style></defs><path class="a" d="M802.758,747.842a.286.286,0,0,0-.082-.164,15.9,15.9,0,0,0-2.7-3.272h0a11.746,11.746,0,0,1-1.145-1.227,1.14,1.14,0,0,1-.164-1.227,11.914,11.914,0,0,1,1.227-1.963c.409-.491.654-.982.9-1.309,1.636-2.29,2.29-3.763,2.127-4.417l-.082-.164a.874.874,0,0,0-.409-.245,1.673,1.673,0,0,0-.9,0h-4.254l-.164.082h-.082l-.082.082-.164.164c-.082.082-.082.164-.164.245a24.514,24.514,0,0,1-1.472,3.354,14.385,14.385,0,0,1-.982,1.636,7.315,7.315,0,0,1-.736.982,3.558,3.558,0,0,1-.573.491c-.164.164-.245.164-.327.164a.3.3,0,0,1-.245-.082c-.164-.082-.245-.245-.327-.327a.953.953,0,0,1-.164-.573c0-.164-.082-.409-.082-.573V735a1.6,1.6,0,0,0-.082-.654,1.163,1.163,0,0,0-.164-.491.639.639,0,0,0-.327-.327.877.877,0,0,0-.491-.164,11.488,11.488,0,0,0-1.881-.164,9.756,9.756,0,0,0-3.354.327,2.488,2.488,0,0,0-.573.409c-.164.245-.164.327-.082.327a1.8,1.8,0,0,1,1.227.654l.082.164a1.267,1.267,0,0,1,.164.654c.082.327.082.654.164,1.063a7.175,7.175,0,0,1,0,1.881c-.082.491-.082.9-.164,1.227s-.082.491-.164.736l-.164.327-.082.082a.613.613,0,0,1-.409.082.707.707,0,0,1-.491-.245,3.776,3.776,0,0,1-.573-.573c-.164-.245-.409-.573-.654-.982a14.207,14.207,0,0,1-.818-1.554l-.245-.409a9.207,9.207,0,0,1-.573-1.227c-.245-.573-.491-1.063-.654-1.554a1.712,1.712,0,0,0-.327-.491l-.082-.082c-.082,0-.164-.082-.245-.164a.492.492,0,0,0-.327-.082h-3.845a1.085,1.085,0,0,0-.818.245l-.082.082c0,.082-.082.164-.082.245a.889.889,0,0,0,.082.409c.573,1.391,1.145,2.7,1.8,4.09a30.977,30.977,0,0,0,1.718,3.108c.491.736.982,1.554,1.472,2.29s.818,1.145.982,1.391l.409.409.327.327c.245.245.573.491.982.818l1.472.982a8.106,8.106,0,0,0,1.881.818,4.538,4.538,0,0,0,2.045.245h1.636a1.037,1.037,0,0,0,.736-.327l.082-.082c0-.082.082-.164.082-.245,0-.164.082-.245.082-.409a5.031,5.031,0,0,1,.082-1.145c.082-.327.164-.573.245-.818a.817.817,0,0,1,.327-.409l.245-.245.082-.082a.876.876,0,0,1,.818.245,2.917,2.917,0,0,1,.818.9,10.626,10.626,0,0,0,.982,1.145l.982.982.245.164a3.206,3.206,0,0,0,.736.327,1.475,1.475,0,0,0,.818.082l3.6-.082a2.052,2.052,0,0,0,.818-.164c.164-.164.327-.245.327-.409v-.491c.327-.164.327-.245.245-.327Z" transform="translate(-775.6 -733.2)"/></svg>