<svg xmlns="http://www.w3.org/2000/svg" width="56" height="56" viewBox="0 0 56 56"><g transform="translate(-873 -2456)"><rect width="56" height="56" transform="translate(873 2456)" fill="none"/><path d="M10.447,7.174c.32.009.675.026,1.013.775.224.5.6,1.417.908,2.166.239.582.436,1.061.485,1.159a.827.827,0,0,1,.035.784l-.05.1a2.5,2.5,0,0,1-.4.647c-.082.094-.167.2-.251.3-.149.18-.3.359-.424.485-.225.224-.459.465-.2.913a13.432,13.432,0,0,0,2.51,3.11,11.606,11.606,0,0,0,3.33,2.1c.123.053.223.1.3.133.45.224.718.189.978-.112s1.125-1.31,1.428-1.757.6-.379,1.013-.224,2.631,1.24,3.081,1.464c.089.044.172.084.249.121a1.434,1.434,0,0,1,.616.4,3.765,3.765,0,0,1-.26,2.136,4.565,4.565,0,0,1-3.046,2.136c-.079.008-.157.017-.238.027-.761.092-1.728.209-5.172-1.146-4.243-1.669-7.044-5.809-7.611-6.646-.045-.066-.075-.112-.092-.134l-.01-.013A8.707,8.707,0,0,1,6.8,11.472,4.957,4.957,0,0,1,8.3,7.812l.082-.087a1.663,1.663,0,0,1,1.2-.56C9.884,7.165,10.187,7.165,10.447,7.174Z" transform="translate(886.033 2468.372)" fill="#fff"/><path d="M2.259,35.821a.7.7,0,0,0,.852.863l8.061-2.105a17.5,17.5,0,0,0,8.326,2.11h.009a17.406,17.406,0,0,0,17.422-17.34A17.378,17.378,0,0,0,19.506,2,17.33,17.33,0,0,0,4.412,28.006ZM6.942,28.7a2.625,2.625,0,0,0-.259-2.012A14.706,14.706,0,0,1,19.506,4.624,14.725,14.725,0,0,1,29.978,8.942,14.569,14.569,0,0,1,34.3,19.349a14.782,14.782,0,0,1-14.8,14.716H19.5a14.87,14.87,0,0,1-7.076-1.794,2.624,2.624,0,0,0-1.913-.231L5.675,33.3Z" transform="translate(882.494 2464.646)" fill="#fff" fill-rule="evenodd"/></g></svg>