<svg xmlns="http://www.w3.org/2000/svg" viewBox="0 0 478.36 466.12"><defs><style>.cls-1{fill:#00a174;}</style></defs><title>Ресурс 9</title><g id="Слой_2" data-name="Слой 2"><g id="Layer_1" data-name="Layer 1"><path class="cls-1" d="M254.54,466.12c-2.08-8.83,1-12.79,10-12.79q64.14,0,128.27,0c9.16,0,16.36-3,22.34-10.37,4.56-5.59,7.15-11.21,7.1-18.44-.16-23.45-.06-46.9-.06-70.35,0-1.48,0-2.95,0-5-2.39-.13-4.46-.33-6.54-.33-35.77,0-71.54.19-107.3-.24a59.77,59.77,0,0,1-22.21-4.35c-8.31-3.53-15.4-9.27-21.65-16.48a78.59,78.59,0,0,1-9.88-13.62c-5.39-9.94-5.68-21.22-5-32.39.13-2,.61-4,.55-5.95-.18-6.87,3.89-12.08,6.25-18,2.71-6.84,8.09-11,12.46-16.11,3.29-3.82,8.39-6.22,13-8.77a98.11,98.11,0,0,1,14.36-6.6c2.54-.91,5.57-.66,8.39-.66q55.4-.08,110.79-.07h6.29a25.25,25.25,0,0,0,.48-3.42q0-37.92-.05-75.84c0-5.23-5.72-14.26-9.65-17.93-6.89-6.43-14.9-7.52-23.83-7.51q-169.2.19-338.38.1c-3.33,0-7.22-.92-9.86.47-5,2.65-10.53,4.28-14.58,9.28-5.88,7.26-7.09,15-7.08,23.89q.22,134-.07,267.94c0,6.62,1,12.94,4.44,17.94A33.88,33.88,0,0,0,34,450.24c7.69,4.44,15.57,2.95,23.38,3,39.1.2,78.19.07,117.29.13,2.71,0,5.85-.05,8,1.21,4.28,2.48,4.88,6.92,4,11.55H26c-6.37-.86-9.77-6.27-14.35-9.77-2.22-1.69-3.31-5-4.62-7.71-1.39-2.89-2.26-6-3.74-8.87-.44-.86-2.12-1.08-3.24-1.59V135.81c1.12-.37,2.89-.41,3.26-1.15,1.53-3.08,2.13-6.72,4-9.51,2.8-4.12,6.68-7.51,9.59-11.57,2.15-3,5.6-3,8.09-4.69,5.37-3.6,10.79-6.31,17.29-6.37,11.31-.11,22.61-.07,33.92-.19,1.79,0,4.14.13,5.27-.88,4.08-3.63,7.78-7.7,11.57-11.66,4.32-4.49,8.45-9.17,12.89-13.53s9.12-8,13.38-12.35c5.63-5.7,10.79-11.84,16.41-17.55S147.12,35.5,152.76,30c4.57-4.47,9-9.07,13.47-13.65,3.18-3.26,6-6.88,9.49-9.8,3-2.52,5.25-6.38,10-6.36,9.47.05,19-.11,28.43.07,2,0,4.6.58,5.94,1.89C226,7.91,231.5,14,237.57,20.46c4.65-4.75,8.87-9.44,13.5-13.7,3.6-3.31,7.05-6.95,12.81-6.74,8.47.31,17,.33,25.44,0C295-.22,298.4,3.52,302.05,6.6s6.48,6.91,9.79,10.31c4.27,4.39,8.66,8.67,13,13s8.55,8.74,12.93,13,8.82,8,13,12.3c5.67,5.74,11,11.83,16.69,17.55,4.23,4.23,9,7.93,13.2,12.2s8,9.3,12.32,13.66a16.94,16.94,0,0,0,6.62,3.79c4.65,1.54,9.55,2.34,14.17,3.93,2.87,1,6.42,2.21,7.93,4.47,3.81,5.75,10.16,9,12.88,16.21,2.44,6.4,6.25,12.21,6.26,19.39q0,36.42.07,72.83v6.09a25.27,25.27,0,0,0,3.87.25c9.08-.95,17.19,1.16,24,7.46,5,4.61,9,10.19,9.16,17,.45,18.61.55,37.25.05,55.86-.24,9.18,2.29,18.53-3.12,27.65-2.65,4.48-5.91,8.81-9.57,10.91-4.93,2.81-10.78,5.95-17.37,4.5-2.13-.47-4.45-.08-7-.08v6.33c0,19.12.34,38.25-.14,57.35-.24,9.3,2,18.72-3,28-2.48,4.55-4.3,9.35-7.59,13.62-4.08,5.29-8.45,9.82-14.89,12ZM377.35,244.43v0c-23.11,0-46.22.3-69.31-.19-6.79-.15-11.91,4-18.15,4.74-.55.07-1,.76-1.52,1.18-3.69,3.07-7.69,5.84-11,9.29a34.51,34.51,0,0,0-8.4,15.35c-1,3.95-.8,8.25-.82,12.39,0,7.94.51,15.79,4.68,22.88a6.53,6.53,0,0,0,.84,1.1c2.13,2.22,4,4.76,6.45,6.57,4.64,3.44,8.12,8.95,14.91,8.84,1,0,2.56.12,2.79.65,1.65,3.77,5,2.84,7.77,2.84q72.06.14,144.11.11c6.06,0,9.56-3.55,9.57-9.71q.1-32.64,0-65.3c0-8-2.75-10.73-10.66-10.75Q413,244.4,377.35,244.43Zm-7.44-144.1c-1.62-.88-2.73-1.21-3.47-1.93-3.74-3.64-7.46-7.31-11.05-11.09-4.18-4.4-8.14-9-12.36-13.37-4-4.13-8.18-8.06-12.28-12.09-4.52-4.44-9.09-8.83-13.52-13.35-4.16-4.24-8.09-8.7-12.28-12.9-5.86-5.89-12.12-11.4-17.72-17.51-5.08-5.55-10.31-6.74-16.39-2.55a63.69,63.69,0,0,0-7.13,5.38c-5.61,5.15-11.21,10.32-16.53,15.75-6.83,7-13.23,14.35-20.12,21.24-8,8-16.44,15.58-24.5,23.54-6.27,6.19-12.23,12.69-18.32,19C188.39,103,363.89,103.31,369.91,100.33Zm-237.18,2v0c5,0,10,0,15,0,4.07,0,8.46,1,11.32-3.3a22.43,22.43,0,0,1,2.69-3.68c6.07-5.93,12.28-11.72,18.34-17.68,4-4,7.77-8.16,11.78-12.13,5.92-5.87,12-11.61,17.94-17.44,4.33-4.24,8.67-8.47,12.83-12.87a3.93,3.93,0,0,0,.76-3.54c-.82-1.52-2.37-2.69-3.7-3.91-4.65-4.25-9.46-8.34-14-12.74-2.75-2.7-8.58-2.85-11.29-.16-4.44,4.39-9.19,8.48-13.64,12.86s-8.62,8.92-12.92,13.39c-2.82,2.92-5.58,5.89-8.47,8.73-3.27,3.2-6.72,6.2-10,9.41-4.43,4.37-8.71,8.87-13.12,13.25s-8.75,8.4-13,12.73S115,94.1,110.84,98.51c-.77.82-1.59,1.59-2.39,2.38,1.27.48,2.54,1.35,3.82,1.38C119.09,102.41,125.91,102.33,132.73,102.33Z"/><path class="cls-1" d="M212.62,466.12c-1-4.87,0-9,4.14-12.17,2.76-2.11,10.38,1,11.08,5,.41,2.31-.14,4.78-.25,7.18Z"/><path class="cls-1" d="M302.09,287.28c0-5.59,3.09-9.32,7.81-9.38s8.11,3.62,8.15,9.16c.05,5.79-3,9.4-7.91,9.42S302.1,293.09,302.09,287.28Z"/></g></g></svg>