<svg width="1419" height="1419" viewBox="0 0 1419 1419" fill="none" xmlns="http://www.w3.org/2000/svg">
<g filter="url(#filter0_d_102_133)">
<circle cx="709.435" cy="709.537" r="257.2" transform="rotate(-71.2194 709.435 709.537)" fill="#D9D9D9"/>
<circle cx="709.435" cy="709.537" r="269.98" transform="rotate(-71.2194 709.435 709.537)" stroke="white" stroke-width="25.5598"/>
</g>
<path d="M864.089 501.044C895.251 524.155 920.832 553.956 938.954 588.252L710.669 707.912L758.903 454.721C796.983 462.105 832.927 477.933 864.089 501.044Z" fill="url(#paint0_linear_102_133)" stroke="#008D80" stroke-width="1.71349"/>
<mask id="path-4-inside-1_102_133" fill="white">
<path d="M947.816 814.374C963.61 778.484 971.094 739.491 969.71 700.304C968.326 661.117 958.109 622.749 939.822 588.063L709.495 709.495L947.816 814.374Z"/>
</mask>
<path d="M947.816 814.374C963.61 778.484 971.094 739.491 969.71 700.304C968.326 661.117 958.109 622.749 939.822 588.063L709.495 709.495L947.816 814.374Z" fill="url(#paint1_linear_102_133)" stroke="#008D80" stroke-width="3.42698" mask="url(#path-4-inside-1_102_133)"/>
<mask id="path-5-inside-2_102_133" fill="white">
<path d="M776.095 961.21C814.002 951.18 849.154 932.718 878.928 907.203C908.702 881.687 932.328 849.776 948.044 813.852L709.494 709.494L776.095 961.21Z"/>
</mask>
<path d="M776.095 961.21C814.002 951.18 849.154 932.718 878.928 907.203C908.702 881.687 932.328 849.776 948.044 813.852L709.494 709.494L776.095 961.21Z" fill="url(#paint2_linear_102_133)" stroke="#008D80" stroke-width="3.42698" mask="url(#path-5-inside-2_102_133)"/>
<mask id="path-6-inside-3_102_133" fill="white">
<path d="M554.198 918.491C585.672 941.878 622.021 957.854 660.533 965.227C699.045 972.601 738.725 971.181 776.611 961.074L709.495 709.495L554.198 918.491Z"/>
</mask>
<path d="M554.198 918.491C585.672 941.878 622.021 957.854 660.533 965.227C699.045 972.601 738.725 971.181 776.611 961.074L709.495 709.495L554.198 918.491Z" fill="url(#paint3_linear_102_133)" stroke="#008D80" stroke-width="3.42698" mask="url(#path-6-inside-3_102_133)"/>
<mask id="path-7-inside-4_102_133" fill="white">
<path d="M449.27 718.41C450.612 757.598 460.788 795.977 479.038 830.682C497.288 865.388 523.141 895.523 554.667 918.839L709.495 709.495L449.27 718.41Z"/>
</mask>
<path d="M449.27 718.41C450.612 757.598 460.788 795.977 479.038 830.682C497.288 865.388 523.141 895.523 554.667 918.839L709.495 709.495L449.27 718.41Z" fill="url(#paint4_linear_102_133)" stroke="#008D80" stroke-width="3.42698" mask="url(#path-7-inside-4_102_133)"/>
<mask id="path-8-inside-5_102_133" fill="white">
<path d="M540.417 511.482C510.598 536.944 486.914 568.812 471.134 604.708C455.353 640.604 447.884 679.6 449.283 718.786L709.495 709.495L540.417 511.482Z"/>
</mask>
<path d="M540.417 511.482C510.598 536.944 486.914 568.812 471.134 604.708C455.353 640.604 447.884 679.6 449.283 718.786L709.495 709.495L540.417 511.482Z" fill="url(#paint5_linear_102_133)" stroke="#008D80" stroke-width="3.42698" mask="url(#path-8-inside-5_102_133)"/>
<mask id="path-9-inside-6_102_133" fill="white">
<path d="M758.789 453.826C720.287 446.403 680.605 447.771 642.706 457.829C604.806 467.887 569.668 486.375 539.913 511.913L709.494 709.495L758.789 453.826Z"/>
</mask>
<path d="M758.789 453.826C720.287 446.403 680.605 447.771 642.706 457.829C604.806 467.887 569.668 486.375 539.913 511.913L709.494 709.495L758.789 453.826Z" fill="url(#paint6_linear_102_133)" stroke="#008D80" stroke-width="3.42698" mask="url(#path-9-inside-6_102_133)"/>
<circle cx="708.398" cy="709.359" r="44.1597" transform="rotate(-71.2194 708.398 709.359)" fill="white" stroke="#008D80" stroke-width="2.83998"/>
<path d="M920.854 549.786C920.541 549.379 920.323 548.938 920.2 548.463C920.079 547.989 920.048 547.512 920.109 547.031C920.173 546.551 920.323 546.097 920.56 545.668C920.798 545.241 921.122 544.871 921.532 544.558C921.942 544.246 922.384 544.028 922.857 543.907C923.333 543.787 923.809 543.759 924.288 543.821C924.768 543.881 925.222 544.031 925.649 544.269C926.077 544.507 926.447 544.83 926.76 545.236C927.074 545.644 927.292 546.085 927.414 546.559C927.537 547.035 927.565 547.512 927.5 547.99C927.438 548.468 927.288 548.921 927.05 549.348C926.811 549.776 926.489 550.147 926.082 550.464C925.675 550.78 925.235 550.999 924.761 551.12C924.287 551.242 923.81 551.272 923.33 551.212C922.851 551.15 922.398 550.999 921.969 550.758C921.54 550.518 921.169 550.194 920.854 549.786Z" fill="#008D80"/>
<path d="M939.858 578.469C939.595 578.028 939.431 577.564 939.366 577.077C939.302 576.592 939.329 576.115 939.446 575.645C939.567 575.176 939.77 574.743 940.057 574.345C940.344 573.949 940.71 573.621 941.154 573.359C941.598 573.097 942.062 572.935 942.547 572.87C943.033 572.808 943.51 572.837 943.978 572.955C944.448 573.073 944.88 573.275 945.276 573.563C945.672 573.85 946.001 574.214 946.263 574.655C946.527 575.098 946.691 575.562 946.755 576.047C946.82 576.534 946.792 577.011 946.67 577.477C946.552 577.945 946.348 578.377 946.061 578.773C945.773 579.168 945.409 579.499 944.967 579.765C944.526 580.03 944.062 580.195 943.577 580.259C943.093 580.323 942.615 580.297 942.145 580.179C941.678 580.061 941.245 579.857 940.848 579.567C940.452 579.278 940.121 578.911 939.858 578.469Z" fill="#008D80"/>
<path d="M954.478 608.257C954.274 607.787 954.169 607.306 954.166 606.815C954.163 606.326 954.25 605.856 954.425 605.404C954.604 604.954 954.861 604.55 955.195 604.192C955.53 603.835 955.934 603.555 956.407 603.352C956.881 603.148 957.362 603.045 957.851 603.042C958.341 603.042 958.811 603.13 959.26 603.306C959.711 603.482 960.115 603.737 960.471 604.072C960.828 604.407 961.108 604.81 961.313 605.28C961.519 605.753 961.623 606.234 961.626 606.723C961.629 607.214 961.541 607.684 961.361 608.132C961.185 608.581 960.929 608.983 960.594 609.34C960.259 609.696 959.856 609.978 959.384 610.186C958.913 610.394 958.432 610.499 957.943 610.502C957.454 610.505 956.984 610.418 956.533 610.243C956.084 610.066 955.68 609.809 955.323 609.472C954.966 609.135 954.684 608.73 954.478 608.257Z" fill="#008D80"/>
<path d="M965.102 639.217C964.957 638.725 964.913 638.235 964.971 637.747C965.029 637.262 965.173 636.806 965.403 636.38C965.637 635.956 965.941 635.586 966.317 635.272C966.694 634.96 967.13 634.732 967.625 634.589C968.12 634.446 968.61 634.403 969.096 634.462C969.582 634.522 970.037 634.668 970.461 634.899C970.887 635.129 971.256 635.433 971.568 635.809C971.88 636.186 972.108 636.62 972.253 637.113C972.399 637.607 972.442 638.097 972.384 638.583C972.327 639.07 972.181 639.525 971.947 639.948C971.716 640.371 971.412 640.739 971.035 641.051C970.659 641.363 970.223 641.593 969.73 641.741C969.236 641.888 968.746 641.933 968.261 641.875C967.775 641.817 967.319 641.673 966.893 641.442C966.47 641.211 966.101 640.906 965.789 640.527C965.476 640.148 965.247 639.712 965.102 639.217Z" fill="#008D80"/>
<path d="M971.833 671.596C971.752 671.09 971.77 670.598 971.889 670.121C972.008 669.647 972.209 669.213 972.491 668.82C972.776 668.428 973.124 668.1 973.537 667.836C973.95 667.574 974.411 667.403 974.92 667.323C975.43 667.244 975.921 667.263 976.396 667.382C976.871 667.504 977.304 667.706 977.695 667.988C978.088 668.27 978.416 668.618 978.678 669.031C978.94 669.444 979.112 669.904 979.193 670.41C979.275 670.919 979.257 671.411 979.138 671.885C979.019 672.362 978.817 672.795 978.532 673.184C978.249 673.575 977.901 673.902 977.488 674.164C977.075 674.426 976.615 674.599 976.106 674.683C975.598 674.768 975.106 674.75 974.632 674.631C974.158 674.512 973.724 674.312 973.33 674.029C972.939 673.747 972.612 673.398 972.35 672.982C972.087 672.567 971.915 672.105 971.833 671.596Z" fill="#008D80"/>
<path d="M974.457 703.954C974.438 703.441 974.515 702.955 974.691 702.496C974.866 702.04 975.118 701.633 975.446 701.277C975.776 700.923 976.162 700.639 976.603 700.427C977.045 700.217 977.523 700.103 978.038 700.085C978.554 700.068 979.039 700.147 979.496 700.322C979.953 700.5 980.358 700.753 980.712 701.081C981.068 701.409 981.352 701.793 981.562 702.235C981.772 702.677 981.887 703.154 981.907 703.667C981.927 704.182 981.849 704.667 981.673 705.124C981.498 705.583 981.245 705.988 980.915 706.34C980.587 706.694 980.202 706.976 979.76 707.186C979.319 707.396 978.84 707.513 978.326 707.535C977.811 707.557 977.325 707.48 976.868 707.305C976.412 707.129 976.005 706.878 975.649 706.55C975.295 706.222 975.013 705.836 974.802 705.392C974.592 704.948 974.477 704.469 974.457 703.954Z" fill="#008D80"/>
<path d="M973.055 736.804C973.099 736.293 973.236 735.82 973.467 735.386C973.697 734.955 973.997 734.583 974.366 734.27C974.738 733.959 975.156 733.725 975.62 733.569C976.085 733.415 976.573 733.361 977.087 733.408C977.6 733.454 978.072 733.592 978.504 733.823C978.935 734.056 979.306 734.357 979.617 734.726C979.93 735.095 980.163 735.512 980.317 735.976C980.471 736.44 980.526 736.928 980.483 737.439C980.439 737.953 980.302 738.425 980.071 738.856C979.84 739.29 979.539 739.661 979.168 739.97C978.799 740.28 978.382 740.513 977.918 740.667C977.454 740.821 976.965 740.877 976.451 740.835C975.937 740.794 975.465 740.658 975.033 740.427C974.602 740.197 974.23 739.897 973.917 739.527C973.606 739.158 973.373 738.74 973.22 738.274C973.066 737.807 973.011 737.317 973.055 736.804Z" fill="#008D80"/>
<path d="M967.613 769.197C967.719 768.696 967.914 768.244 968.196 767.842C968.478 767.442 968.822 767.109 969.227 766.844C969.633 766.582 970.077 766.401 970.557 766.304C971.037 766.208 971.529 766.215 972.032 766.324C972.536 766.433 972.988 766.629 973.387 766.911C973.786 767.195 974.117 767.54 974.381 767.944C974.646 768.349 974.826 768.792 974.922 769.271C975.017 769.751 975.012 770.242 974.906 770.744C974.799 771.248 974.604 771.7 974.322 772.099C974.04 772.501 973.695 772.832 973.289 773.093C972.884 773.356 972.442 773.535 971.963 773.63C971.483 773.726 970.991 773.721 970.486 773.617C969.981 773.512 969.529 773.319 969.13 773.037C968.73 772.755 968.397 772.412 968.132 772.006C967.869 771.602 967.69 771.159 967.595 770.677C967.5 770.195 967.506 769.701 967.613 769.197Z" fill="#008D80"/>
<path d="M958.212 800.664C958.379 800.179 958.628 799.754 958.958 799.391C959.287 799.029 959.67 798.741 960.104 798.528C960.541 798.318 961.003 798.194 961.492 798.157C961.979 798.121 962.466 798.189 962.953 798.359C963.439 798.53 963.863 798.78 964.225 799.109C964.586 799.441 964.872 799.824 965.082 800.258C965.296 800.693 965.42 801.154 965.455 801.642C965.491 802.13 965.425 802.616 965.257 803.101C965.088 803.588 964.84 804.012 964.51 804.374C964.18 804.738 963.797 805.024 963.362 805.232C962.928 805.442 962.467 805.566 961.979 805.601C961.491 805.636 961.004 805.571 960.516 805.405C960.028 805.239 959.603 804.991 959.241 804.662C958.88 804.332 958.592 803.95 958.379 803.515C958.168 803.081 958.046 802.619 958.011 802.129C957.976 801.639 958.043 801.151 958.212 800.664Z" fill="#008D80"/>
<path d="M944.981 830.712C945.208 830.252 945.508 829.862 945.881 829.542C946.253 829.224 946.668 828.987 947.126 828.83C947.585 828.676 948.059 828.611 948.549 828.634C949.037 828.66 949.512 828.788 949.973 829.018C950.434 829.248 950.824 829.55 951.141 829.921C951.458 830.295 951.694 830.711 951.849 831.168C952.006 831.626 952.072 832.099 952.046 832.588C952.02 833.076 951.894 833.55 951.667 834.01C951.438 834.473 951.138 834.862 950.767 835.18C950.394 835.5 949.978 835.736 949.52 835.888C949.063 836.043 948.59 836.107 948.102 836.081C947.613 836.056 947.138 835.93 946.674 835.704C946.211 835.478 945.821 835.179 945.503 834.807C945.185 834.435 944.948 834.02 944.791 833.562C944.636 833.105 944.572 832.631 944.599 832.141C944.626 831.65 944.753 831.174 944.981 830.712Z" fill="#008D80"/>
<path d="M928.157 858.822C928.439 858.394 928.785 858.044 929.194 857.772C929.603 857.503 930.044 857.318 930.518 857.219C930.992 857.122 931.471 857.116 931.954 857.2C932.435 857.285 932.891 857.471 933.32 857.756C933.749 858.041 934.099 858.388 934.368 858.796C934.636 859.206 934.819 859.647 934.917 860.12C935.017 860.594 935.023 861.072 934.938 861.553C934.852 862.035 934.668 862.49 934.386 862.918C934.103 863.349 933.758 863.699 933.349 863.969C932.94 864.24 932.498 864.423 932.025 864.517C931.553 864.615 931.076 864.621 930.594 864.535C930.112 864.449 929.656 864.266 929.224 863.985C928.792 863.704 928.441 863.359 928.172 862.951C927.902 862.543 927.718 862.102 927.618 861.628C927.52 861.155 927.515 860.677 927.602 860.194C927.689 859.71 927.874 859.253 928.157 858.822Z" fill="#008D80"/>
<path d="M907.934 884.633C908.267 884.243 908.654 883.939 909.094 883.72C909.533 883.504 909.993 883.376 910.476 883.336C910.959 883.3 911.435 883.353 911.903 883.497C912.37 883.642 912.799 883.883 913.189 884.219C913.58 884.556 913.883 884.943 914.1 885.382C914.315 885.822 914.441 886.283 914.479 886.764C914.519 887.246 914.466 887.721 914.321 888.188C914.176 888.656 913.937 889.084 913.603 889.474C913.269 889.866 912.882 890.17 912.443 890.387C912.003 890.605 911.543 890.732 911.061 890.766C910.58 890.804 910.106 890.75 909.639 890.605C909.172 890.46 908.742 890.221 908.348 889.888C907.955 889.555 907.65 889.17 907.433 888.731C907.217 888.292 907.089 887.832 907.049 887.349C907.011 886.868 907.066 886.393 907.212 885.924C907.359 885.455 907.6 885.025 907.934 884.633Z" fill="#008D80"/>
<path d="M884.66 907.711C885.039 907.366 885.461 907.113 885.925 906.952C886.388 906.793 886.861 906.724 887.345 906.745C887.828 906.77 888.294 906.883 888.74 907.085C889.185 907.288 889.58 907.581 889.925 907.964C890.27 908.347 890.522 908.769 890.681 909.232C890.839 909.696 890.906 910.169 890.883 910.651C890.862 911.135 890.749 911.599 890.546 912.044C890.343 912.489 890.052 912.884 889.672 913.229C889.291 913.576 888.869 913.828 888.407 913.988C887.942 914.149 887.469 914.216 886.987 914.19C886.505 914.166 886.042 914.053 885.597 913.851C885.152 913.648 884.755 913.356 884.407 912.976C884.059 912.596 883.805 912.175 883.645 911.713C883.486 911.25 883.417 910.777 883.439 910.294C883.462 909.812 883.576 909.347 883.78 908.901C883.985 908.454 884.278 908.057 884.66 907.711Z" fill="#008D80"/>
<path d="M857.887 928.357C858.306 928.062 858.756 927.863 859.237 927.76C859.715 927.659 860.193 927.649 860.671 927.73C861.148 927.814 861.595 927.983 862.014 928.238C862.431 928.494 862.786 928.834 863.081 929.256C863.376 929.679 863.574 930.129 863.676 930.608C863.775 931.088 863.784 931.566 863.701 932.041C863.62 932.518 863.452 932.966 863.195 933.382C862.939 933.799 862.602 934.155 862.182 934.451C861.761 934.747 861.311 934.947 860.833 935.048C860.352 935.15 859.874 935.159 859.4 935.073C858.924 934.991 858.478 934.822 858.061 934.565C857.645 934.309 857.287 933.971 856.988 933.551C856.689 933.132 856.489 932.682 856.388 932.204C856.287 931.725 856.277 931.247 856.358 930.77C856.44 930.294 856.61 929.848 856.868 929.43C857.126 929.012 857.466 928.654 857.887 928.357Z" fill="#008D80"/>
<path d="M829.643 944.954C830.096 944.714 830.567 944.573 831.057 944.532C831.544 944.492 832.02 944.543 832.483 944.683C832.945 944.827 833.368 945.052 833.751 945.358C834.132 945.665 834.442 946.046 834.681 946.503C834.92 946.959 835.06 947.431 835.1 947.919C835.137 948.408 835.085 948.882 834.944 949.344C834.803 949.807 834.579 950.229 834.272 950.61C833.965 950.991 833.585 951.301 833.132 951.542C832.677 951.783 832.205 951.923 831.718 951.963C831.228 952.004 830.753 951.952 830.293 951.807C829.832 951.665 829.41 951.441 829.03 951.134C828.649 950.827 828.337 950.447 828.093 949.992C827.85 949.538 827.708 949.067 827.669 948.58C827.629 948.092 827.679 947.617 827.82 947.153C827.962 946.692 828.187 946.27 828.496 945.888C828.805 945.506 829.187 945.195 829.643 944.954Z" fill="#008D80"/>
<path d="M799.594 957.924C800.073 957.741 800.558 957.659 801.049 957.678C801.538 957.697 802.004 957.805 802.447 958.001C802.888 958.2 803.28 958.475 803.623 958.825C803.964 959.175 804.225 959.592 804.407 960.074C804.589 960.556 804.67 961.042 804.651 961.531C804.629 962.02 804.519 962.485 804.323 962.926C804.127 963.369 803.853 963.76 803.502 964.101C803.151 964.442 802.736 964.704 802.257 964.887C801.776 965.071 801.291 965.154 800.802 965.134C800.311 965.115 799.846 965.006 799.407 964.806C798.966 964.609 798.576 964.335 798.235 963.984C797.894 963.633 797.631 963.218 797.444 962.737C797.258 962.257 797.175 961.772 797.194 961.283C797.214 960.795 797.322 960.329 797.518 959.886C797.715 959.446 797.99 959.054 798.343 958.713C798.696 958.371 799.113 958.108 799.594 957.924Z" fill="#008D80"/>
<path d="M768.109 967.036C768.608 966.915 769.099 966.895 769.584 966.976C770.066 967.058 770.514 967.224 770.928 967.475C771.341 967.729 771.695 968.051 771.991 968.442C772.284 968.833 772.49 969.28 772.609 969.781C772.728 970.282 772.747 970.774 772.665 971.257C772.581 971.739 772.413 972.187 772.162 972.599C771.911 973.013 771.59 973.367 771.199 973.66C770.808 973.953 770.363 974.16 769.864 974.281C769.363 974.403 768.872 974.422 768.389 974.341C767.905 974.259 767.457 974.092 767.047 973.838C766.635 973.586 766.283 973.265 765.989 972.874C765.696 972.482 765.487 972.036 765.364 971.536C765.24 971.036 765.219 970.544 765.301 970.062C765.383 969.58 765.549 969.132 765.8 968.717C766.051 968.305 766.373 967.953 766.767 967.659C767.161 967.365 767.608 967.157 768.109 967.036Z" fill="#008D80"/>
<path d="M735.851 972.168C736.361 972.109 736.851 972.149 737.322 972.289C737.791 972.428 738.215 972.648 738.596 972.947C738.975 973.249 739.287 973.612 739.533 974.036C739.776 974.46 739.926 974.929 739.983 975.441C740.04 975.953 739.999 976.444 739.859 976.912C739.717 977.381 739.496 977.805 739.196 978.183C738.897 978.564 738.535 978.876 738.111 979.119C737.687 979.363 737.22 979.514 736.71 979.573C736.198 979.632 735.708 979.592 735.239 979.452C734.768 979.313 734.345 979.092 733.969 978.79C733.59 978.49 733.279 978.128 733.036 977.704C732.792 977.28 732.64 976.812 732.578 976.3C732.516 975.788 732.555 975.298 732.695 974.829C732.835 974.361 733.055 973.936 733.354 973.556C733.654 973.177 734.017 972.866 734.443 972.623C734.87 972.379 735.339 972.227 735.851 972.168Z" fill="#008D80"/>
<path d="M703.133 973.267C703.646 973.271 704.127 973.372 704.578 973.569C705.025 973.766 705.419 974.037 705.76 974.381C706.098 974.727 706.363 975.126 706.554 975.577C706.743 976.029 706.834 976.512 706.827 977.027C706.82 977.542 706.718 978.024 706.521 978.472C706.322 978.919 706.05 979.312 705.706 979.651C705.361 979.991 704.964 980.256 704.513 980.445C704.061 980.634 703.579 980.726 703.066 980.721C702.551 980.717 702.07 980.616 701.622 980.419C701.172 980.222 700.779 979.95 700.443 979.603C700.105 979.259 699.841 978.862 699.652 978.41C699.463 977.959 699.37 977.476 699.372 976.961C699.375 976.445 699.474 975.964 699.671 975.516C699.868 975.068 700.139 974.674 700.483 974.334C700.827 973.996 701.226 973.732 701.68 973.543C702.133 973.354 702.618 973.262 703.133 973.267Z" fill="#008D80"/>
<path d="M670.541 970.331C671.049 970.399 671.515 970.559 671.937 970.81C672.357 971.06 672.715 971.377 673.01 971.761C673.303 972.147 673.517 972.575 673.651 973.047C673.783 973.518 673.813 974.008 673.743 974.519C673.672 975.029 673.512 975.495 673.261 975.915C673.008 976.334 672.69 976.691 672.307 976.984C671.923 977.279 671.496 977.493 671.025 977.625C670.554 977.757 670.064 977.789 669.555 977.721C669.045 977.653 668.579 977.493 668.159 977.243C667.737 976.992 667.38 976.673 667.09 976.288C666.797 975.905 666.584 975.478 666.452 975.007C666.321 974.536 666.288 974.044 666.353 973.533C666.419 973.022 666.577 972.557 666.828 972.137C667.079 971.717 667.396 971.359 667.78 971.063C668.163 970.77 668.591 970.558 669.065 970.426C669.538 970.295 670.03 970.263 670.541 970.331Z" fill="#008D80"/>
<path d="M638.553 963.411C639.049 963.541 639.491 963.756 639.88 964.057C640.265 964.358 640.581 964.717 640.827 965.134C641.07 965.553 641.229 966.004 641.304 966.489C641.377 966.972 641.347 967.463 641.214 967.961C641.081 968.459 640.864 968.901 640.564 969.287C640.261 969.672 639.901 969.987 639.485 970.23C639.067 970.476 638.617 970.635 638.133 970.708C637.65 970.781 637.16 970.752 636.663 970.622C636.165 970.491 635.723 970.276 635.337 969.975C634.949 969.674 634.634 969.314 634.394 968.896C634.15 968.48 633.992 968.029 633.919 967.546C633.846 967.062 633.874 966.571 634.002 966.072C634.131 965.572 634.345 965.13 634.646 964.744C634.946 964.358 635.305 964.042 635.722 963.796C636.139 963.553 636.59 963.395 637.076 963.323C637.562 963.251 638.054 963.28 638.553 963.411Z" fill="#008D80"/>
<path d="M607.611 952.577C608.088 952.768 608.5 953.037 608.847 953.384C609.193 953.73 609.462 954.125 609.654 954.57C609.843 955.015 609.945 955.483 609.959 955.973C609.971 956.462 609.88 956.945 609.687 957.423C609.493 957.901 609.223 958.312 608.877 958.658C608.528 959.002 608.133 959.27 607.689 959.46C607.244 959.652 606.778 959.754 606.289 959.766C605.8 959.778 605.317 959.689 604.841 959.498C604.362 959.307 603.95 959.038 603.605 958.692C603.257 958.345 602.99 957.949 602.803 957.504C602.613 957.06 602.512 956.594 602.5 956.105C602.488 955.616 602.576 955.132 602.766 954.652C602.955 954.173 603.223 953.761 603.569 953.415C603.915 953.07 604.31 952.801 604.755 952.609C605.198 952.419 605.666 952.318 606.157 952.307C606.648 952.296 607.133 952.386 607.611 952.577Z" fill="#008D80"/>
<path d="M578.118 937.911C578.567 938.16 578.942 938.478 579.243 938.866C579.542 939.253 579.759 939.679 579.894 940.144C580.026 940.61 580.068 941.087 580.021 941.575C579.971 942.062 579.82 942.53 579.568 942.979C579.316 943.428 578.996 943.803 578.61 944.102C578.221 944.4 577.794 944.616 577.33 944.749C576.865 944.883 576.389 944.926 575.903 944.877C575.416 944.827 574.949 944.678 574.5 944.429C574.049 944.179 573.675 943.86 573.375 943.474C573.074 943.086 572.858 942.659 572.729 942.194C572.596 941.73 572.554 941.255 572.604 940.768C572.653 940.282 572.802 939.813 573.05 939.361C573.298 938.909 573.616 938.534 574.002 938.234C574.389 937.935 574.815 937.718 575.28 937.583C575.744 937.45 576.221 937.409 576.709 937.46C577.198 937.51 577.668 937.661 578.118 937.911Z" fill="#008D80"/>
<path d="M550.993 919.897C551.407 920.199 551.74 920.562 551.991 920.984C552.24 921.405 552.403 921.854 552.479 922.333C552.552 922.811 552.535 923.29 552.428 923.768C552.318 924.245 552.111 924.69 551.805 925.105C551.499 925.52 551.136 925.852 550.715 926.101C550.292 926.349 549.842 926.51 549.365 926.584C548.887 926.661 548.41 926.644 547.933 926.535C547.456 926.426 547.011 926.22 546.596 925.917C546.18 925.613 545.848 925.251 545.598 924.83C545.347 924.408 545.186 923.958 545.115 923.48C545.041 923.004 545.058 922.527 545.168 922.05C545.277 921.573 545.482 921.126 545.785 920.709C546.087 920.291 546.448 919.958 546.869 919.708C547.29 919.459 547.739 919.297 548.218 919.22C548.694 919.146 549.172 919.164 549.651 919.275C550.129 919.385 550.577 919.593 550.993 919.897Z" fill="#008D80"/>
<path d="M526.06 898.413C526.433 898.765 526.718 899.166 526.914 899.617C527.109 900.066 527.214 900.532 527.229 901.016C527.242 901.5 527.165 901.972 526.998 902.433C526.83 902.893 526.568 903.309 526.213 903.682C525.857 904.055 525.455 904.339 525.006 904.533C524.556 904.726 524.089 904.83 523.607 904.844C523.123 904.859 522.651 904.783 522.192 904.615C521.733 904.447 521.316 904.187 520.943 903.834C520.569 903.481 520.284 903.079 520.09 902.631C519.893 902.18 519.79 901.714 519.779 901.231C519.766 900.749 519.843 900.278 520.011 899.819C520.179 899.359 520.439 898.942 520.791 898.565C521.143 898.189 521.544 897.903 521.992 897.709C522.441 897.514 522.908 897.409 523.392 897.394C523.874 897.38 524.346 897.458 524.807 897.628C525.268 897.797 525.686 898.059 526.06 898.413Z" fill="#008D80"/>
<path d="M504.158 874.203C504.485 874.598 504.718 875.031 504.858 875.503C504.995 875.972 505.042 876.448 504.998 876.93C504.951 877.412 504.817 877.871 504.595 878.308C504.372 878.743 504.061 879.124 503.662 879.451C503.264 879.778 502.83 880.01 502.36 880.148C501.89 880.284 501.414 880.329 500.933 880.284C500.451 880.24 499.993 880.106 499.557 879.883C499.122 879.66 498.741 879.35 498.414 878.955C498.086 878.558 497.852 878.125 497.715 877.656C497.575 877.184 497.53 876.709 497.579 876.229C497.624 875.748 497.758 875.291 497.982 874.855C498.205 874.42 498.514 874.037 498.91 873.707C499.306 873.377 499.738 873.143 500.207 873.005C500.677 872.867 501.152 872.82 501.635 872.864C502.115 872.909 502.574 873.045 503.01 873.27C503.447 873.495 503.83 873.806 504.158 874.203Z" fill="#008D80"/>
<path d="M485.204 847.24C485.479 847.673 485.657 848.132 485.738 848.616C485.817 849.099 485.805 849.577 485.702 850.05C485.596 850.522 485.406 850.962 485.132 851.368C484.856 851.773 484.501 852.112 484.065 852.388C483.629 852.663 483.17 852.84 482.688 852.919C482.204 852.996 481.726 852.982 481.255 852.878C480.782 852.775 480.343 852.586 479.939 852.311C479.534 852.036 479.194 851.682 478.918 851.249C478.641 850.815 478.463 850.356 478.384 849.873C478.304 849.389 478.317 848.911 478.425 848.441C478.529 847.97 478.719 847.532 478.994 847.127C479.269 846.723 479.623 846.381 480.056 846.102C480.49 845.823 480.948 845.644 481.43 845.565C481.913 845.486 482.391 845.498 482.864 845.601C483.335 845.705 483.774 845.896 484.179 846.173C484.585 846.45 484.926 846.806 485.204 847.24Z" fill="#008D80"/>
<path d="M469.58 817.785C469.799 818.249 469.917 818.727 469.936 819.217C469.953 819.706 469.881 820.179 469.719 820.635C469.554 821.091 469.311 821.502 468.988 821.871C468.664 822.237 468.268 822.53 467.801 822.748C467.334 822.966 466.856 823.083 466.367 823.101C465.877 823.116 465.405 823.042 464.951 822.88C464.495 822.718 464.083 822.475 463.717 822.151C463.351 821.827 463.058 821.433 462.839 820.969C462.619 820.503 462.5 820.026 462.482 819.537C462.464 819.046 462.538 818.574 462.704 818.121C462.866 817.666 463.11 817.256 463.434 816.89C463.758 816.523 464.152 816.229 464.617 816.007C465.082 815.784 465.559 815.665 466.048 815.647C466.537 815.63 467.009 815.702 467.466 815.864C467.92 816.026 468.331 816.271 468.698 816.597C469.066 816.923 469.359 817.319 469.58 817.785Z" fill="#008D80"/>
<path d="M458.01 787.217C458.17 787.704 458.228 788.193 458.185 788.682C458.142 789.17 458.011 789.629 457.794 790.062C457.574 790.493 457.28 790.872 456.914 791.197C456.547 791.52 456.118 791.761 455.627 791.919C455.137 792.077 454.648 792.134 454.161 792.09C453.673 792.045 453.214 791.913 452.783 791.694C452.35 791.477 451.973 791.185 451.649 790.818C451.326 790.45 451.085 790.023 450.925 789.535C450.765 789.046 450.707 788.557 450.75 788.07C450.793 787.581 450.925 787.121 451.146 786.693C451.364 786.262 451.657 785.885 452.024 785.562C452.391 785.239 452.819 784.996 453.309 784.834C453.798 784.671 454.286 784.612 454.773 784.655C455.26 784.699 455.72 784.829 456.153 785.047C456.583 785.265 456.96 785.559 457.284 785.928C457.608 786.297 457.85 786.727 458.01 787.217Z" fill="#008D80"/>
<path d="M450.442 756.04C450.541 756.543 450.539 757.035 450.436 757.516C450.333 757.994 450.147 758.434 449.878 758.837C449.606 759.238 449.268 759.577 448.865 759.855C448.461 760.13 448.005 760.316 447.499 760.413C446.993 760.51 446.501 760.506 446.023 760.403C445.544 760.298 445.105 760.11 444.704 759.841C444.302 759.572 443.963 759.235 443.687 758.831C443.411 758.427 443.224 757.973 443.126 757.47C443.027 756.964 443.029 756.472 443.132 755.994C443.235 755.514 443.422 755.074 443.695 754.676C443.964 754.275 444.301 753.937 444.705 753.662C445.109 753.386 445.564 753.198 446.069 753.097C446.574 752.995 447.066 752.996 447.544 753.1C448.022 753.203 448.463 753.389 448.865 753.658C449.266 753.927 449.604 754.265 449.88 754.671C450.156 755.078 450.343 755.534 450.442 756.04Z" fill="#008D80"/>
<path d="M446.665 723.176C446.699 723.688 446.636 724.176 446.474 724.64C446.312 725.101 446.072 725.515 445.755 725.881C445.435 726.244 445.058 726.539 444.623 726.764C444.187 726.987 443.712 727.115 443.198 727.148C442.684 727.18 442.196 727.115 441.734 726.953C441.273 726.789 440.86 726.548 440.497 726.231C440.131 725.913 439.836 725.537 439.613 725.102C439.39 724.666 439.261 724.193 439.227 723.681C439.192 723.167 439.255 722.679 439.417 722.218C439.579 721.754 439.82 721.341 440.14 720.98C440.457 720.616 440.834 720.323 441.269 720.1C441.704 719.877 442.179 719.747 442.693 719.71C443.207 719.672 443.695 719.735 444.156 719.897C444.618 720.059 445.032 720.299 445.398 720.616C445.761 720.933 446.054 721.311 446.278 721.748C446.501 722.186 446.63 722.662 446.665 723.176Z" fill="#008D80"/>
<path d="M447.001 690.3C446.972 690.812 446.848 691.288 446.63 691.728C446.412 692.166 446.124 692.547 445.764 692.871C445.401 693.192 444.99 693.438 444.531 693.608C444.071 693.775 443.584 693.843 443.07 693.812C442.555 693.78 442.079 693.656 441.641 693.438C441.203 693.218 440.824 692.927 440.502 692.568C440.178 692.208 439.933 691.798 439.765 691.338C439.598 690.879 439.529 690.393 439.558 689.881C439.587 689.366 439.71 688.89 439.928 688.452C440.146 688.012 440.436 687.632 440.798 687.313C441.158 686.991 441.568 686.747 442.027 686.58C442.487 686.412 442.974 686.342 443.489 686.369C444.003 686.395 444.48 686.517 444.918 686.735C445.356 686.953 445.736 687.242 446.06 687.602C446.382 687.962 446.626 688.373 446.793 688.835C446.961 689.297 447.03 689.785 447.001 690.3Z" fill="#008D80"/>
<path d="M451.384 657.787C451.292 658.292 451.111 658.749 450.84 659.159C450.57 659.567 450.236 659.909 449.839 660.186C449.44 660.461 449.002 660.654 448.525 660.765C448.048 660.875 447.556 660.882 447.05 660.788C446.543 660.693 446.086 660.511 445.678 660.241C445.271 659.968 444.93 659.634 444.655 659.237C444.378 658.84 444.185 658.403 444.076 657.926C443.966 657.449 443.957 656.958 444.049 656.454C444.141 655.947 444.323 655.489 444.593 655.082C444.863 654.672 445.198 654.331 445.597 654.059C445.994 653.784 446.43 653.592 446.907 653.482C447.384 653.373 447.876 653.363 448.383 653.453C448.891 653.543 449.348 653.723 449.756 653.993C450.164 654.263 450.506 654.597 450.783 654.994C451.058 655.391 451.25 655.829 451.359 656.308C451.468 656.787 451.476 657.28 451.384 657.787Z" fill="#008D80"/>
<path d="M459.769 625.985C459.615 626.475 459.379 626.906 459.06 627.28C458.741 627.651 458.368 627.949 457.939 628.175C457.509 628.398 457.051 628.535 456.563 628.587C456.077 628.637 455.588 628.584 455.097 628.427C454.606 628.271 454.175 628.033 453.804 627.715C453.433 627.394 453.136 627.02 452.913 626.592C452.687 626.164 452.549 625.706 452.499 625.22C452.45 624.733 452.501 624.245 452.655 623.756C452.809 623.264 453.045 622.832 453.364 622.461C453.683 622.088 454.057 621.791 454.487 621.57C454.914 621.347 455.371 621.21 455.858 621.16C456.345 621.111 456.834 621.162 457.327 621.314C457.819 621.465 458.251 621.701 458.622 622.019C458.993 622.338 459.292 622.711 459.517 623.14C459.741 623.567 459.877 624.025 459.926 624.514C459.975 625.003 459.923 625.493 459.769 625.985Z" fill="#008D80"/>
<path d="M472.152 595.216C471.939 595.682 471.651 596.081 471.287 596.412C470.925 596.74 470.517 596.99 470.064 597.161C469.61 597.328 469.138 597.407 468.648 597.398C468.159 597.387 467.68 597.273 467.213 597.056C466.745 596.84 466.347 596.551 466.018 596.188C465.691 595.824 465.442 595.416 465.274 594.963C465.103 594.51 465.024 594.039 465.035 593.55C465.046 593.061 465.159 592.583 465.372 592.117C465.586 591.648 465.875 591.249 466.237 590.921C466.6 590.59 467.009 590.342 467.462 590.177C467.914 590.008 468.385 589.93 468.874 589.941C469.363 589.952 469.842 590.064 470.312 590.276C470.781 590.488 471.181 590.776 471.509 591.138C471.838 591.5 472.087 591.908 472.258 592.361C472.426 592.813 472.504 593.285 472.492 593.776C472.48 594.267 472.366 594.747 472.152 595.216Z" fill="#008D80"/>
<path d="M487.574 567.412C487.305 567.849 486.97 568.209 486.569 568.492C486.169 568.774 485.734 568.972 485.263 569.086C484.792 569.196 484.314 569.217 483.829 569.148C483.345 569.076 482.884 568.905 482.446 568.633C482.008 568.361 481.649 568.025 481.367 567.625C481.087 567.223 480.891 566.787 480.779 566.318C480.665 565.847 480.644 565.37 480.715 564.886C480.786 564.402 480.956 563.942 481.225 563.505C481.495 563.066 481.83 562.705 482.23 562.424C482.631 562.14 483.067 561.944 483.537 561.835C484.006 561.724 484.483 561.703 484.967 561.775C485.451 561.846 485.913 562.015 486.353 562.284C486.793 562.552 487.154 562.886 487.436 563.286C487.717 563.685 487.915 564.121 488.029 564.591C488.141 565.061 488.16 565.538 488.088 566.024C488.016 566.51 487.844 566.973 487.574 567.412Z" fill="#008D80"/>
<path d="M506.705 541.117C506.384 541.517 506.006 541.833 505.573 542.064C505.141 542.294 504.685 542.436 504.204 542.491C503.722 542.542 503.245 542.503 502.772 542.374C502.301 542.243 501.865 542.015 501.465 541.691C501.064 541.366 500.749 540.988 500.519 540.556C500.291 540.123 500.151 539.666 500.098 539.186C500.044 538.705 500.082 538.229 500.213 537.758C500.344 537.286 500.569 536.851 500.891 536.451C501.213 536.049 501.59 535.733 502.022 535.503C502.455 535.272 502.912 535.131 503.392 535.082C503.872 535.029 504.347 535.069 504.819 535.199C505.29 535.33 505.727 535.556 506.131 535.877C506.534 536.197 506.851 536.574 507.08 537.006C507.31 537.437 507.452 537.894 507.507 538.375C507.559 538.855 507.519 539.331 507.387 539.804C507.255 540.277 507.027 540.715 506.705 541.117Z" fill="#008D80"/>
<path d="M529.758 516.609C529.389 516.966 528.975 517.232 528.516 517.407C528.059 517.58 527.588 517.664 527.104 517.657C526.62 517.647 526.151 517.548 525.699 517.361C525.247 517.172 524.844 516.891 524.487 516.519C524.131 516.147 523.866 515.732 523.692 515.275C523.521 514.816 523.439 514.345 523.447 513.862C523.454 513.378 523.552 512.911 523.741 512.46C523.93 512.008 524.209 511.605 524.578 511.248C524.948 510.89 525.362 510.624 525.82 510.451C526.279 510.276 526.749 510.194 527.232 510.205C527.714 510.214 528.181 510.312 528.632 510.502C529.083 510.691 529.489 510.97 529.848 511.339C530.208 511.708 530.475 512.121 530.648 512.578C530.822 513.035 530.905 513.506 530.899 513.99C530.891 514.473 530.791 514.94 530.6 515.393C530.409 515.846 530.129 516.251 529.758 516.609Z" fill="#008D80"/>
<path d="M556.154 494.909C555.742 495.216 555.298 495.427 554.821 495.543C554.345 495.657 553.867 495.68 553.388 495.612C552.909 495.541 552.457 495.383 552.032 495.14C551.608 494.895 551.243 494.565 550.937 494.151C550.631 493.736 550.421 493.291 550.306 492.816C550.194 492.339 550.173 491.861 550.242 491.384C550.31 490.904 550.467 490.453 550.712 490.03C550.956 489.606 551.284 489.241 551.696 488.934C552.109 488.626 552.553 488.415 553.029 488.301C553.506 488.185 553.983 488.164 554.46 488.237C554.938 488.306 555.388 488.463 555.812 488.708C556.235 488.953 556.602 489.281 556.912 489.693C557.222 490.104 557.434 490.548 557.548 491.024C557.663 491.499 557.686 491.977 557.618 492.456C557.548 492.934 557.39 493.385 557.143 493.81C556.897 494.235 556.567 494.601 556.154 494.909Z" fill="#008D80"/>
<path d="M583.888 477.415C583.442 477.669 582.975 477.824 582.487 477.88C582.001 477.935 581.524 477.899 581.057 477.772C580.59 477.643 580.161 477.431 579.769 477.137C579.379 476.842 579.057 476.47 578.804 476.021C578.551 475.572 578.397 475.105 578.342 474.619C578.29 474.131 578.327 473.655 578.455 473.19C578.581 472.722 578.792 472.294 579.087 471.903C579.382 471.513 579.752 471.191 580.198 470.937C580.646 470.682 581.113 470.527 581.599 470.473C582.087 470.417 582.563 470.454 583.028 470.585C583.493 470.712 583.921 470.924 584.311 471.219C584.701 471.514 585.025 471.885 585.282 472.331C585.539 472.778 585.695 473.244 585.75 473.73C585.804 474.216 585.769 474.693 585.642 475.161C585.515 475.626 585.302 476.054 585.005 476.446C584.708 476.837 584.336 477.16 583.888 477.415Z" fill="#008D80"/>
<path d="M612.313 464.01C611.84 464.208 611.357 464.305 610.866 464.301C610.377 464.296 609.908 464.202 609.459 464.02C609.012 463.834 608.612 463.572 608.258 463.232C607.907 462.892 607.633 462.484 607.437 462.007C607.24 461.531 607.145 461.048 607.15 460.559C607.157 460.069 607.252 459.601 607.435 459.154C607.618 458.706 607.879 458.306 608.219 457.955C608.56 457.603 608.967 457.329 609.44 457.131C609.916 456.933 610.398 456.836 610.887 456.841C611.378 456.844 611.846 456.94 612.292 457.126C612.738 457.309 613.137 457.571 613.488 457.912C613.839 458.252 614.115 458.66 614.316 459.134C614.517 459.609 614.615 460.091 614.61 460.58C614.605 461.069 614.511 461.538 614.329 461.986C614.146 462.433 613.883 462.832 613.54 463.184C613.197 463.536 612.788 463.812 612.313 464.01Z" fill="#008D80"/>
<path d="M643.093 453.845C642.599 453.983 642.108 454.019 641.621 453.954C641.136 453.889 640.683 453.737 640.26 453.501C639.84 453.261 639.475 452.951 639.166 452.57C638.86 452.189 638.639 451.75 638.503 451.253C638.367 450.756 638.332 450.265 638.398 449.78C638.465 449.295 638.618 448.842 638.855 448.422C639.092 447.999 639.401 447.635 639.782 447.328C640.163 447.022 640.601 446.8 641.096 446.663C641.592 446.525 642.083 446.488 642.567 446.554C643.054 446.619 643.507 446.771 643.926 447.011C644.346 447.249 644.709 447.558 645.015 447.939C645.322 448.321 645.545 448.759 645.685 449.255C645.826 449.751 645.863 450.241 645.798 450.726C645.732 451.211 645.581 451.664 645.344 452.087C645.107 452.507 644.797 452.871 644.413 453.178C644.03 453.485 643.589 453.707 643.093 453.845Z" fill="#008D80"/>
<path d="M676.068 447.386C675.56 447.46 675.069 447.434 674.594 447.308C674.121 447.182 673.69 446.975 673.301 446.687C672.914 446.397 672.591 446.043 672.333 445.626C672.077 445.21 671.913 444.746 671.841 444.236C671.769 443.725 671.796 443.234 671.922 442.761C672.05 442.288 672.258 441.858 672.547 441.472C672.835 441.082 673.187 440.76 673.604 440.504C674.021 440.248 674.483 440.083 674.991 440.009C675.501 439.934 675.992 439.96 676.465 440.086C676.94 440.212 677.369 440.42 677.754 440.711C678.141 441 678.463 441.352 678.719 441.769C678.974 442.186 679.141 442.649 679.218 443.159C679.294 443.668 679.27 444.159 679.144 444.632C679.018 445.105 678.811 445.536 678.523 445.925C678.234 446.312 677.881 446.633 677.461 446.89C677.042 447.146 676.578 447.311 676.068 447.386Z" fill="#008D80"/>
<path d="M709.131 445.175C708.618 445.186 708.134 445.099 707.678 444.915C707.225 444.731 706.823 444.472 706.473 444.138C706.125 443.802 705.848 443.411 705.644 442.965C705.442 442.52 705.337 442.039 705.329 441.524C705.321 441.009 705.409 440.525 705.593 440.071C705.779 439.618 706.039 439.217 706.373 438.869C706.707 438.519 707.097 438.243 707.543 438.041C707.988 437.839 708.467 437.732 708.98 437.722C709.495 437.712 709.98 437.798 710.433 437.982C710.889 438.166 711.289 438.426 711.635 438.763C711.983 439.097 712.258 439.487 712.46 439.932C712.662 440.378 712.77 440.858 712.782 441.373C712.795 441.888 712.71 442.373 712.526 442.826C712.342 443.279 712.083 443.681 711.749 444.031C711.415 444.379 711.024 444.655 710.576 444.857C710.128 445.059 709.646 445.165 709.131 445.175Z" fill="#008D80"/>
<path d="M741.987 447.081C741.477 447.028 741.007 446.882 740.578 446.643C740.15 446.405 739.784 446.098 739.477 445.724C739.173 445.347 738.947 444.924 738.8 444.457C738.654 443.99 738.609 443.501 738.665 442.988C738.72 442.476 738.867 442.006 739.106 441.579C739.346 441.152 739.654 440.787 740.029 440.482C740.404 440.176 740.825 439.95 741.292 439.805C741.759 439.659 742.247 439.613 742.758 439.666C743.27 439.719 743.74 439.865 744.167 440.103C744.597 440.342 744.962 440.65 745.264 441.026C745.568 441.401 745.793 441.822 745.938 442.289C746.083 442.756 746.131 443.246 746.08 443.759C746.029 444.271 745.884 444.741 745.646 445.168C745.408 445.596 745.101 445.962 744.726 446.269C744.351 446.573 743.929 446.798 743.46 446.943C742.991 447.088 742.5 447.134 741.987 447.081Z" fill="#008D80"/>
<path d="M774.315 453.024C773.815 452.908 773.367 452.706 772.97 452.416C772.576 452.127 772.25 451.777 771.992 451.367C771.737 450.956 771.565 450.509 771.475 450.027C771.389 449.546 771.404 449.054 771.523 448.553C771.641 448.051 771.845 447.603 772.134 447.209C772.426 446.815 772.776 446.49 773.185 446.234C773.595 445.977 774.041 445.804 774.522 445.717C775.003 445.631 775.494 445.645 775.994 445.76C776.496 445.876 776.944 446.079 777.339 446.368C777.736 446.658 778.06 447.008 778.313 447.419C778.569 447.829 778.74 448.274 778.827 448.755C778.914 449.237 778.9 449.729 778.786 450.231C778.673 450.734 778.471 451.183 778.182 451.577C777.893 451.972 777.543 452.298 777.133 452.556C776.724 452.811 776.278 452.982 775.794 453.069C775.31 453.155 774.817 453.14 774.315 453.024Z" fill="#008D80"/>
<path d="M805.762 462.959C805.28 462.783 804.86 462.526 804.503 462.189C804.147 461.854 803.867 461.466 803.661 461.028C803.459 460.588 803.344 460.123 803.315 459.634C803.289 459.145 803.365 458.66 803.545 458.177C803.724 457.694 803.982 457.274 804.318 456.919C804.656 456.564 805.044 456.285 805.482 456.082C805.921 455.877 806.384 455.761 806.872 455.735C807.361 455.708 807.846 455.783 808.328 455.96C808.811 456.137 809.231 456.394 809.587 456.73C809.945 457.066 810.223 457.454 810.423 457.893C810.626 458.331 810.741 458.794 810.767 459.283C810.794 459.771 810.72 460.258 810.544 460.742C810.369 461.227 810.114 461.647 809.778 462.003C809.442 462.358 809.055 462.639 808.616 462.844C808.178 463.047 807.714 463.161 807.223 463.187C806.733 463.212 806.246 463.137 805.762 462.959Z" fill="#008D80"/>
<path d="M836.93 479.092C836.474 478.858 836.088 478.553 835.774 478.175C835.462 477.798 835.231 477.38 835.08 476.92C834.933 476.458 834.875 475.983 834.906 475.494C834.939 475.006 835.074 474.533 835.311 474.075C835.548 473.618 835.855 473.233 836.232 472.921C836.61 472.61 837.029 472.38 837.488 472.232C837.949 472.082 838.423 472.023 838.911 472.056C839.399 472.089 839.871 472.223 840.328 472.456C840.787 472.691 841.172 472.997 841.484 473.374C841.798 473.751 842.028 474.17 842.173 474.631C842.321 475.09 842.379 475.563 842.346 476.051C842.313 476.539 842.18 477.013 841.947 477.473C841.714 477.933 841.409 478.319 841.033 478.631C840.656 478.943 840.238 479.174 839.777 479.325C839.318 479.473 838.844 479.53 838.353 479.496C837.863 479.462 837.389 479.327 836.93 479.092Z" fill="#008D80"/>
<path d="M868.013 497.964C867.59 497.674 867.247 497.322 866.983 496.908C866.721 496.494 866.545 496.05 866.454 495.574C866.367 495.098 866.37 494.619 866.462 494.138C866.557 493.658 866.751 493.206 867.044 492.783C867.338 492.359 867.691 492.016 868.104 491.754C868.519 491.494 868.964 491.319 869.438 491.23C869.914 491.14 870.391 491.142 870.871 491.237C871.351 491.331 871.803 491.524 872.226 491.814C872.651 492.105 872.995 492.457 873.256 492.87C873.52 493.285 873.695 493.73 873.78 494.204C873.869 494.679 873.866 495.156 873.771 495.636C873.676 496.116 873.484 496.569 873.195 496.995C872.906 497.422 872.554 497.766 872.141 498.028C871.728 498.29 871.284 498.466 870.808 498.556C870.334 498.645 869.856 498.641 869.374 498.545C868.892 498.449 868.439 498.255 868.013 497.964Z" fill="#008D80"/>
<path d="M895.58 523.261C895.197 522.921 894.9 522.528 894.69 522.084C894.482 521.642 894.363 521.179 894.332 520.695C894.305 520.212 894.368 519.737 894.52 519.271C894.674 518.807 894.923 518.383 895.267 517.999C895.61 517.615 896.004 517.319 896.446 517.111C896.891 516.905 897.354 516.787 897.836 516.758C898.319 516.728 898.793 516.79 899.257 516.944C899.721 517.098 900.145 517.345 900.529 517.686C900.914 518.028 901.211 518.42 901.419 518.863C901.629 519.307 901.746 519.77 901.772 520.252C901.801 520.734 901.738 521.207 901.584 521.671C901.43 522.135 901.183 522.561 900.842 522.948C900.502 523.335 900.11 523.632 899.668 523.84C899.225 524.048 898.762 524.168 898.279 524.198C897.797 524.227 897.323 524.163 896.857 524.008C896.391 523.852 895.966 523.603 895.58 523.261Z" fill="#008D80"/>
<defs>
<filter id="filter0_d_102_133" x="378.319" y="377" width="684.952" height="684.952" filterUnits="userSpaceOnUse" color-interpolation-filters="sRGB">
<feFlood flood-opacity="0" result="BackgroundImageFix"/>
<feColorMatrix in="SourceAlpha" type="matrix" values="0 0 0 0 0 0 0 0 0 0 0 0 0 0 0 0 0 0 127 0" result="hardAlpha"/>
<feOffset dx="11.3599" dy="9.93992"/>
<feGaussianBlur stdDeviation="29.8198"/>
<feComposite in2="hardAlpha" operator="out"/>
<feColorMatrix type="matrix" values="0 0 0 0 0.0277083 0 0 0 0 0.316667 0 0 0 0 0.264654 0 0 0 0.25 0"/>
<feBlend mode="normal" in2="BackgroundImageFix" result="effect1_dropShadow_102_133"/>
<feBlend mode="normal" in="SourceGraphic" in2="effect1_dropShadow_102_133" result="shape"/>
</filter>
<linearGradient id="paint0_linear_102_133" x1="827.994" y1="486.005" x2="811.297" y2="615.574" gradientUnits="userSpaceOnUse">
<stop offset="0.104167" stop-color="white"/>
<stop offset="1" stop-color="#D6EDEB"/>
</linearGradient>
<linearGradient id="paint1_linear_102_133" x1="935.789" y1="583.865" x2="702.476" y2="710.809" gradientUnits="userSpaceOnUse">
<stop offset="0.104167" stop-color="white"/>
<stop offset="1" stop-color="#D6EDEB"/>
</linearGradient>
<linearGradient id="paint2_linear_102_133" x1="948.811" y1="808.082" x2="704.091" y2="704.825" gradientUnits="userSpaceOnUse">
<stop offset="0.104167" stop-color="white"/>
<stop offset="1" stop-color="#D6EDEB"/>
</linearGradient>
<linearGradient id="paint3_linear_102_133" x1="781.601" y1="958.076" x2="709.776" y2="702.359" gradientUnits="userSpaceOnUse">
<stop offset="0.104167" stop-color="white"/>
<stop offset="1" stop-color="#D6EDEB"/>
</linearGradient>
<linearGradient id="paint4_linear_102_133" x1="560.122" y1="920.871" x2="715.248" y2="705.266" gradientUnits="userSpaceOnUse">
<stop offset="0.104167" stop-color="white"/>
<stop offset="1" stop-color="#D6EDEB"/>
</linearGradient>
<linearGradient id="paint5_linear_102_133" x1="451.092" y1="724.319" x2="716.388" y2="711.362" gradientUnits="userSpaceOnUse">
<stop offset="0.104167" stop-color="white"/>
<stop offset="1" stop-color="#D6EDEB"/>
</linearGradient>
<linearGradient id="paint6_linear_102_133" x1="536.717" y1="516.778" x2="712.335" y2="716.047" gradientUnits="userSpaceOnUse">
<stop offset="0.104167" stop-color="white"/>
<stop offset="1" stop-color="#D6EDEB"/>
</linearGradient>
</defs>
</svg>
