<svg xmlns="http://www.w3.org/2000/svg" width="23.9" height="24" viewBox="0 0 23.9 24"><defs><style>.a{fill:#fff;}</style></defs><path class="a" d="M808.3,860.6h-1.6v-.8a.669.669,0,0,1,.7-.6h.1a.669.669,0,0,1,.7.6l.1.8Zm-5.9-1.7c-.4,0-.7.2-.7.5v3.7c0,.3.3.5.7.5s.7-.2.7-.5v-3.7C803.1,859.1,802.8,858.9,802.4,858.9Zm9.6-2.1v7.1c0,1.7-1.8,3.1-3.9,3.1H792c-2.2,0-3.9-1.4-3.9-3.1v-7.1c0-1.7,1.8-3.1,3.9-3.1h16.1c2.1,0,3.9,1.4,3.9,3.1Zm-19,7.9v-7.5h2v-1.1h-5.3v1.1h1.7v7.5Zm6-6.4h-1.7v5a.536.536,0,0,1-1,0v-5h-1.7v5.2c0,.4,0,.8.4,1a2.1,2.1,0,0,0,2.5-.7v.8h1.3l.2-6.3Zm5.3,4.6v-3.3c0-1.3-1.1-2-2.7-1v-2.5h-1.7v8.5h1.4l.1-.5c1.8,1.3,2.9.4,2.9-1.2Zm5.3-.4h-1.2v.7a.669.669,0,0,1-.7.6h-.2a.669.669,0,0,1-.7-.6v-1.5h2.9v-.9a8.113,8.113,0,0,0-.1-1.7c-.2-1.2-2.2-1.4-3.2-.8a1.779,1.779,0,0,0-.7.8,4.635,4.635,0,0,0-.2,1.4v2c-.1,3.2,4.6,2.8,4.1,0Zm-6.5-10.8a.781.781,0,0,0,.4.4,1.445,1.445,0,0,0,.7.2,1.072,1.072,0,0,0,.6-.2c.2-.1.3-.3.5-.5v.5h1.9v-6.6h-1.5v5.1a.61.61,0,0,1-1.2,0v-5.1H803V851a5.64,5.64,0,0,0,.1.7Zm-5.6-3.7a6.051,6.051,0,0,1,.2-1.5,1.6,1.6,0,0,1,.7-.9,2.5,2.5,0,0,1,1.3-.3,3.6,3.6,0,0,1,1.1.2,1.794,1.794,0,0,1,.7.5,1.08,1.08,0,0,1,.3.7,3.109,3.109,0,0,1,.1,1.1v1.7a4.152,4.152,0,0,1-.1,1.3,2.01,2.01,0,0,1-.4.8,1.794,1.794,0,0,1-.7.5,3.552,3.552,0,0,1-1,.2,3.751,3.751,0,0,1-1.1-.1,1.157,1.157,0,0,1-.7-.5,2.506,2.506,0,0,1-.4-.7,4.513,4.513,0,0,1-.1-1.3l.1-1.7Zm1.5,2.6a.7.7,0,0,0,1.4,0v-3.5a.7.7,0,0,0-1.4,0v3.5Zm-5.2,1.8h1.8v-5.1l2.1-4.3h-1.9l-1.1,3.2-1.1-3.2h-1.9l2.2,4.3-.1,5.1Z" transform="translate(-788.1 -843)"/></svg>