<svg xmlns="http://www.w3.org/2000/svg" width="22.153" height="16" viewBox="0 0 22.153 16"><defs><style>.a{fill:#fc0d1b;fill-rule:evenodd;}</style></defs><path class="a" d="M7.474,4.909a70.358,70.358,0,0,1,10.976,0L20.9,5.1a2.984,2.984,0,0,1,2.711,2.484,31.009,31.009,0,0,1,0,10.22A2.985,2.985,0,0,1,20.9,20.289l-2.454.192a70.377,70.377,0,0,1-10.976,0L5.02,20.289A2.985,2.985,0,0,1,2.31,17.805a31.009,31.009,0,0,1,0-10.22A2.984,2.984,0,0,1,5.02,5.1Zm3.3,10.491V9.99a.329.329,0,0,1,.5-.282l4.509,2.705a.328.328,0,0,1,0,.563l-4.509,2.705A.329.329,0,0,1,10.772,15.4Z" transform="translate(-1.886 -4.695)"/></svg>